<svg width="296" height="218" viewBox="0 0 296 218" fill="none" xmlns="http://www.w3.org/2000/svg">
<path fill-rule="evenodd" clip-rule="evenodd" d="M220.108 9.03448C218.915 9.6345 216.532 11.2488 214.811 12.6226C211.728 15.0848 211.708 15.1307 213.422 15.8849C215.103 16.6248 215.092 16.6421 213.069 16.4096C211.394 16.2173 210.566 16.6489 208.91 18.5788C207.773 19.9041 206.1 21.2531 205.192 21.5776C203.601 22.1449 203.582 22.1103 204.656 20.6354C205.735 19.154 205.697 19.1127 203.488 19.3491C202.233 19.4834 201.168 19.2485 201.123 18.8277C201.078 18.4069 200.739 18.2962 200.37 18.5821C199.35 19.3743 193.945 20.1252 193.876 19.4839C193.843 19.1745 192.967 19.0123 191.93 19.1233C190.576 19.2682 190.19 19.61 190.561 20.3352C190.977 21.1483 190.718 21.2506 189.232 20.8612C187.75 20.4722 187.41 20.605 187.51 21.5318C187.599 22.3661 187.36 22.5093 186.65 22.0486C185.094 21.0386 179.693 22.2599 178.17 23.9658C177.418 24.8067 176.746 25.3971 176.675 25.2782C176.603 25.1593 175.999 25.3417 175.331 25.683C174.62 26.0472 174.198 27.0576 174.312 28.1225C174.472 29.6175 174.306 29.8085 173.38 29.194C172.478 28.5958 172.124 28.7661 171.604 30.0479C171.247 30.9285 170.912 32.5482 170.86 33.6477C170.64 38.2838 170.069 40.0369 168.955 39.5032C168.595 39.331 167.427 39.6345 166.358 40.1766C164.803 40.9659 164.641 41.2743 165.547 41.72C166.495 42.1866 166.475 42.3007 165.42 42.4231C164.729 42.5029 163.825 43.2628 163.413 44.1113C163.001 44.9597 162.174 45.7165 161.574 45.7939C160.686 45.9079 160.737 46.0859 161.854 46.7584C163.69 47.8657 163.681 48.6768 161.836 48.3017C159.991 47.9266 159.985 48.7221 161.824 49.9029C162.821 50.5429 162.517 50.5417 160.726 49.8997C159.308 49.3912 158.287 49.3293 158.333 49.7544C158.376 50.1622 157.904 50.5505 157.284 50.6168C156.664 50.6832 156.392 51.0413 156.681 51.4126C156.969 51.7839 156.725 52.1391 156.137 52.202C155.551 52.2648 154.948 52.7409 154.799 53.2592C154.594 53.9758 154.327 53.9685 153.686 53.2306C153.223 52.6959 152.975 51.9824 153.138 51.6455C153.299 51.3079 152.847 50.3625 152.133 49.544C151.418 48.7261 150.758 47.3979 150.666 46.5917C150.542 45.5169 150.363 45.4008 149.99 46.1551C149.632 46.8808 149.282 46.5402 148.795 44.9909C148.381 43.6707 147.423 42.5747 146.385 42.2339C142.434 40.9354 141.054 40.0951 141.993 39.5581C142.5 39.2684 142.11 39.1902 141.125 39.3856C139.736 39.6614 139.33 40.2094 139.318 41.8245C139.305 43.5069 139.014 43.8642 137.803 43.6823C136.456 43.4805 136.424 43.5695 137.491 44.5596C139.172 46.1192 138.661 47.7058 136.729 46.9239C135.91 46.5925 135.374 46.043 135.537 45.7024C135.7 45.3624 135.3 44.5168 134.648 43.8232C133.046 42.1212 132.984 40.9607 134.465 40.4002C135.222 40.1137 134.927 39.9837 133.697 40.0633C131.598 40.1987 130.92 40.8577 127.068 46.5024C125.206 49.2325 124.648 49.6812 124.471 48.5923C124.347 47.829 123.956 48.5524 123.602 50.199C123.247 51.8456 122.869 52.7087 122.76 52.1171C122.635 51.4336 122.274 51.7253 121.771 52.9175C121.335 53.9492 121.175 55.1765 121.415 55.6444C121.706 56.2121 121.337 56.4176 120.304 56.2627C119.454 56.135 118.696 55.6648 118.62 55.2166C118.543 54.7693 118.301 55.0636 118.08 55.8718C117.704 57.248 117.556 57.2221 115.709 55.4557C108.024 48.1058 107.647 47.929 108.068 51.8611C108.217 53.2527 108.003 54.4273 107.592 54.4712C106.399 54.5989 105.782 52.7147 106.465 51.0285C107.059 49.5632 106.977 49.5325 104.984 50.4756C102.21 51.7881 101.5 53.7593 102.26 58.0412C102.604 59.9751 102.684 61.6608 102.438 61.7873C102.192 61.9137 102.011 63.9667 102.036 66.3492C102.096 72.11 99.8268 75.1965 98.9387 70.5613C98.5869 68.7233 98.5562 68.7171 96.6931 70.1047C95.6533 70.8777 94.8287 71.7469 94.8597 72.0361C94.8906 72.3252 94.2426 72.5057 93.4193 72.4366C92.5967 72.3674 92.1466 72.5991 92.4199 72.9508C92.6932 73.3033 92.495 73.674 91.979 73.7753C91.4631 73.8773 90.7225 74.0618 90.3334 74.1861C89.9441 74.3096 88.2535 74.8269 86.5765 75.3339C83.6825 76.2102 80.7523 78.3065 76.563 82.4979C75.0877 83.9741 74.7237 85.0587 74.846 87.6174C74.9309 89.4027 75.2707 90.8347 75.6006 90.7994C75.9312 90.764 76.4386 91.3619 76.7292 92.1286C77.1714 93.293 77.0301 93.4295 75.8698 92.9598C75.1065 92.651 74.2597 92.0068 73.9883 91.5283C73.7169 91.0506 73.6674 91.6277 73.879 92.8116C74.1811 94.5072 73.9898 94.9481 72.9742 94.8871C71.3945 94.7929 71.4129 95.8673 73.0094 96.9264C74.8731 98.1631 74.5215 99.1104 72.5698 98.1112C70.8342 97.2228 70.814 97.2527 71.153 100.257C71.3649 102.135 72.2282 104.24 73.4042 105.745C75.356 108.243 76.1859 110.925 74.8022 110.262C74.378 110.059 73.9639 109.267 73.882 108.501C73.8001 107.736 72.6406 106.152 71.305 104.981L68.8762 102.853L70.1648 104.87C72.4554 108.456 69.3585 109.98 64.5265 107.645C63.0689 106.941 62.6404 107.053 61.1196 108.535C59.9727 109.654 59.5668 110.654 59.9268 111.475C60.4801 112.734 58.8626 114.174 57.583 113.561C57.2297 113.391 56.3096 114.394 55.5383 115.788C54.5829 117.514 54.5018 117.959 55.2828 117.182C56.6439 115.829 57.3651 116.181 56.8894 117.966C56.7028 118.67 56.0899 119.124 55.528 118.975C54.9669 118.826 54.2295 119.388 53.8902 120.225C53.551 121.062 52.9476 121.591 52.5496 121.4C52.1462 121.207 52.0852 121.56 52.4118 122.198C52.9233 123.197 52.7952 123.245 51.3998 122.568C49.9203 121.851 49.8834 121.71 50.9074 120.667C51.5158 120.048 50.7011 120.428 49.0968 121.513C47.4932 122.597 45.7121 124.128 45.1398 124.914C44.1669 126.251 44.2042 126.333 45.7184 126.171C48.1376 125.912 47.3087 127.807 44.8272 128.21C43.675 128.396 42.427 128.613 42.0525 128.689C41.6788 128.766 41.8048 129.178 42.3334 129.604C43.6115 130.634 43.6187 131.27 42.3609 131.913C41.033 132.592 38.9657 132.064 39.4006 131.157C40.1694 129.555 38.3246 130.791 36.5834 133.045C35.0711 135.002 34.9734 135.362 36.0916 134.857C37.1441 134.38 37.2548 134.43 36.5443 135.059C36.0262 135.517 35.2048 135.787 34.7198 135.658C34.2347 135.529 32.8327 137.355 31.6042 139.715C30.3756 142.075 29.0543 144.041 28.6673 144.082C28.2802 144.123 27.291 145.929 26.469 148.095C25.3079 151.154 25.1391 152.64 25.7125 154.751C26.5173 157.711 25.8769 166.771 24.5399 171.36C24.0801 172.937 22.6378 175.822 21.3353 177.772C16.1966 185.462 15.7717 190.682 19.4468 200.963C21.0915 205.564 22.1801 207.661 22.8848 207.586C23.6777 207.501 23.75 207.726 23.1979 208.556C22.8028 209.152 22.6691 210.07 22.8999 210.599C23.1313 211.128 23.6122 212.435 23.9693 213.503C24.525 215.167 24.9764 215.406 27.1359 215.175C28.5214 215.026 29.6902 215.241 29.7341 215.651C29.868 216.903 27.7958 217.519 26.3562 216.655C25.1942 215.957 25.147 215.974 26.0283 216.77C26.5954 217.283 29.7622 218.137 33.0667 218.669C36.3711 219.201 38.8648 219.467 38.6085 219.26C38.0199 218.786 39.3036 216.798 40.2651 216.695C40.6608 216.652 40.888 217.257 40.7703 218.038C40.5879 219.253 41.0464 219.456 43.9455 219.442C45.8089 219.432 48.8404 219.656 50.6818 219.94C52.5687 220.231 55.5324 220.096 57.4731 219.631C61.141 218.753 67.6653 215.628 68.7313 214.238C69.1063 213.749 68.7335 213.822 67.8352 214.412C65.8758 215.7 65.7261 214.622 67.5848 212.605C68.3675 211.755 68.8143 211.492 68.5766 212.02C68.339 212.549 68.4194 212.951 68.7543 212.915C69.09 212.879 69.8022 211.889 70.3366 210.715C70.8711 209.542 71.9971 207.858 72.8384 206.974L74.3679 205.368L73.1599 207.325C72.4958 208.402 72.9083 208.092 74.077 206.637C75.8528 204.426 76.562 204.031 78.3962 204.234C79.7838 204.386 80.9997 204.069 81.7037 203.372C82.3165 202.766 83.5057 201.783 84.3478 201.187C86.4748 199.68 86.6799 201.597 84.5864 203.416C83.5433 204.323 83.4146 204.7 84.1689 204.644C86.5204 204.469 89.7712 200.952 92.3536 195.788C95.9383 188.621 98.8131 185.335 106.807 179.271C110.474 176.488 115.098 172.574 117.082 170.573C122.209 165.403 132.716 159.13 132.929 161.113C132.952 161.33 131.792 164.169 130.352 167.421C128.322 172.004 126.003 175.338 120.047 182.243C115.82 187.143 110.558 192.769 108.355 194.745C103.442 199.15 98.0971 205.432 98.6521 206.147C98.8778 206.437 98.4788 207.071 97.7654 207.557C96.0855 208.7 95.2792 214.269 96.3956 217.016C96.8604 218.158 97.8894 220.075 98.683 221.275C100.048 223.34 100.071 223.74 99.1222 228.718C98.4161 232.418 97.6198 234.386 96.4377 235.355C94.8433 236.662 94.8069 236.97 95.73 241.426L96.7028 246.121L89.0722 264.121C78.1439 289.9 49.9768 365.313 48.4182 372.966C48.1143 374.454 48.351 374.506 53.1418 373.993L58.1851 373.453L60.1556 368.276C61.2398 365.429 62.411 361.767 62.7591 360.137C63.1072 358.508 64.0998 355.289 64.9647 352.985C67.0195 347.507 69.3157 339.382 69.1763 338.079C69.1157 337.513 69.5894 336.121 70.2282 334.985C70.8676 333.849 71.3576 332.759 71.3183 332.562C71.2782 332.365 72.0355 329.875 73.0013 327.029C73.9678 324.183 74.708 321.39 74.6471 320.821C74.5863 320.252 74.862 319.752 75.2599 319.709C75.6578 319.667 75.9258 319.094 75.8555 318.437C75.7852 317.78 76.508 314.987 77.4623 312.232C78.4166 309.477 79.8092 305.348 80.5584 303.055C81.3069 300.763 85.7902 288.446 90.5215 275.683L99.1238 252.478L100.426 257.454C101.335 260.926 102.389 263.129 103.914 264.741C105.116 266.012 106.961 268.605 108.013 270.503C109.065 272.402 109.699 273.156 109.421 272.181C109.142 271.205 109.201 269.225 109.551 267.779C110.17 265.221 110.199 265.279 110.627 269.969C110.868 272.619 110.771 274.646 110.41 274.475C109.296 273.944 111.414 276.663 113.028 277.836C113.867 278.446 116.734 279.571 119.401 280.337C123.811 281.604 124.797 281.626 130.345 280.583C138.092 279.128 142.518 277.01 145.366 273.394C147.349 270.877 147.509 270.313 146.692 268.706C145.096 265.565 146.796 264.289 154.768 262.64C163.188 260.9 167.642 259.222 168.911 257.312C169.35 256.651 171.114 255.19 172.83 254.066C176.607 251.591 182.929 244.703 184.579 241.266C185.239 239.888 186.671 234.992 187.762 230.384C189.252 224.083 189.518 221.802 188.835 221.176C188.115 220.516 188.174 220.489 189.114 221.045C190.042 221.593 191.682 221.024 196.592 218.45C202.874 215.157 202.881 215.15 202.431 212.751C202.182 211.43 202.298 210.501 202.686 210.688C203.34 211 203.595 209.923 203.196 208.531C203.104 208.209 203.384 208.116 203.819 208.324C204.254 208.532 204.946 208.442 205.357 208.123C205.878 207.718 205.788 207.386 205.057 207.026C204.24 206.624 204.288 206.477 205.274 206.363C206.705 206.197 209.694 208.356 209.833 209.657C209.981 211.035 213.819 206.139 216.058 201.717C217.996 197.887 221.424 194.435 225.183 192.527C226.688 191.763 226.744 191.502 225.796 189.627C223.824 185.723 227.545 183.288 230.64 186.457L232.259 188.117L233.42 185.562L234.582 183.007L232.416 182.314C231.225 181.932 230.198 181.14 230.135 180.553C230.068 179.923 229.698 179.738 229.231 180.1C228.694 180.517 228.551 180.298 228.784 179.422C229.002 178.605 228.863 178.336 228.408 178.689C227.282 179.563 224.543 176.872 225.435 175.767C225.834 175.273 226.584 174.823 227.101 174.767C227.619 174.712 228.007 174.337 227.964 173.934C227.918 173.506 229.022 173.539 230.623 174.015C232.128 174.463 233.809 174.781 234.357 174.722C235.601 174.589 235.537 173.142 234.292 173.243C233.794 173.284 232.679 172.872 231.816 172.327C230.298 171.369 230.315 171.341 232.322 171.473L234.398 171.609L232.132 169.699L229.867 167.79L231.986 168.344C234.834 169.09 235.105 169.001 233.813 167.744C232.889 166.847 231.6 161.125 232.304 161.049C234.599 160.799 241.693 169.211 241.153 171.542C240.864 172.793 240.919 172.806 241.709 171.675C242.193 170.983 244.118 169.33 245.988 168.001C249.816 165.281 256.676 157.71 255.166 157.871C254.626 157.929 254.101 158.354 254 158.817C253.883 159.355 252.453 159.122 250.029 158.171C245.535 156.407 241.928 154.208 243.257 154.043C243.777 153.978 243.967 153.622 243.678 153.25C243.39 152.879 243.499 152.538 243.92 152.493C244.341 152.448 244.73 152.818 244.784 153.315C244.837 153.812 245.699 154.179 246.7 154.129C249.001 154.017 248.951 153.752 246.275 151.877C244.255 150.463 244.22 150.371 245.772 150.589C248.385 150.957 247.655 150.078 244.273 148.786C242.579 148.14 241.344 147.298 241.527 146.916C241.71 146.535 241.251 145.963 240.508 145.646C239.765 145.329 239.373 144.8 239.638 144.472C239.903 144.144 240.922 144.456 241.901 145.164C245.081 147.463 245.918 147.599 245.218 145.705C244.658 144.19 244.705 144.134 245.666 145.165C246.257 145.8 246.93 146.085 247.161 145.798C247.392 145.512 247.618 145.619 247.663 146.037C247.708 146.455 248.658 147.265 249.775 147.837C250.892 148.409 251.562 148.562 251.263 148.178C250.102 146.684 252.183 146.504 253.968 147.943C255.005 148.779 256.252 149.282 256.739 149.06C257.225 148.837 258.47 149.452 259.506 150.425L261.389 152.193L262.305 150.397C263.104 148.831 266.576 138.147 266.504 137.476C266.489 137.341 265.74 137.254 264.837 137.285C263.934 137.315 262.679 136.722 262.045 135.965C261.412 135.209 260.481 134.634 259.975 134.689C259.469 134.743 258.816 134.319 258.523 133.747C258.23 133.175 257.572 132.742 257.061 132.784C256.55 132.826 255.46 132.12 254.64 131.215C253.361 129.802 253.308 129.552 254.269 129.449C254.884 129.383 255.351 128.985 255.306 128.564C255.261 128.143 255.653 127.961 256.177 128.159C256.702 128.358 256.511 128.115 255.754 127.619C253.988 126.463 253.88 125.536 255.562 125.983C256.278 126.173 259.181 126.378 262.014 126.438C266.4 126.531 267.276 126.36 267.921 125.292C268.337 124.601 268.479 123.781 268.236 123.468C267.994 123.155 268.236 123.014 268.775 123.152C269.314 123.291 271.198 121.872 272.961 119.998C277.527 115.149 280.007 107.658 280.014 98.6997C280.022 88.6175 280.288 86.7967 281.761 86.7577C283.667 86.7066 283.17 85.9071 280.637 84.9482C274.278 82.5413 269.933 80.6188 269.887 80.1915C269.831 79.6652 272.048 79.6269 277.388 80.0617C279.323 80.2195 281.046 80.0601 281.215 79.7078C281.705 78.6858 283.721 79.5391 283.859 80.8274C283.927 81.4716 285.066 79.9166 286.388 77.3709C288.717 72.8849 289.203 70.4565 289.635 61.1346C289.811 57.3361 289.701 56.923 288.55 57.0461C287.846 57.1215 287.033 56.8794 286.745 56.5081C286.456 56.1368 286.793 55.7717 287.493 55.6969C289.484 55.4838 287.7 54.5515 283.12 53.4109C278.87 52.352 268.474 52.644 249.402 54.3584C244.731 54.7778 240.694 54.9487 240.432 54.7369C239.536 54.0145 247.518 52.4731 257.269 51.4846C267.131 50.4857 271.434 50.4129 274.833 51.1877C277.696 51.84 282.999 51.7428 282.458 51.0475C282.198 50.7112 282.348 50.3975 282.793 50.3499C283.238 50.3023 283.366 49.9596 283.077 49.5883C282.789 49.217 283.061 48.8588 283.681 48.7925C284.301 48.7261 284.774 48.3465 284.731 47.9489C284.689 47.5512 285.115 47.1766 285.679 47.1162C286.242 47.0559 286.777 46.6726 286.868 46.2643C286.958 45.8554 288.091 45.2824 289.383 44.9905C292.648 44.2529 293.135 43.3299 290.096 43.6383C276.236 45.0444 264.919 45.8831 263.988 45.5718C263.362 45.3624 259.095 45.4942 254.507 45.8646C247.341 46.4433 247.814 46.3393 257.861 45.1306C264.294 44.3559 269.768 43.994 270.026 44.3254C270.283 44.6569 272.036 44.6954 273.92 44.4118C275.804 44.1277 281.002 43.442 285.47 42.8887C293.805 41.8557 295.618 40.8691 291.109 39.8204C289.403 39.4231 289.027 39.0875 289.693 38.5584C290.388 38.0058 290.294 37.8674 289.291 37.966C288.57 38.0373 288.136 37.7707 288.327 37.3738C288.9 36.1798 282.953 36.3093 272.079 37.7273C263.317 38.8703 261.97 38.904 262.974 37.9535C264.056 36.928 264.023 36.8869 262.57 37.4483C257.739 39.3127 257.737 39.313 259.833 37.5115C260.938 36.5604 262.33 35.7233 262.926 35.6508C263.889 35.5339 263.88 35.4457 262.842 34.8606C261.903 34.3314 262.001 34.2376 263.34 34.3847C264.256 34.4848 264.973 34.264 264.934 33.8931C264.894 33.523 263.869 33.1296 262.657 33.0195C261.444 32.9093 260.598 32.5143 260.777 32.1421C261.202 31.2541 264.414 30.9237 265.021 31.7055C265.617 32.4723 270.013 33.5281 269.845 32.8631C269.272 30.6093 271.51 29.5084 274.088 30.7763C274.801 31.1263 275.523 31.0227 276.035 30.4963C276.483 30.0359 277.564 29.8047 278.437 29.9819C279.436 30.1851 280.298 29.8844 280.763 29.1714C281.194 28.5103 284.549 27.2161 288.805 26.0676C296.541 23.9807 299.435 22.0543 298.266 19.7693C297.78 18.8224 297.493 18.7983 296.676 19.6374C296.128 20.2006 295.45 20.4778 295.172 20.2524C294.892 20.0279 294.266 20.2528 293.779 20.7524C293.173 21.3759 292.869 21.4195 292.812 20.891C292.767 20.4673 293.399 19.5368 294.218 18.8233C295.035 18.1099 295.332 17.5656 294.876 17.6144C294.42 17.6632 293.114 18.858 291.975 20.2706C289.996 22.7206 289.634 22.8697 284.006 23.545C280.763 23.9344 277.743 24.5376 277.293 24.8855C276.82 25.2527 276.436 25.1359 276.38 24.6089C276.304 23.9011 276.11 23.9124 275.507 24.6591C275.081 25.1873 274.062 25.6678 273.243 25.7276C271.769 25.8341 271.769 25.8276 273.135 25.0591C274.059 24.5398 274.155 24.3029 273.424 24.3437C271.673 24.4412 275.823 21.9804 278.74 21.1916C280.202 20.7968 281.68 20.1239 282.024 19.6981C282.928 18.5784 283.972 18.6179 283.446 19.7514C283.109 20.4762 283.236 20.4941 283.959 19.8222C284.487 19.3321 286.484 18.1708 288.397 17.2407C292.193 15.3948 293.379 14.4029 292.569 13.751C291.969 13.2675 285.664 15.6297 285.736 16.3109C285.761 16.5575 284.077 16.9724 281.993 17.2321L278.202 17.7056L283.126 15.8523C287.787 14.0974 286.805 14.1454 279.486 16.029C277.358 16.577 276.891 16.5377 277.64 15.874C278.192 15.3858 279.263 14.9151 280.019 14.8276C281.686 14.6361 289.035 10.2405 288.461 9.77901C288.238 9.59818 287.415 9.8866 286.632 10.4193C285.687 11.063 285.183 11.1367 285.13 10.6393C285.086 10.228 284.444 10.641 283.704 11.5582C282.061 13.5927 280.997 13.0792 282.52 10.988C283.545 9.58042 283.531 9.4751 282.287 9.14463C281.396 8.90799 280.61 9.37746 279.866 10.5927L278.764 12.3917L278.574 10.7668C278.354 8.88831 276.774 8.84603 272.346 10.601C270.315 11.4054 269.467 11.4947 269.21 10.9321C269.016 10.5082 268.397 10.2104 267.833 10.2707C267.269 10.331 266.776 10.0753 266.736 9.70223C266.604 8.47105 263.886 9.50771 263.682 10.867C263.571 11.5998 262.962 12.2543 262.328 12.3221C261.694 12.39 261.209 12.7607 261.25 13.1461C261.291 13.5307 260.817 13.7109 260.195 13.5463C259.574 13.381 259.103 13.5959 259.149 14.0239C259.195 14.4511 258.724 14.666 258.102 14.5015C256.561 14.0917 256.614 13.6019 258.472 11.1137C259.352 9.93582 260.044 8.71298 260.01 8.39777C259.976 8.08192 258.163 7.93731 255.981 8.07571C252.886 8.27237 251.867 8.62199 251.341 9.66909C250.705 10.9341 250.682 10.9359 250.928 9.69426C251.145 8.59831 250.865 8.48053 249.261 8.99436C244.453 10.534 242.05 11.8265 243.03 12.3454C243.622 12.6593 242.836 12.8225 241.085 12.7488C238.329 12.6334 238.24 12.6868 239.67 13.6044C240.509 14.1427 241.512 14.5494 241.901 14.5078C242.289 14.4663 242.439 14.6388 242.236 14.8917C242.032 15.1439 240.889 14.9751 239.696 14.5164C236.61 13.3299 233.643 13.7966 233.352 15.5139C233.221 16.2818 233.005 17.5546 232.871 18.3411C232.717 19.2475 233.299 20.2945 234.458 21.1964C236.147 22.5124 236.174 22.6032 234.8 22.3971C233.982 22.274 232.711 21.9983 231.976 21.7844C230.803 21.4426 230.753 21.6155 231.562 23.2085C232.642 25.3335 231.84 25.6855 229.529 24.101C228.608 23.4697 228.182 22.6913 228.487 22.2016C228.986 21.4023 229.149 20.4101 229.841 13.9804C230.208 10.5628 229.168 8.55795 227.14 8.77492C226.382 8.85605 225.525 8.61866 225.236 8.24735C224.569 7.3886 222.86 7.65045 220.108 9.03448ZM257.562 10.09C256.797 11.8456 255.249 13.8108 254.574 13.883C253.776 13.9684 256.563 9.38159 257.399 9.23365C257.719 9.17752 257.792 9.56306 257.562 10.09ZM277.392 11.076C277.226 11.697 276.8 12.2361 276.445 12.2741C276.09 12.3121 275.747 11.8553 275.683 11.2588C275.619 10.6624 276.045 10.1232 276.63 10.0607C277.277 9.9915 277.574 10.3881 277.392 11.076ZM274.79 13.6723C275.541 15.1372 274.304 16.1337 271.324 16.4673C269.55 16.6651 269.068 16.4585 269.297 15.5983C269.662 14.2261 270.625 14.0281 271.166 15.2133C271.411 15.7494 271.831 15.4237 272.26 14.365C273.087 12.3249 273.975 12.0814 274.79 13.6723ZM226.476 22.0445C225.697 22.9433 225.034 23.4478 225.003 23.1659C224.915 22.3425 227.026 19.7094 227.481 20.0753C227.709 20.2594 227.257 21.145 226.476 22.0445ZM260.318 16.6877C259.587 17.0759 259.618 17.3629 260.486 18.2572C261.435 19.2357 261.403 19.2611 260.176 18.4958C259.422 18.0244 258.773 17.3531 258.736 17.0046C258.699 16.6555 259.241 16.3349 259.94 16.2915C260.749 16.2415 260.887 16.3862 260.318 16.6877ZM263.246 16.7575C262.82 17.2857 262.538 18.3411 262.619 19.1038C262.73 20.1333 263.129 20.3523 264.173 19.9569C264.946 19.6636 265.82 19.7339 266.115 20.1126C266.437 20.5285 268.389 20.4557 271.035 19.9298C274.442 19.2523 274.87 19.2628 272.957 19.9764C271.603 20.4811 269.306 21.1794 267.854 21.5272C266.402 21.8755 264.63 22.5588 263.915 23.0447C263.201 23.5314 260.449 24.5167 257.801 25.2352C255.154 25.9535 252.179 27.0645 251.191 27.704C249.404 28.8604 243.425 30.8916 244.042 30.1324C244.22 29.9137 247.331 28.2113 250.955 26.3494C261.793 20.7811 261.813 20.7666 262.042 18.2641C262.156 17.0117 262.648 15.9441 263.136 15.8919C263.825 15.8181 263.849 16.0108 263.246 16.7575ZM187.476 28.0601C187.498 28.2589 186.827 28.1435 185.985 27.8028C185.144 27.4621 184.438 27.0214 184.417 26.8226C184.396 26.6238 185.067 26.7392 185.908 27.0799C186.749 27.4205 187.455 27.8613 187.476 28.0601ZM243.811 21.7985C242.796 24.3947 241.98 25.4904 241.3 25.1653C240.963 25.004 241.439 23.805 242.359 22.5008C244.355 19.6679 244.711 19.4961 243.811 21.7985ZM257.971 19.7116C259.363 20.5476 259.145 20.6616 255.332 21.0908C253.045 21.3487 251.142 21.2612 251.103 20.8961C250.927 19.2456 255.795 18.4059 257.971 19.7116ZM276.114 17.1386C275.899 17.4043 275.278 17.4971 274.734 17.344C274.132 17.1752 274.285 16.9855 275.124 16.8606C275.883 16.7479 276.329 16.8729 276.114 17.1386ZM291.885 16.4339C289.61 17.2411 284.527 21.5808 285.211 22.132C285.424 22.3045 286.514 21.4925 287.632 20.3279C288.75 19.1634 290.915 17.726 292.443 17.1347C293.971 16.5427 295.206 15.9082 295.186 15.7246C295.144 15.3291 294.779 15.4076 291.885 16.4339ZM172.903 30.8025C172.734 31.4034 172.544 31.2504 172.419 30.4119C172.307 29.6532 172.432 29.2084 172.697 29.4227C172.963 29.6371 173.056 30.2582 172.903 30.8025ZM207.043 26.2809C208.457 26.9932 207.315 27.1155 205.234 26.4745C204.236 26.1666 204.089 25.955 204.802 25.8524C205.396 25.7661 206.405 25.9595 207.043 26.2809ZM277.716 18.4297C277.501 18.6954 276.88 18.7882 276.336 18.6351C275.734 18.4662 275.887 18.2766 276.726 18.1517C277.485 18.039 277.93 18.164 277.716 18.4297ZM226.77 25.9983C226.834 26.5947 226.56 27.1176 226.162 27.1601C225.765 27.2027 225.387 26.7496 225.323 26.1531C225.259 25.5567 225.533 25.0339 225.93 24.9913C226.328 24.9487 226.706 25.4019 226.77 25.9983ZM241.51 26.9805C241.552 27.3781 241.242 27.7403 240.821 27.7854C240.4 27.8304 240.221 27.5205 240.425 27.0966C240.628 26.6726 240.938 26.3105 241.113 26.2917C241.289 26.2728 241.467 26.5828 241.51 26.9805ZM188.146 36.4838C187.977 37.0847 187.787 36.9317 187.662 36.0932C187.549 35.3346 187.674 34.8897 187.94 35.1041C188.206 35.3184 188.299 35.9395 188.146 36.4838ZM243.033 31.4395C242.888 31.9859 241.257 32.9977 239.41 33.6875C236.592 34.74 222.532 44.3814 215.959 49.7696C214.942 50.6038 214.088 51.0879 214.062 50.8457C213.916 49.4822 235.107 34.0762 240.189 31.8514C241.733 31.175 243.065 30.5821 243.148 30.5337C243.23 30.4847 243.179 30.8924 243.033 31.4395ZM264.569 28.6841C263.698 28.9506 262.071 29.1292 260.953 29.0813C259.836 29.0326 260.549 28.8145 262.537 28.5959C264.526 28.3779 265.441 28.4175 264.569 28.6841ZM256.344 33.874C256.607 34.0864 256.696 34.735 256.542 35.3153C256.221 36.5211 254.417 36.8661 252.741 36.0422C251.811 35.5846 251.916 35.316 253.316 34.576C255.428 33.4602 255.741 33.388 256.344 33.874ZM272.1 32.4821C272.143 32.8798 272.503 33.1703 272.901 33.1277C273.299 33.0851 273.59 32.7249 273.547 32.3273C273.504 31.9297 273.144 31.6392 272.746 31.6818C272.348 31.7244 272.058 32.0845 272.1 32.4821ZM138.461 48.6873C138.478 48.8435 138.003 49.0237 137.407 49.0875C136.81 49.1514 136.288 48.8884 136.246 48.5031C136.205 48.1185 136.68 47.9383 137.301 48.1029C137.923 48.2682 138.445 48.5311 138.461 48.6873ZM275.756 39.861C276.157 40.1508 259.13 42.2088 253.06 42.6052C250.662 42.7616 248.341 42.6143 247.904 42.2773C247.155 41.7022 274.962 39.29 275.756 39.861ZM168.586 56.0514C168.248 57.2569 168.015 57.466 167.9 56.6704C167.667 55.0741 168.349 52.5925 168.768 53.5093C168.95 53.9067 168.868 55.0503 168.586 56.0514ZM206.826 54.52C206.422 56.1368 206.03 57.1044 205.955 56.6693C205.767 55.5707 206.869 51.0231 207.25 51.3296C207.421 51.4678 207.23 52.9031 206.826 54.52ZM293.667 43.8361C294.211 43.9892 294.832 43.8963 295.047 43.6306C295.261 43.3649 294.816 43.24 294.057 43.3526C293.218 43.4775 293.065 43.6672 293.667 43.8361ZM239.023 55.0331C239.346 55.4476 238.341 55.8 236.42 55.9463L233.293 56.1852L235.768 55.3814C237.129 54.9396 238.301 54.5284 238.371 54.4682C238.441 54.4073 238.735 54.6618 239.023 55.0331ZM84.8987 78.1049C85.1872 78.4762 84.7525 78.8517 83.9336 78.9394C83.1146 79.027 82.4091 78.7734 82.3666 78.3758C82.3241 77.9782 82.7581 77.6027 83.3318 77.5413C83.9055 77.4799 84.6102 77.7336 84.8987 78.1049ZM83.5392 80.7862C84.2676 81.0081 84.9157 81.6831 84.9801 82.2854C85.0737 83.1601 84.8674 83.2283 83.9569 82.6245C83.3299 82.2089 81.8093 81.8181 80.5778 81.7568C78.6651 81.6624 78.4268 81.829 78.9406 82.9038C79.4458 83.9597 79.363 84.0264 78.4296 83.3182C77.4803 82.5979 77.4849 82.3195 78.4603 81.424C79.6617 80.3215 81.3281 80.1117 83.5392 80.7862ZM104.103 80.8345C103.933 81.4736 103.622 81.8578 103.412 81.6887C103.202 81.5195 103.208 81.0107 103.425 80.559C104.015 79.3288 104.455 79.5084 104.103 80.8345ZM186.602 76.9117C186.455 77.4306 186.247 77.0411 186.141 76.0471C186.034 75.053 186.155 74.6291 186.409 75.1044C186.663 75.5802 186.75 76.3936 186.602 76.9117ZM110.062 95.753C110.877 98.4203 110.439 98.5521 108.833 96.1229C107.146 93.5715 107.091 93.2184 108.43 93.5745C109.008 93.7276 109.743 94.7086 110.062 95.753ZM112.902 97.0454C112.945 97.443 112.654 97.8032 112.256 97.8457C111.858 97.8883 111.498 97.5978 111.455 97.2002C111.413 96.8026 111.703 96.4424 112.101 96.3998C112.499 96.3573 112.86 96.6478 112.902 97.0454ZM170.277 95.0972C170.168 95.8202 169.963 95.4371 169.821 94.2457C169.679 93.0544 169.767 92.4629 170.018 92.9312C170.269 93.3994 170.385 94.3741 170.277 95.0972ZM94.2011 104.87C93.4058 106.027 92.8754 106.247 92.1058 105.735C90.7251 104.82 90.737 104.281 92.1296 104.651C92.7508 104.816 93.2255 104.636 93.1843 104.251C93.1431 103.866 93.5948 103.499 94.1873 103.435C95.096 103.338 95.0975 103.564 94.2011 104.87ZM102.423 105.202C103.991 108.055 104.383 109.958 103.021 108.103C101.948 106.645 100.312 102.78 100.746 102.733C100.913 102.716 101.667 103.827 102.423 105.202ZM126.561 103.765C126.391 104.366 126.202 104.213 126.077 103.374C125.964 102.616 126.089 102.171 126.355 102.385C126.621 102.599 126.714 103.221 126.561 103.765ZM277.906 86.746C277.951 87.1667 278.371 87.2381 278.838 86.9044C279.46 86.4605 279.501 86.5489 278.995 87.2342C278.261 88.2267 275.84 87.9484 275.723 86.8582C275.685 86.5032 276.142 86.1603 276.739 86.0965C277.336 86.0326 277.861 86.3252 277.906 86.746ZM130.789 114.875L130.976 116.683L130.234 114.934C129.826 113.972 129.158 111.905 128.751 110.34L128.01 107.494L129.307 110.28C130.019 111.813 130.686 113.88 130.789 114.875ZM148.923 114.214C148.875 115.325 148.644 114.445 148.41 112.258C148.176 110.071 148.215 109.162 148.498 110.238C148.781 111.313 148.972 113.103 148.923 114.214ZM110.747 122.32C112.963 126.005 114.608 129.037 114.406 129.058C114.011 129.101 106.193 116.406 106.104 115.578C105.999 114.591 106.791 115.744 110.747 122.32ZM96.1034 117.855C96.1459 118.252 96.0375 118.593 95.8617 118.612C95.6859 118.631 95.3067 118.342 95.0182 117.971C94.7297 117.599 94.8388 117.259 95.2599 117.214C95.6809 117.169 96.0608 117.457 96.1034 117.855ZM80.1998 122.664L82.576 124.786L79.9976 122.915C77.5944 121.17 77.0379 120.626 77.5972 120.566C77.7216 120.553 78.8932 121.497 80.1998 122.664ZM101.783 123.062C101.899 124.148 99.6625 123.749 99.1539 122.593C98.8605 121.924 98.1242 121.245 97.5187 121.084C96.9132 120.923 96.38 120.44 96.3339 120.009C96.2879 119.579 97.4826 119.974 98.9888 120.886C100.495 121.798 101.752 122.778 101.783 123.062ZM97.1108 121.997C97.319 122.453 96.9733 122.88 96.3432 122.948C95.7137 123.015 95.1428 122.555 95.0755 121.926C94.9389 120.649 96.5202 120.704 97.1108 121.997ZM158.999 116.792C158.117 118.902 156.526 121.32 156.434 120.693C156.346 120.101 158.868 115.526 159.308 115.479C159.446 115.465 159.308 116.055 158.999 116.792ZM151.299 122.724C151.25 123.841 151.032 123.129 150.813 121.141C150.596 119.154 150.635 118.24 150.902 119.111C151.169 119.981 151.347 121.608 151.299 122.724ZM279.198 105.663C279.241 106.06 278.929 106.22 278.504 106.016C278.08 105.813 277.698 105.322 277.656 104.924C277.613 104.526 277.926 104.367 278.35 104.57C278.774 104.774 279.156 105.265 279.198 105.663ZM162.712 118.04C162.754 118.438 162.444 118.8 162.023 118.845C161.602 118.89 161.423 118.58 161.627 118.156C161.83 117.732 162.14 117.37 162.315 117.351C162.491 117.332 162.669 117.642 162.712 118.04ZM89.6673 129.512C91.3915 130.936 92.6398 132.119 92.4408 132.14C92.2419 132.161 90.668 131.013 88.9439 129.589C87.2197 128.165 85.9714 126.982 86.1703 126.961C86.3693 126.94 87.9431 128.087 89.6673 129.512ZM168.017 119.752C168.055 120.102 167.656 120.436 167.131 120.492C165.951 120.618 163.372 124.207 163.513 125.525C163.57 126.056 162.955 127.189 162.148 128.041C160.912 129.347 160.816 129.372 161.538 128.202C162.905 125.989 161.738 125.957 160.052 128.16C159.21 129.262 158.049 130.219 157.473 130.288C156.67 130.383 156.603 130.192 157.185 129.471C157.718 128.811 157.69 128.282 157.093 127.702C156.477 127.102 156.616 126.41 157.601 125.19C158.348 124.265 158.749 123.235 158.491 122.903C157.689 121.872 159.997 120.542 163.474 120.033C164.366 119.902 165.068 119.541 165.035 119.231C165.001 118.92 165.643 118.767 166.461 118.889C167.28 119.012 167.98 119.4 168.017 119.752ZM57.2051 134.813C57.4975 135.385 57.4217 135.887 57.0368 135.928C56.6512 135.969 56.2835 135.515 56.2197 134.918C56.1559 134.322 56.2318 133.82 56.388 133.804C56.5443 133.787 56.9119 134.241 57.2051 134.813ZM151.451 129.754C141.353 147.953 137.709 154.256 137.419 154.022C136.912 153.613 140.859 145.971 141.62 145.89C141.977 145.851 142.159 145.568 142.026 145.259C141.725 144.565 147.388 134.109 150.067 130.413C151.15 128.917 152.003 127.373 151.961 126.98C151.919 126.588 152.118 126.455 152.403 126.685C152.688 126.915 152.26 128.296 151.451 129.754ZM96.8746 135.322C97.6796 136.04 98.176 136.645 97.9771 136.666C97.7781 136.687 96.9561 136.117 96.1512 135.399C95.3463 134.681 94.8498 134.076 95.0487 134.054C95.2477 134.033 96.0697 134.603 96.8746 135.322ZM137.034 133.401C136.886 133.92 136.679 133.531 136.572 132.536C136.466 131.542 136.587 131.119 136.84 131.594C137.095 132.07 137.182 132.883 137.034 133.401ZM155.866 129.286C155.882 129.436 155.374 130.066 154.735 130.687C153.684 131.708 153.656 131.686 154.433 130.443C155.249 129.137 155.802 128.691 155.866 129.286ZM226.586 123.654C227.633 122.579 229.841 123.094 229.986 124.448C230.047 125.017 229.37 125.532 228.43 125.633C226.657 125.823 224.86 124.759 224.82 123.496C224.806 123.075 225.009 123.133 225.271 123.625C225.612 124.267 225.983 124.275 226.586 123.654ZM220.702 124.746C220.234 124.996 219.258 125.113 218.535 125.005C217.811 124.896 218.195 124.692 219.387 124.549C220.579 124.407 221.171 124.495 220.702 124.746ZM158.907 132.658C158.749 133.253 158.937 133.808 159.324 133.894C159.711 133.979 157.698 135.142 154.851 136.477L149.672 138.906L150.904 136.717C152.224 134.369 153.097 133.764 152.63 135.518C152.224 137.043 155.926 135.24 157.423 133.184C158.749 131.363 159.304 131.167 158.907 132.658ZM138.408 139.104C138.331 140.017 138.111 139.3 137.92 137.511C137.728 135.722 137.791 134.974 138.06 135.851C138.328 136.727 138.484 138.191 138.408 139.104ZM167.308 131.926C166.832 132.18 166.018 132.267 165.499 132.119C164.98 131.972 165.369 131.765 166.364 131.658C167.359 131.552 167.784 131.672 167.308 131.926ZM231.866 125.215C232.135 125.56 232.045 126.083 231.668 126.376C231.29 126.669 230.927 126.401 230.861 125.782C230.725 124.511 231.139 124.278 231.866 125.215ZM163.386 133.034C163.172 133.3 162.55 133.393 162.006 133.239C161.404 133.071 161.557 132.881 162.396 132.756C163.156 132.643 163.601 132.768 163.386 133.034ZM234.202 126.528C233.64 127.701 232.516 127.482 232.841 126.262C233.006 125.643 233.457 125.289 233.843 125.474C234.23 125.66 234.392 126.134 234.202 126.528ZM171.435 134.998C170.725 135.665 169.757 136.262 169.283 136.325C168.81 136.389 167.255 137.242 165.828 138.222C164.4 139.202 163.796 139.514 164.484 138.914C165.171 138.316 166.365 137.16 167.136 136.347L168.537 134.868L166.602 135.384C165.538 135.668 164.809 135.603 164.983 135.241C165.157 134.878 166.97 134.403 169.013 134.184C172.432 133.818 172.624 133.883 171.435 134.998ZM130.648 149.091C133.504 153.59 134.654 156.069 134.593 157.598C134.532 159.142 134.839 159.789 135.671 159.873C136.484 159.954 136.357 160.175 135.252 160.608C134.375 160.952 133.82 160.917 134.006 160.53C134.19 160.145 133.968 159.87 133.511 159.919C132.953 159.979 132.737 159.103 132.85 157.237C132.996 154.846 132.354 153.435 128.161 146.953C125.489 142.821 124.049 140.183 124.959 141.091C125.871 141.999 128.431 145.599 130.648 149.091ZM134.19 141.018C134.043 141.537 133.835 141.147 133.729 140.153C133.622 139.159 133.743 138.735 133.996 139.21C134.251 139.686 134.338 140.499 134.19 141.018ZM153.587 138.759C152.074 139.666 150.51 140.441 150.112 140.48C149.714 140.52 150.624 139.797 152.136 138.875C153.647 137.952 155.21 137.177 155.61 137.154C156.01 137.131 155.1 137.853 153.587 138.759ZM155.881 140.529C154.498 142.187 152.068 145.161 150.482 147.139C148.896 149.116 148.167 149.851 148.863 148.771C149.558 147.691 150.533 146.126 151.027 145.293C152.18 143.355 144.444 151.093 142.997 153.327C142.401 154.246 141.714 154.839 141.471 154.644C141.228 154.449 142.553 151.74 144.415 148.623C146.278 145.507 147.501 143.19 147.133 143.476C145.979 144.372 146.267 142.752 147.509 141.361C148.323 140.45 148.953 140.242 149.519 140.7C150.086 141.157 151.409 140.795 153.74 139.547C158.496 137 158.733 137.108 155.881 140.529ZM220.579 132.269C223.73 132.845 224.801 133.267 223.635 133.475L221.84 133.796L223.698 134.105C225.785 134.452 226.968 136.758 225.158 136.951C224.502 137.022 224.085 137.686 224.174 138.519C224.373 140.376 222.903 140.522 220.691 138.863C218.949 137.559 218.263 136.517 219.552 137.134C219.928 137.314 220.31 136.553 220.402 135.443C220.496 134.305 220.178 133.234 219.674 132.988C219.123 132.721 218.749 133.127 218.7 134.047C218.656 134.869 218.39 135.454 218.108 135.348C217.826 135.242 216.651 134.802 215.498 134.371C214.346 133.94 213.372 133.302 213.335 132.955C213.297 132.607 213.955 132.601 214.797 132.941C215.701 133.308 216.296 133.279 216.253 132.873C216.212 132.494 215.755 132.064 215.236 131.916C212.891 131.251 216.185 131.469 220.579 132.269ZM139.651 144.044C139.482 144.645 139.292 144.492 139.167 143.653C139.055 142.895 139.18 142.45 139.446 142.664C139.712 142.879 139.804 143.5 139.651 144.044ZM229.498 133.562C230.529 134.082 230.537 134.155 229.569 134.223C228.969 134.265 227.798 134.09 226.966 133.833L225.452 133.367L226.895 133.172C227.689 133.065 228.86 133.241 229.498 133.562ZM230.903 137.205C231.434 138.899 231.795 139.232 232.351 138.544C232.906 137.855 232.813 137.358 231.979 136.546C230.994 135.59 231.073 135.47 232.666 135.505C233.657 135.527 234.893 135.211 235.415 134.805C236.064 134.298 236.229 134.345 235.936 134.954C235.702 135.443 235.855 135.807 236.276 135.762C236.697 135.717 237.092 136.148 237.153 136.722C237.215 137.295 237.671 137.958 238.167 138.196C238.763 138.481 238.88 138.258 238.514 137.543C238.141 136.815 238.454 136.27 239.461 135.888C241.357 135.169 241.528 135.325 242.024 138.216C242.542 141.238 242.26 142.434 240.994 142.569C240.439 142.629 239.921 142.273 239.844 141.778C239.765 141.284 239.484 141.643 239.221 142.576C238.956 143.51 238.195 144.331 237.528 144.403C235.761 144.592 228.568 138.551 228.371 136.712C228.113 134.297 230.112 134.686 230.903 137.205ZM32.4549 159.19C33.892 159.887 33.8753 159.963 32.0834 160.936L30.2086 161.954L32.9766 162.179C34.9556 162.339 35.7844 162.774 35.8838 163.704C36.1489 166.181 31.9437 169.26 30.0297 167.99C28.6819 167.095 28.0938 162.166 29.0903 160.113C29.9568 158.329 30.4174 158.203 32.4549 159.19ZM219.093 142.289C222.441 143.504 224.778 144.684 224.285 144.911C223.793 145.137 222.805 145.137 222.09 144.911C221.375 144.684 220.551 144.577 220.259 144.672C219.967 144.767 219.695 144.529 219.654 144.144C219.613 143.759 219.13 143.674 218.582 143.954C217.999 144.252 217.818 144.944 218.146 145.623C218.544 146.446 218.103 146.339 216.62 145.254C215.472 144.413 214.7 143.375 214.905 142.948C215.112 142.518 214.944 142.429 214.532 142.748C213.878 143.256 212.05 141.467 211.913 140.184C211.854 139.63 211.422 139.504 219.093 142.289ZM250.662 137.608C250.987 137.521 251.778 138.216 252.421 139.153C253.445 140.646 253.632 140.694 253.945 139.538C254.439 137.709 255.183 137.806 256.397 139.859C257.783 142.201 257.779 142.724 256.368 143.445C255.619 143.828 254.777 143.622 254.114 142.893C253.532 142.254 253.08 141.955 253.109 142.23C253.182 142.91 250.361 140.593 249.213 139.03C248.482 138.034 248.306 138.006 248.384 138.894C248.493 140.138 252.218 143.536 256.469 146.271L259.219 148.039L256.528 146.827C255.048 146.16 252.75 145.183 251.42 144.655C248.924 143.664 245.644 139.168 246.349 137.7C246.588 137.199 247.37 137.058 248.403 137.329C249.32 137.57 250.337 137.696 250.662 137.608ZM131.493 155.017C131.56 155.644 131.091 155.385 130.381 154.404C129.706 153.471 129.102 152.22 129.038 151.623C128.971 150.996 129.44 151.255 130.149 152.236C130.824 153.169 131.429 154.42 131.493 155.017ZM169.69 149.059C170.3 149.125 168.523 149.438 165.739 149.754C162.956 150.07 161.248 150.031 161.945 149.667C163.101 149.062 166.933 148.762 169.69 149.059ZM258.641 139.219C258.684 139.616 258.575 139.957 258.399 139.976C258.224 139.995 257.844 139.706 257.556 139.335C257.267 138.963 257.377 138.623 257.798 138.578C258.219 138.533 258.599 138.821 258.641 139.219ZM157.207 150.513C156.993 150.779 156.371 150.872 155.827 150.719C155.225 150.55 155.378 150.36 156.217 150.235C156.977 150.123 157.422 150.248 157.207 150.513ZM235.921 142.706C236.76 143.242 237.763 143.646 238.152 143.605C239.071 143.506 238.625 143.216 236.297 142.399C234.505 141.77 234.484 141.787 235.921 142.706ZM173.201 149.533C172.986 149.799 172.365 149.892 171.821 149.739C171.219 149.57 171.372 149.38 172.211 149.255C172.97 149.143 173.415 149.268 173.201 149.533ZM244.189 143.096C244.02 143.697 243.83 143.544 243.705 142.705C243.593 141.947 243.718 141.502 243.984 141.716C244.25 141.931 244.342 142.552 244.189 143.096ZM155.892 153.462C150.914 156.406 149.024 157.162 149.59 155.983C149.941 155.25 149.436 155.207 147.467 155.799C143.65 156.946 144.262 156.11 148.492 154.401C152.799 152.66 155.04 151.98 157.528 151.659C158.886 151.484 158.483 151.929 155.892 153.462ZM177.122 150.135C178.536 150.847 177.394 150.969 175.313 150.328C174.315 150.02 174.168 149.809 174.881 149.706C175.475 149.62 176.484 149.813 177.122 150.135ZM255.358 142.19C255.483 143.028 255.673 143.181 255.842 142.581C255.995 142.036 255.902 141.415 255.636 141.201C255.371 140.986 255.246 141.431 255.358 142.19ZM232.633 145.761C233.167 146.191 232.692 146.315 231.209 146.133C229.985 145.983 228.624 145.569 228.183 145.214C227.649 144.783 228.124 144.659 229.607 144.842C230.831 144.993 232.192 145.406 232.633 145.761ZM225.917 146.125C225.448 146.375 224.473 146.492 223.749 146.384C223.026 146.275 223.409 146.07 224.601 145.928C225.793 145.786 226.385 145.874 225.917 146.125ZM140.696 157.397C139.119 158.772 138.004 158.673 138.702 157.219C138.918 156.767 139.801 156.322 140.662 156.229L142.226 156.062L140.696 157.397ZM40.4721 169.129C41.3921 169.739 41.3678 170.101 40.3172 171.402C39.6304 172.253 38.4172 173.019 37.6214 173.104C36.8256 173.189 36.2093 173.584 36.2518 173.982C36.2944 174.38 35.851 174.756 35.2664 174.819C34.6196 174.888 34.3218 174.491 34.5043 173.803C34.7742 172.79 34.4092 172.62 32.6652 172.946C31.8589 173.097 30.8553 169.873 31.5304 169.302C32.5 168.482 39.2977 168.35 40.4721 169.129ZM161.593 155.452C161.635 155.85 161.527 156.191 161.351 156.209C161.175 156.228 160.796 155.94 160.507 155.568C160.219 155.197 160.328 154.856 160.749 154.811C161.17 154.766 161.55 155.055 161.593 155.452ZM158.574 157.353C158.988 157.886 158.683 158.06 157.613 157.899C156.751 157.769 155.976 157.982 155.89 158.372C155.71 159.196 150.491 161.117 150.413 160.388C150.36 159.894 155.543 157.081 157.115 156.75C157.584 156.652 158.241 156.923 158.574 157.353ZM38.8542 170.75C38.3085 171.183 38.0702 171.705 38.3249 171.91C38.5803 172.115 39.1471 171.743 39.5858 171.083C40.4953 169.715 40.2822 169.618 38.8542 170.75ZM36.0198 171.813C36.0623 172.211 36.4227 172.501 36.8206 172.459C37.2185 172.416 37.5092 172.056 37.4667 171.658C37.4241 171.261 37.0638 170.97 36.6659 171.013C36.268 171.055 35.9772 171.415 36.0198 171.813ZM47.7529 172.849C44.6334 174.093 44.0206 173.926 45.5775 172.254C46.8016 170.941 47.312 170.78 48.2572 171.407C49.2583 172.071 49.1866 172.276 47.7529 172.849ZM141.606 163.263C141.161 163.896 136.778 162.893 136.697 162.139C136.626 161.471 137.269 161.473 139.174 162.148C140.59 162.649 141.684 163.151 141.606 163.263ZM156.641 166.594C163.679 168.32 167.205 168.483 161.981 166.841C160.58 166.4 159.853 165.968 160.367 165.881C161.908 165.617 165.882 167.434 165.502 168.228C165.306 168.633 165.411 168.944 165.734 168.919C166.057 168.893 167.208 169.463 168.291 170.185L170.261 171.498L167.534 170.357C166.034 169.729 161.623 168.515 157.733 167.66C151.357 166.259 147.492 165.045 148.844 164.871C149.122 164.835 152.631 165.611 156.641 166.594ZM57.6243 177.925C57.4474 178.59 56.9528 178.967 56.5255 178.762C56.0983 178.558 55.7881 178.757 55.836 179.205C55.8897 179.706 55.312 179.895 54.3336 179.696C53.2639 179.478 52.9334 179.617 53.3246 180.12C53.6437 180.532 53.5795 180.903 53.1816 180.945C52.0812 181.063 51.5627 180.068 52.1198 178.907C52.3937 178.335 53.0903 177.993 53.6672 178.146C54.2442 178.299 55.2819 177.91 55.9735 177.282C57.4346 175.954 58.0815 176.207 57.6243 177.925ZM33.4799 181.018C33.0166 181.592 32.684 181.671 32.6356 181.218C32.5324 180.253 33.2967 179.306 33.8309 179.738C34.0584 179.921 33.9005 180.497 33.4799 181.018ZM61.4647 181.374C61.6947 181.67 61.6653 182.366 61.399 182.921C61.0538 183.641 60.7461 183.713 60.326 183.171C60.0019 182.755 59.4539 182.633 59.108 182.902C58.3912 183.458 58.118 182.375 58.7719 181.566C59.3638 180.833 60.9563 180.719 61.4647 181.374ZM246.852 165.813C246.932 166.566 242.421 164.271 241.928 163.308C241.563 162.595 242.315 162.79 244.095 163.868C245.594 164.776 246.834 165.651 246.852 165.813ZM137.208 176.525L138.76 178.004L136.798 176.76C135.719 176.075 134.691 175.444 134.514 175.359C134.337 175.272 134.522 175.167 134.924 175.124C135.327 175.081 136.354 175.711 137.208 176.525ZM37.3416 191.006C37.5139 192.616 36.4152 193.057 36.1279 191.494C35.9879 190.733 36.1782 190.077 36.5515 190.037C36.9248 189.997 37.2802 190.433 37.3416 191.006ZM40.2444 192.537C41.3264 193.917 41.1667 196.124 39.9766 196.251C39.5975 196.292 39.4422 196.003 39.6313 195.61C39.8198 195.217 39.2964 194.756 38.4676 194.588C37.2424 194.339 37.0736 194.006 37.5604 192.805C38.3176 190.937 38.9403 190.874 40.2444 192.537ZM140.31 182.226C140.877 182.777 141.007 183.248 140.603 183.291C140.205 183.334 139.422 182.924 138.863 182.38C138.296 181.829 138.166 181.358 138.57 181.315C138.967 181.272 139.75 181.682 140.31 182.226ZM152.312 186.686C155.002 188.319 157.168 189.327 157.125 188.925C157.082 188.524 156.269 187.767 155.318 187.242C154.368 186.718 153.932 186.252 154.348 186.208C154.766 186.163 155.958 186.858 156.999 187.752C158.23 188.809 158.548 189.414 157.907 189.483C157.309 189.547 157.851 190.421 159.291 191.711C160.992 193.235 160.653 193.096 158.095 191.221C156.135 189.785 152.404 187.337 149.804 185.783C147.205 184.228 144.553 182.405 143.91 181.73C143.268 181.055 143.795 181.226 145.081 182.109C146.368 182.993 149.622 185.052 152.312 186.686ZM31.0549 196.078C31.1168 196.657 30.7436 197.347 30.2261 197.612C29.4879 197.99 29.4173 197.768 29.8978 196.582C30.6279 194.782 30.9033 194.661 31.0549 196.078ZM33.8524 199.764C34.6744 200.971 34.5798 201.023 32.5378 200.493C31.3275 200.178 30.4711 199.642 30.6344 199.301C31.1711 198.183 32.948 198.438 33.8524 199.764ZM132.577 199.505L134.482 201.861L132.386 199.892C131.232 198.808 130.255 197.624 130.214 197.26C130.126 196.476 130.134 196.484 132.577 199.505ZM139.015 204.982C138.845 205.192 138.198 204.693 137.577 203.873C136.499 202.448 136.513 202.431 137.886 203.49C138.677 204.1 139.185 204.771 139.015 204.982ZM215.252 198.746C215.292 199.121 214.836 199.479 214.239 199.543C213.121 199.662 212.711 198.843 213.438 197.942C213.954 197.303 215.154 197.835 215.252 198.746ZM145.787 213.448C146.781 215.065 146.769 215.09 145.566 213.88C144.865 213.174 144.257 212.28 144.216 211.892C144.117 210.974 144.496 211.348 145.787 213.448ZM162.345 212.407C162.734 212.366 163.533 213.142 164.12 214.133C165.033 215.676 165.02 215.891 164.031 215.628C162.758 215.29 162.56 216.417 163.788 217.006C164.212 217.209 164.592 217.681 164.632 218.056C164.789 219.52 163.259 218.752 160.653 216.062C159.153 214.513 158.623 213.665 159.475 214.177C160.327 214.689 161.257 215.365 161.542 215.679C161.828 215.993 162.255 215.844 162.494 215.349C162.732 214.852 162.396 213.948 161.749 213.339C161.103 212.73 160.284 211.769 159.932 211.203C159.541 210.578 159.75 210.627 160.463 211.329C161.108 211.963 161.955 212.449 162.345 212.407ZM151.384 220.868C153.919 224.773 154.172 225.533 152.481 224.17C151.82 223.638 151.241 222.837 151.193 222.391C151.145 221.945 150.507 220.674 149.774 219.566C149.042 218.458 148.608 217.533 148.81 217.512C149.013 217.49 150.171 219 151.384 220.868ZM126.969 224.306C127.271 227.135 127.18 227.622 126.575 226.404C125.93 225.107 125.804 220.704 126.41 220.64C126.501 220.63 126.752 222.28 126.969 224.306ZM125.137 234.075C124.968 234.676 124.778 234.523 124.653 233.685C124.54 232.926 124.665 232.481 124.931 232.696C125.197 232.91 125.29 233.531 125.137 234.075ZM141.973 238.804C142.016 239.201 141.703 239.361 141.279 239.157C140.855 238.954 140.473 238.463 140.43 238.065C140.388 237.667 140.7 237.508 141.124 237.711C141.549 237.915 141.93 238.406 141.973 238.804ZM137.167 247.769C136.471 249.325 136.216 248.878 136.719 246.986C136.898 246.313 137.213 245.899 137.419 246.065C137.626 246.231 137.512 246.998 137.167 247.769ZM141.386 257.237C141.68 256.908 141.689 257.157 141.404 257.789C141.121 258.423 141.054 259.911 141.256 261.096C141.673 263.539 141.319 263.058 139.851 259.183C139.031 257.022 139.03 256.629 139.842 257.167C140.397 257.535 141.092 257.567 141.386 257.237ZM108.798 268.228C108.355 269.89 107.118 268.423 106.832 265.896L106.63 264.11L107.881 265.542C108.569 266.33 108.981 267.538 108.798 268.228ZM125.866 266.077C125.906 266.451 125.613 266.792 125.215 266.835C124.817 266.877 124.437 266.405 124.371 265.785C124.305 265.165 124.597 264.824 125.022 265.027C125.446 265.231 125.826 265.702 125.866 266.077ZM128.032 265.802C128.074 266.2 127.966 266.54 127.79 266.559C127.614 266.578 127.235 266.29 126.946 265.918C126.658 265.547 126.767 265.206 127.188 265.161C127.609 265.116 127.989 265.404 128.032 265.802ZM142.959 272.505C142.778 273.183 142.303 273.581 141.903 273.389C141.469 273.181 141.478 272.584 141.925 271.911C142.847 270.523 143.401 270.842 142.959 272.505ZM123.563 278.754C123.646 279.526 123.469 280.184 123.171 280.215C122.873 280.247 122.545 279.491 122.442 278.535C122.34 277.579 122.517 276.922 122.835 277.074C123.153 277.226 123.481 277.982 123.563 278.754Z" fill="#276555"/>
</svg>
