<svg width="286" height="224" viewBox="0 0 286 224" fill="none" xmlns="http://www.w3.org/2000/svg">
<path fill-rule="evenodd" clip-rule="evenodd" d="M80.3344 0.919282C81.6431 1.41205 84.304 2.83009 86.248 4.07117C89.7324 6.29549 89.7575 6.34126 88.058 7.31916C86.3897 8.27876 86.4034 8.29555 88.4838 7.82719C90.2054 7.43969 91.1158 7.79744 93.0545 9.62587C94.3861 10.8814 96.2783 12.1019 97.2595 12.3391C98.9788 12.7533 98.9948 12.7152 97.7127 11.2964C96.4246 9.87149 96.4588 9.82419 98.7853 9.82419C100.107 9.82419 101.189 9.46034 101.189 9.01639C101.189 8.57244 101.529 8.41912 101.945 8.67618C103.095 9.38864 108.806 9.56866 108.806 8.89205C108.806 8.56558 109.7 8.2986 110.792 8.2986C112.218 8.2986 112.658 8.61211 112.352 9.41C112.01 10.3048 112.291 10.3826 113.795 9.81046C115.294 9.23913 115.662 9.33982 115.662 10.3177C115.662 11.198 115.927 11.3208 116.615 10.7609C118.122 9.53357 123.88 10.2048 125.657 11.8143C126.533 12.6076 127.298 13.1485 127.359 13.0165C127.42 12.8845 128.069 13.0074 128.803 13.2888C129.584 13.5894 130.136 14.5963 130.136 15.7199C130.136 17.2973 130.33 17.4781 131.225 16.7336C132.098 16.009 132.485 16.147 133.169 17.4262C133.639 18.305 134.168 19.9572 134.345 21.0984C135.091 25.9101 135.88 27.6752 136.981 26.994C137.336 26.7743 138.586 26.9605 139.759 27.4067C141.465 28.0566 141.669 28.3602 140.775 28.9262C139.84 29.5189 139.874 29.6356 140.985 29.6455C141.714 29.6516 142.74 30.3435 143.263 31.1826C143.786 32.0216 144.732 32.7188 145.365 32.7326C146.302 32.7524 146.268 32.9439 145.181 33.77C143.392 35.13 143.492 35.9752 145.372 35.378C147.251 34.7807 147.345 35.6098 145.562 37.047C144.596 37.8258 144.911 37.7907 146.705 36.9211C148.125 36.2323 149.18 36.0538 149.18 36.5023C149.18 36.9325 149.715 37.2849 150.368 37.2849C151.021 37.2849 151.344 37.6282 151.085 38.0477C150.826 38.4673 151.12 38.8105 151.738 38.8105C152.356 38.8105 153.037 39.24 153.249 39.764C153.542 40.4887 153.82 40.4513 154.405 39.61C154.827 39.0005 155.006 38.2285 154.799 37.8952C154.594 37.5611 154.958 36.5244 155.611 35.5908C156.264 34.6579 156.803 33.1986 156.81 32.3474C156.819 31.2123 156.992 31.0712 157.464 31.8164C157.918 32.5335 158.245 32.1391 158.578 30.4686C158.863 29.0452 159.738 27.795 160.781 27.3236C164.75 25.5279 166.092 24.4974 165.055 24.042C164.494 23.7964 164.892 23.6713 165.939 23.7651C167.416 23.8978 167.899 24.4242 168.092 26.1077C168.293 27.8613 168.635 28.2015 169.876 27.8766C171.256 27.5158 171.299 27.605 170.299 28.7569C168.722 30.5716 169.431 32.1696 171.355 31.1383C172.171 30.7012 172.668 30.0681 172.46 29.731C172.252 29.3946 172.574 28.4678 173.176 27.6714C174.654 25.7171 174.589 24.4997 172.986 24.0801C172.165 23.8658 172.459 23.6972 173.748 23.6431C175.948 23.55 176.727 24.1618 181.365 29.6203C183.608 32.2604 184.239 32.6662 184.302 31.5106C184.346 30.7005 184.834 31.4114 185.386 33.0896C185.938 34.7677 186.429 35.6259 186.476 34.9966C186.53 34.2696 186.938 34.5335 187.594 35.7212C188.163 36.7487 188.467 38.0111 188.269 38.526C188.029 39.1508 188.437 39.3239 189.494 39.047C190.365 38.8189 191.102 38.2438 191.131 37.7678C191.161 37.2926 191.447 37.5725 191.766 38.391C192.311 39.7846 192.462 39.7412 194.188 37.6923C201.37 29.1672 201.743 28.9407 201.743 33.0896C201.743 34.5579 202.096 35.7593 202.528 35.7593C203.785 35.7593 204.217 33.725 203.318 32.0422C202.537 30.5799 202.619 30.5388 204.799 31.3C207.833 32.3596 208.791 34.3367 208.477 38.8883C208.334 40.9441 208.439 42.7115 208.709 42.816C208.979 42.9205 209.396 45.0418 209.635 47.5301C210.215 53.5463 212.921 56.5128 213.329 51.5783C213.491 49.6217 213.522 49.6118 215.616 50.8513C216.785 51.5417 217.74 52.3563 217.74 52.6614C217.74 52.9666 218.435 53.0825 219.284 52.9185C220.133 52.7545 220.627 52.946 220.382 53.3434C220.137 53.7416 220.384 54.1062 220.933 54.1542C221.481 54.2031 222.273 54.3129 222.692 54.3991C223.11 54.4845 224.928 54.8354 226.73 55.1772C229.841 55.7683 233.125 57.628 237.953 61.5328C239.653 62.9081 240.153 63.9989 240.311 66.6817C240.421 68.5536 240.227 70.0853 239.879 70.0853C239.531 70.0853 239.07 70.7657 238.853 71.5979C238.522 72.8619 238.684 72.9885 239.84 72.3691C240.6 71.9618 241.41 71.1952 241.639 70.6658C241.868 70.1372 241.984 70.7337 241.896 71.9923C241.77 73.7948 242.018 74.2334 243.069 74.0564C244.703 73.7818 244.803 74.9047 243.259 76.1877C241.457 77.6858 241.929 78.6347 243.849 77.3746C245.557 76.254 245.581 76.283 245.563 79.4548C245.552 81.438 244.887 83.7302 243.831 85.4313C242.077 88.2552 241.512 91.1454 242.878 90.2995C243.297 90.0401 243.64 89.1675 243.64 88.3597C243.64 87.5519 244.671 85.77 245.931 84.4L248.222 81.9087L247.106 84.1566C245.12 88.1529 248.514 89.3971 253.284 86.4222C254.723 85.5251 255.182 85.5938 256.93 86.9706C258.249 88.0095 258.783 89.008 258.499 89.9043C258.064 91.2796 259.908 92.6008 261.172 91.8182C261.521 91.6023 262.59 92.5451 263.548 93.9136C264.735 95.6078 264.869 96.0632 263.97 95.3393C262.402 94.0799 261.69 94.5277 262.384 96.3363C262.657 97.0502 263.346 97.4553 263.914 97.2371C264.482 97.019 265.312 97.5232 265.758 98.3584C266.205 99.1937 266.892 99.6781 267.285 99.4347C267.683 99.1884 267.786 99.5499 267.517 100.252C267.096 101.351 267.235 101.386 268.612 100.525C270.072 99.6109 270.095 99.4607 268.913 98.4866C268.21 97.9084 269.101 98.2143 270.892 99.167C272.682 100.119 274.707 101.517 275.39 102.273C276.552 103.559 276.522 103.648 274.928 103.648C272.38 103.648 273.455 105.533 276.083 105.676C277.303 105.742 278.626 105.829 279.025 105.867C279.422 105.906 279.337 106.349 278.834 106.852C277.618 108.07 277.682 108.733 279.063 109.264C280.521 109.824 282.614 109.043 282.06 108.145C281.081 106.559 283.14 107.643 285.203 109.8C286.996 111.673 287.138 112.037 285.917 111.635C284.768 111.256 284.659 111.32 285.468 111.897C286.059 112.317 286.944 112.507 287.435 112.318C287.925 112.129 289.588 113.878 291.13 116.203C292.672 118.528 294.266 120.43 294.674 120.43C295.081 120.43 296.312 122.204 297.409 124.371C298.959 127.433 299.3 128.963 298.938 131.23C298.43 134.408 300.106 143.788 302.009 148.425C302.663 150.019 304.486 152.868 306.059 154.756C312.265 162.205 313.289 167.603 310.608 178.738C309.409 183.721 308.509 186.031 307.767 186.031C306.932 186.031 306.882 186.273 307.549 187.078C308.027 187.655 308.268 188.598 308.087 189.176C307.905 189.753 307.55 191.17 307.297 192.324C306.904 194.122 306.461 194.421 304.187 194.421C302.728 194.421 301.535 194.775 301.535 195.208C301.535 196.529 303.761 196.94 305.163 195.878C306.295 195.021 306.346 195.033 305.518 195.962C304.984 196.56 301.783 197.805 298.402 198.729C295.021 199.653 292.455 200.209 292.698 199.964C293.258 199.403 291.701 197.473 290.688 197.473C290.271 197.473 290.102 198.129 290.312 198.93C290.637 200.178 290.182 200.441 287.163 200.749C285.222 200.946 282.091 201.519 280.205 202.02C278.274 202.535 275.173 202.725 273.101 202.457C269.185 201.95 262.045 199.419 260.78 198.088C260.335 197.619 260.731 197.653 261.732 198.169C263.916 199.293 263.951 198.152 261.792 196.256C260.882 195.457 260.388 195.232 260.694 195.756C261 196.281 260.961 196.71 260.609 196.71C260.255 196.71 259.404 195.756 258.717 194.592C258.029 193.427 256.67 191.796 255.695 190.968L253.924 189.463L255.4 191.37C256.211 192.419 255.747 192.142 254.368 190.755C252.273 188.646 251.491 188.314 249.604 188.729C248.177 189.043 246.876 188.848 246.065 188.2C245.36 187.636 244.012 186.743 243.069 186.215C240.687 184.881 240.687 186.903 243.069 188.568C244.256 189.397 244.432 189.776 243.64 189.802C241.173 189.882 237.397 186.575 234.133 181.478C229.603 174.4 226.244 171.294 217.247 165.86C213.119 163.366 207.87 159.8 205.581 157.934C199.668 153.112 188.031 147.741 188.031 149.834C188.031 150.062 189.554 152.895 191.416 156.127C194.04 160.681 196.825 163.9 203.795 170.438C208.741 175.078 214.845 180.359 217.359 182.175C222.964 186.222 229.228 192.178 228.73 192.986C228.527 193.314 229.013 193.931 229.81 194.358C231.687 195.364 233.146 201.082 232.29 204.072C231.933 205.317 231.076 207.431 230.383 208.771C229.192 211.078 229.212 211.497 230.755 216.585C231.902 220.366 232.95 222.33 234.289 223.208C236.094 224.393 236.167 224.711 235.702 229.463L235.212 234.468L245.161 252.394C259.409 278.067 297.132 353.592 299.607 361.401C300.089 362.92 299.848 363 294.804 363H289.494L286.866 357.819C285.42 354.97 283.793 351.28 283.249 349.619C282.705 347.958 281.313 344.712 280.156 342.404C277.407 336.92 274.111 328.7 274.111 327.325C274.111 326.728 273.463 325.328 272.671 324.215C271.879 323.101 271.248 322.019 271.267 321.809C271.287 321.599 270.221 319.086 268.898 316.225C267.575 313.364 266.493 310.532 266.493 309.932C266.493 309.333 266.151 308.841 265.732 308.841C265.313 308.841 264.97 308.274 264.97 307.58C264.97 306.887 263.906 304.055 262.606 301.287C261.306 298.52 259.396 294.367 258.361 292.06C257.326 289.752 251.287 277.403 244.94 264.617L233.4 241.37L232.598 246.707C232.038 250.43 231.187 252.846 229.779 254.698C228.669 256.158 227.037 259.069 226.154 261.166C225.269 263.264 224.694 264.122 224.875 263.073C225.056 262.025 224.774 259.965 224.249 258.497C223.319 255.897 223.296 255.96 223.373 260.901C223.417 263.692 223.744 265.796 224.101 265.577C225.201 264.899 223.299 267.971 221.749 269.376C220.944 270.106 218.084 271.599 215.394 272.696C210.944 274.509 209.92 274.643 204.028 274.174C195.801 273.521 190.958 271.805 187.59 268.351C185.245 265.947 185.016 265.376 185.687 263.609C186.999 260.154 185.087 259.012 176.604 258.182C167.644 257.307 162.821 256.053 161.287 254.203C160.756 253.562 158.757 252.235 156.846 251.254C152.638 249.094 145.289 242.614 143.189 239.212C142.348 237.849 140.312 232.902 138.663 228.217C136.41 221.81 135.879 219.46 136.521 218.73C137.196 217.961 137.132 217.94 136.215 218.625C135.311 219.3 133.54 218.89 128.141 216.752C121.235 214.019 121.226 214.012 121.428 211.459C121.54 210.053 121.316 209.097 120.932 209.335C120.287 209.734 119.902 208.639 120.161 207.142C120.222 206.796 119.919 206.73 119.49 206.996C119.061 207.262 118.33 207.244 117.866 206.957C117.279 206.593 117.336 206.237 118.057 205.78C118.862 205.269 118.796 205.121 117.757 205.112C116.248 205.099 113.377 207.685 113.377 209.057C113.377 210.512 108.836 205.833 106.013 201.469C103.568 197.691 99.6149 194.472 95.4899 192.901C93.8376 192.272 93.7507 192.006 94.5285 189.945C96.1465 185.652 92.0017 183.527 89.1329 187.179L87.6322 189.09L86.1384 186.555L84.6445 184.019L86.8224 183.054C88.0199 182.523 89.0003 181.583 89.0003 180.963C89.0003 180.298 89.3652 180.064 89.8916 180.39C90.4965 180.764 90.6214 180.52 90.2809 179.632C89.9632 178.804 90.0775 178.508 90.5909 178.825C91.8608 179.612 94.412 176.499 93.3607 175.446C92.8899 174.975 92.0588 174.589 91.5142 174.589C90.9695 174.589 90.5239 174.241 90.5239 173.816C90.5239 173.364 89.3782 173.522 87.7647 174.197C86.2473 174.832 84.5333 175.352 83.9559 175.352C82.6464 175.352 82.5512 173.835 83.8584 173.802C84.3817 173.789 85.4962 173.234 86.3341 172.57C87.8082 171.401 87.7876 171.374 85.7125 171.735L83.5666 172.108L85.7125 169.863L87.8577 167.619L85.7133 168.434C82.8323 169.529 82.5397 169.467 83.7449 168.012C84.6064 166.972 85.3118 160.86 84.5699 160.859C82.1535 160.855 75.7051 170.422 76.5271 172.792C76.9674 174.065 76.911 174.085 75.9626 172.994C75.3821 172.326 73.1935 170.816 71.0987 169.638C66.8114 167.228 58.8265 160.096 60.4163 160.096C60.9846 160.096 61.578 160.481 61.735 160.952C61.917 161.5 63.3796 161.098 65.7975 159.835C70.279 157.494 73.7893 154.797 72.3868 154.773C71.8383 154.764 71.6014 154.413 71.8604 153.993C72.1194 153.574 71.9678 153.23 71.5245 153.23C71.0811 153.23 70.7178 153.66 70.717 154.184C70.717 154.709 69.86 155.187 68.8126 155.247C66.4046 155.387 66.4267 155.105 69.0038 152.85C70.9494 151.149 70.976 151.05 69.3847 151.451C66.7048 152.126 67.3675 151.127 70.7444 149.403C72.4356 148.539 73.6278 147.523 73.3947 147.146C73.1615 146.768 73.5752 146.12 74.3141 145.706C75.0523 145.293 75.4012 144.698 75.0888 144.385C74.7765 144.072 73.7504 144.511 72.8096 145.359C69.7557 148.112 68.8994 148.348 69.4174 146.293C69.8318 144.651 69.7762 144.598 68.8903 145.781C68.3464 146.509 67.6775 146.881 67.4048 146.608C67.1321 146.335 66.9089 146.472 66.9089 146.913C66.9089 147.355 66.01 148.305 64.9108 149.027C63.8116 149.747 63.1313 149.982 63.3994 149.548C64.4415 147.86 62.2552 147.904 60.5572 149.605C59.5707 150.593 58.3291 151.256 57.7973 151.079C57.2664 150.902 56.0384 151.682 55.0687 152.812L53.3052 154.867L52.1511 153.095C51.1456 151.551 46.341 140.793 46.341 140.086C46.341 139.942 47.112 139.768 48.055 139.7C48.9981 139.63 50.239 138.871 50.8142 138.012C51.3893 137.152 52.2951 136.449 52.8275 136.449C53.36 136.449 53.993 135.934 54.2345 135.305C54.4753 134.675 55.1121 134.15 55.6491 134.137C56.1854 134.123 57.2413 133.265 57.9939 132.23C59.1685 130.613 59.196 130.346 58.1843 130.346C57.5361 130.346 57.0059 129.983 57.0059 129.539C57.0059 129.095 56.577 128.948 56.0536 129.214C55.5295 129.479 55.7017 129.204 56.4345 128.603C58.144 127.2 58.1531 126.221 56.4513 126.875C55.7276 127.153 52.7278 127.69 49.7858 128.069C45.2304 128.656 44.2987 128.576 43.5088 127.533C42.9984 126.859 42.7592 126.019 42.9771 125.666C43.1949 125.313 42.9268 125.192 42.3813 125.397C41.8359 125.602 39.7166 124.331 37.6721 122.573C32.3785 118.024 28.9619 110.487 27.9572 101.143C26.8259 90.6259 26.346 88.7563 24.8088 88.8799C22.819 89.0393 23.2471 88.1499 25.777 86.8669C32.1286 83.6463 36.438 81.1558 36.438 80.705C36.438 80.1497 34.126 80.3571 28.6153 81.4067C26.618 81.7874 24.8073 81.8133 24.5917 81.4647C23.9678 80.4533 21.9643 81.5685 21.9643 82.9278C21.9643 83.6074 20.606 82.1123 18.9462 79.6043C16.0217 75.1846 15.2455 72.7055 13.757 63.0294C13.1506 59.0865 13.2191 58.6433 14.4311 58.6433C15.1731 58.6433 15.992 58.3001 16.251 57.8805C16.51 57.461 16.1185 57.1177 15.3818 57.1177C13.2854 57.1177 15.0383 55.9461 19.679 54.245C23.9861 52.666 34.8413 51.8102 54.8866 51.47C59.7962 51.386 64.018 51.1137 64.2671 50.8635C65.1195 50.01 56.6379 49.2929 46.3768 49.3501C35.9984 49.4089 31.5108 49.8132 28.0585 51.0008C25.1508 52.0009 19.6196 52.4913 20.1048 51.7057C20.3387 51.3258 20.1475 51.0153 19.679 51.0153C19.2105 51.0153 19.0391 50.6721 19.2981 50.2525C19.5571 49.833 19.2341 49.4897 18.5813 49.4897C17.9284 49.4897 17.3937 49.1465 17.3937 48.7269C17.3937 48.3074 16.9084 47.9641 16.3142 47.9641C15.7208 47.9641 15.1213 47.6239 14.9811 47.2082C14.8417 46.7917 13.5993 46.3203 12.2212 46.1601C8.73993 45.7551 8.13049 44.8466 11.3284 44.829C25.9133 44.7489 37.7886 44.3607 38.7233 43.932C39.3518 43.6436 43.8081 43.305 48.6264 43.1791C56.1504 42.9831 55.6461 42.9274 45.0529 42.7878C38.2693 42.6978 32.5301 42.9312 32.2985 43.3057C32.0677 43.6803 30.2478 43.916 28.2542 43.8305C26.2614 43.7443 20.7737 43.6093 16.0605 43.5307C7.26819 43.3835 5.27158 42.5567 9.84906 40.9594C11.5806 40.3545 11.9348 39.9624 11.1822 39.4849C10.3968 38.986 10.479 38.8311 11.5349 38.822C12.2928 38.8159 12.7149 38.4894 12.4726 38.0966C11.7428 36.915 17.9482 36.3864 29.4266 36.6518C38.6753 36.8662 40.0815 36.751 38.9305 35.8715C37.6896 34.9226 37.7193 34.876 39.2946 35.2994C44.5311 36.7052 44.5334 36.7052 42.1513 35.0599C40.8944 34.191 39.3518 33.4732 38.7233 33.4641C37.7079 33.4496 37.7079 33.3565 38.7233 32.6304C39.6412 31.9736 39.5293 31.8866 38.152 32.1895C37.2089 32.3962 36.438 32.2459 36.438 31.8546C36.438 31.464 37.4611 30.9392 38.7111 30.689C39.9612 30.4388 40.7976 29.9323 40.5706 29.5639C40.0282 28.6852 36.6483 28.6989 36.1036 29.5822C35.5681 30.4487 31.1094 32.0407 31.2107 31.3283C31.5558 28.9132 29.1029 28.0147 26.5609 29.6249C25.8577 30.0696 25.0944 30.0422 24.5025 29.5502C23.9845 29.12 22.8335 28.9994 21.9453 29.2817C20.9275 29.6051 19.9966 29.3877 19.4329 28.6958C18.9104 28.0543 15.2737 27.0787 10.7152 26.3556C2.42938 25.042 -0.798248 23.3555 0.164642 20.8413C0.564575 19.7993 0.860901 19.7421 1.80475 20.5263C2.43854 21.0526 3.17441 21.2662 3.43951 21C3.70538 20.7345 4.38257 20.8993 4.94476 21.3661C5.6456 21.9489 5.96707 21.9603 5.96707 21.4027C5.96707 20.9557 5.20529 20.0556 4.27365 19.4027C3.34277 18.7497 2.9733 18.215 3.45398 18.215C3.9339 18.215 5.42621 19.3157 6.76996 20.662C9.10251 22.997 9.49561 23.1121 15.4306 23.1884C18.8494 23.2327 22.061 23.5248 22.5676 23.8376C23.1009 24.1679 23.4879 24.0031 23.4879 23.447C23.4879 22.7002 23.6913 22.6903 24.402 23.402C24.9048 23.9055 26.0185 24.293 26.8777 24.264C28.4241 24.2106 28.4241 24.2037 26.9158 23.5546C25.8958 23.116 25.7701 22.8795 26.5349 22.8406C28.3693 22.7468 23.7743 20.643 20.6502 20.1456C19.084 19.8969 17.4706 19.3599 17.0653 18.9541C15.9996 17.887 14.9164 18.0449 15.5905 19.1685C16.0217 19.887 15.8922 19.9198 15.0641 19.2997C14.4601 18.8473 12.2517 17.8588 10.1568 17.1021C5.99905 15.6001 4.65454 14.6977 5.42468 13.9273C5.99524 13.356 12.8223 15.1165 12.8238 15.835C12.8246 16.0952 14.6239 16.34 16.8231 16.3782L20.8217 16.4491L15.4892 15.0654C10.4417 13.7549 11.4694 13.6954 19.2981 14.8434C21.575 15.1775 22.0565 15.0845 21.2025 14.4757C20.5741 14.028 19.407 13.6565 18.6095 13.6496C16.8536 13.6359 8.71326 9.87073 9.2587 9.32533C9.47122 9.11174 10.3602 9.32075 11.234 9.7891C12.2898 10.3551 12.823 10.3757 12.823 9.85089C12.823 9.41686 13.5368 9.77614 14.4098 10.6503C16.3462 12.5893 17.3967 11.9349 15.5784 9.92336C14.3549 8.56939 14.3572 8.45802 15.6157 7.97441C16.5168 7.6281 17.3876 8.03009 18.2979 9.21472L19.6454 10.9684L19.6622 9.2521C19.6813 7.26806 21.3214 7.04761 26.1274 8.38403C28.3304 8.99656 29.2232 8.99503 29.4282 8.37945C29.5828 7.91567 30.1945 7.5358 30.7879 7.5358C31.3821 7.5358 31.8673 7.2139 31.8673 6.82029C31.8673 5.52125 34.8124 6.2993 35.1765 7.69446C35.373 8.44658 36.08 9.0614 36.7473 9.0614C37.4153 9.0614 37.9615 9.39398 37.9615 9.80055C37.9615 10.2064 38.4757 10.3414 39.1042 10.1003C39.7327 9.85852 40.2469 10.0301 40.2469 10.4817C40.2469 10.9325 40.761 11.1042 41.3895 10.8631C42.9489 10.2636 42.8392 9.75859 40.6277 7.37027C39.5803 6.2398 38.7233 5.04145 38.7233 4.70886C38.7241 4.37552 40.595 4.02235 42.8818 3.92318C46.1262 3.78283 47.2262 4.03379 47.8905 5.06738C48.6926 6.31608 48.7178 6.31532 48.3232 5.04755C47.975 3.92852 48.2531 3.77444 49.98 4.13143C55.157 5.20087 57.8027 6.28099 56.8405 6.93166C56.2586 7.32527 57.0957 7.40765 58.9103 7.13533C61.7662 6.7074 61.8644 6.75317 60.4788 7.8699C59.6652 8.52515 58.6658 9.0614 58.2567 9.0614C57.8484 9.0614 57.7105 9.2582 57.9505 9.49924C58.1912 9.73952 59.362 9.43593 60.5535 8.82416C63.6333 7.24212 66.7741 7.39773 67.2685 9.15675C67.4901 9.94319 67.8566 11.2468 68.0836 12.0523C68.3456 12.9807 67.8566 14.1378 66.7505 15.208C65.1378 16.7695 65.1203 16.8671 66.528 16.4987C67.366 16.279 68.658 15.8495 69.3992 15.5444C70.5822 15.057 70.6538 15.2317 69.9888 16.9838C69.1013 19.321 69.9758 19.5987 72.2048 17.6879C73.093 16.9266 73.4503 16.0669 73.0777 15.5902C72.4691 14.8121 72.1888 13.7953 70.7528 7.16508C69.9903 3.64095 70.8496 1.43341 72.9848 1.43341C73.7832 1.43341 74.6485 1.09015 74.9075 0.670609C75.5063 -0.299671 77.3147 -0.217288 80.3344 0.919282ZM41.4604 6.2009C42.4522 7.94695 44.2827 9.82419 44.9935 9.82419C45.8337 9.82419 42.4217 5.35038 41.535 5.28936C41.196 5.26647 41.1625 5.67686 41.4604 6.2009ZM20.9268 9.44279C21.1682 10.0721 21.6718 10.587 22.0458 10.587C22.4198 10.587 22.7261 10.0721 22.7261 9.44279C22.7261 8.81349 22.2225 8.2986 21.607 8.2986C20.926 8.2986 20.6602 8.7456 20.9268 9.44279ZM23.9243 11.8609C23.3065 13.4727 24.7044 14.3743 27.8444 14.3895C29.713 14.3979 30.1914 14.1287 29.8578 13.2568C29.3246 11.8662 28.3008 11.767 27.8688 13.0638C27.6738 13.6504 27.2007 13.3575 26.6355 12.301C25.5477 10.2651 24.5955 10.1102 23.9243 11.8609ZM75.1536 15.2019C76.0654 16.0524 76.812 16.5048 76.812 16.2073C76.812 15.3385 74.321 12.8273 73.8883 13.2598C73.6719 13.4772 74.241 14.3506 75.1536 15.2019ZM39.3266 13.391C40.1303 13.7145 40.1303 14.0173 39.3266 15.0471C38.4475 16.1737 38.4841 16.1966 39.6755 15.2614C40.4084 14.6855 41.0086 13.9128 41.0086 13.5451C41.0086 13.1767 40.4084 12.9028 39.6755 12.9356C38.8277 12.9738 38.7004 13.1401 39.3266 13.391ZM36.2856 13.7907C36.7884 14.2942 37.1998 15.3636 37.1998 16.1684C37.1998 17.2546 36.8082 17.5277 35.677 17.2317C34.8398 17.012 33.9379 17.1829 33.6735 17.6108C33.384 18.0807 31.344 18.2226 28.5308 17.9694C24.9085 17.6429 24.4637 17.7016 26.5349 18.2325C28.0013 18.6078 30.4695 19.08 32.0204 19.2806C33.5707 19.482 35.4919 19.9969 36.2902 20.424C37.0878 20.852 40.0617 21.5728 42.8986 22.0267C45.7346 22.4806 48.9554 23.3074 50.0555 23.8643C52.0444 24.8712 58.4944 26.3228 57.7676 25.5996C57.5582 25.3914 54.1302 23.9627 50.1499 22.4249C38.2464 17.826 38.2243 17.813 37.7079 15.2279C37.4496 13.9342 36.8181 12.8754 36.3047 12.8754C35.5787 12.8754 35.5749 13.0791 36.2856 13.7907ZM116.424 17.1242C116.424 17.3339 117.11 17.1387 117.948 16.6894C118.786 16.2401 119.471 15.7016 119.471 15.4918C119.471 15.282 118.786 15.4773 117.948 15.9266C117.11 16.3759 116.424 16.9144 116.424 17.1242ZM57.0805 16.8801C58.4258 19.4751 59.3978 20.527 60.069 20.1121C60.4018 19.9061 59.7726 18.7085 58.6703 17.4507C56.2761 14.7183 55.8868 14.5787 57.0805 16.8801ZM42.1064 16.2836C40.7504 17.3111 40.9904 17.4057 45.0079 17.4278C47.4174 17.4415 49.3881 17.1379 49.3881 16.7527C49.3881 15.0112 44.2264 14.6786 42.1064 16.2836ZM22.9325 15.6245C23.1854 15.8778 23.8428 15.9052 24.3921 15.6848C25 15.4414 24.8194 15.2607 23.932 15.224C23.1291 15.1912 22.6796 15.3713 22.9325 15.6245ZM6.43555 16.6497C8.8938 17.2378 14.6696 21.1975 14.0182 21.849C13.8156 22.0526 12.5907 21.3272 11.2972 20.2372C10.0037 19.1471 7.58963 17.8893 5.93277 17.443C4.27591 16.996 2.91998 16.472 2.91998 16.2782C2.91998 15.861 3.30847 15.9022 6.43555 16.6497ZM131.901 18.3584C132.144 18.9663 132.325 18.7856 132.361 17.8969C132.394 17.0929 132.214 16.6429 131.961 16.8961C131.708 17.1494 131.681 17.8076 131.901 18.3584ZM95.8563 17.4522C94.4638 18.353 95.6666 18.353 97.7607 17.4522C98.7655 17.0197 98.895 16.7824 98.1416 16.755C97.5132 16.7313 96.4848 17.0456 95.8563 17.4522ZM21.409 17.1501C21.6619 17.4034 22.3193 17.4308 22.8685 17.2104C23.4764 16.967 23.2959 16.7863 22.4084 16.7496C21.6055 16.7168 21.1561 16.8969 21.409 17.1501ZM75.2884 19.3592C75.2884 19.9885 75.6312 20.5034 76.0502 20.5034C76.4692 20.5034 76.812 19.9885 76.812 19.3592C76.812 18.7299 76.4692 18.215 76.0502 18.215C75.6312 18.215 75.2884 18.7299 75.2884 19.3592ZM60.053 22.029C60.053 22.4485 60.4163 22.7918 60.8597 22.7918C61.303 22.7918 61.4546 22.4485 61.1956 22.029C60.9366 21.6094 60.574 21.2662 60.3889 21.2662C60.2038 21.2662 60.053 21.6094 60.053 22.029ZM116.666 25.9864C116.909 26.5943 117.089 26.4135 117.126 25.5249C117.159 24.7209 116.979 24.2708 116.726 24.5241C116.473 24.7773 116.445 25.4356 116.666 25.9864ZM58.9636 26.8506C59.1754 27.4044 60.9861 28.2778 62.9866 28.7912C66.0375 29.5746 81.7482 38.063 89.1908 42.9503C90.3426 43.707 91.2856 44.1166 91.2856 43.861C91.2856 42.4224 67.5092 28.7164 61.9711 26.9628C60.2876 26.4296 58.8356 25.9597 58.7435 25.9185C58.6521 25.8765 58.7511 26.2961 58.9636 26.8506ZM36.2369 26.38C37.1739 26.5608 38.8878 26.5653 40.0457 26.3907C41.2036 26.2152 40.4373 26.0672 38.3424 26.0611C36.2476 26.0558 35.2999 26.1992 36.2369 26.38ZM45.3781 30.8759C45.1275 31.1269 45.107 31.8134 45.3325 32.4015C45.8009 33.6235 47.7168 33.7822 49.3699 32.7356C50.2878 32.1544 50.1484 31.8859 48.6081 31.2703C46.2854 30.342 45.9518 30.3015 45.3781 30.8759ZM28.8203 31.1826C28.8203 31.6021 28.4775 31.9454 28.0585 31.9454C27.6395 31.9454 27.2967 31.6021 27.2967 31.1826C27.2967 30.763 27.6395 30.4198 28.0585 30.4198C28.4775 30.4198 28.8203 30.763 28.8203 31.1826ZM169.748 33.1712C169.748 33.3359 170.262 33.471 170.891 33.471C171.519 33.471 172.034 33.1384 172.034 32.7318C172.034 32.326 171.519 32.191 170.891 32.432C170.262 32.6738 169.748 33.0064 169.748 33.1712ZM25.8364 39.2881C25.451 39.6351 43.4059 39.8815 49.769 39.6176C52.2829 39.5131 54.6825 39.1004 55.1007 38.6999C55.816 38.0165 26.5989 38.6038 25.8364 39.2881ZM139.207 44.2157C139.694 45.4355 139.959 45.6277 139.991 44.7848C140.055 43.0937 139.069 40.581 138.735 41.5841C138.59 42.0189 138.803 43.2027 139.207 44.2157ZM99.2279 46.8863C99.8282 48.5278 100.344 49.4935 100.374 49.0313C100.447 47.8642 98.7937 43.2432 98.4311 43.6055C98.2688 43.7687 98.6268 45.2448 99.2279 46.8863ZM7.63309 45.4339C7.08383 45.6544 6.42642 45.6269 6.17349 45.3737C5.92059 45.1204 6.37006 44.9404 7.17297 44.9732C8.06042 45.0098 8.24097 45.1906 7.63309 45.4339ZM65.7663 51.0153C65.4768 51.4837 66.5616 51.7392 68.578 51.6774L71.8604 51.5775L69.1942 51.0153C67.7278 50.7064 66.4625 50.4081 66.3825 50.3532C66.3025 50.2975 66.0253 50.5958 65.7663 51.0153ZM228.786 57.8805C228.527 58.3001 229.021 58.6433 229.883 58.6433C230.746 58.6433 231.452 58.3001 231.452 57.8805C231.452 57.461 230.958 57.1177 230.354 57.1177C229.75 57.1177 229.045 57.461 228.786 57.8805ZM230.5 60.5259C229.766 60.8386 229.167 61.6152 229.167 62.2506C229.167 63.1736 229.389 63.2216 230.27 62.4901C230.876 61.9867 232.416 61.4092 233.691 61.2078C235.671 60.8959 235.938 61.0431 235.523 62.2216C235.115 63.3795 235.208 63.4398 236.101 62.5969C237.009 61.7395 236.973 61.4496 235.858 60.6243C234.485 59.6083 232.726 59.5755 230.5 60.5259ZM209.098 62.8715C209.346 63.5191 209.712 63.8853 209.912 63.6854C210.112 63.4856 210.049 62.9554 209.773 62.5084C209.021 61.291 208.583 61.5275 209.098 62.8715ZM122.776 67.9876C122.987 68.5124 123.16 68.0829 123.16 67.0341C123.16 65.9853 122.987 65.5566 122.776 66.0806C122.564 66.6054 122.564 67.4636 122.776 67.9876ZM204.555 79.0993C204.004 81.9727 204.475 82.0612 205.876 79.348C207.348 76.4981 207.366 76.1236 206.012 76.6446C205.427 76.8689 204.772 77.9742 204.555 79.0993ZM201.743 80.7645C201.743 81.184 202.086 81.5273 202.505 81.5273C202.924 81.5273 203.266 81.184 203.266 80.7645C203.266 80.3449 202.924 80.0017 202.505 80.0017C202.086 80.0017 201.743 80.3449 201.743 80.7645ZM141.797 85.1361C141.99 85.8783 142.161 85.4557 142.176 84.1971C142.191 82.9385 142.033 82.3313 141.825 82.8477C141.616 83.3641 141.603 84.3939 141.797 85.1361ZM222.083 86.8394C223.04 87.9577 223.616 88.1278 224.361 87.5084C225.696 86.3993 225.624 85.8386 224.215 86.3802C223.587 86.6212 223.072 86.4862 223.072 86.0804C223.072 85.6738 222.561 85.3413 221.937 85.3413C220.981 85.3413 221.004 85.577 222.083 86.8394ZM213.56 88.1041C212.246 91.2545 212.05 93.2835 213.262 91.1965C214.215 89.5557 215.488 85.3413 215.031 85.3413C214.856 85.3413 214.195 86.5846 213.56 88.1041ZM188.272 89.2987C188.515 89.9066 188.696 89.7258 188.732 88.8372C188.765 88.0332 188.585 87.5831 188.332 87.8364C188.08 88.0896 188.052 88.7479 188.272 89.2987ZM28.8203 88.4375C28.8203 88.8814 28.3914 89.0027 27.868 88.7067C27.171 88.3131 27.1375 88.41 27.7408 89.0683C28.6154 90.0218 31.1056 89.4612 31.1056 88.3108C31.1056 87.9363 30.5914 87.6297 29.9629 87.6297C29.3345 87.6297 28.8203 87.9935 28.8203 88.4375ZM185.108 101.36L185.115 103.267L185.692 101.36C186.01 100.311 186.475 98.08 186.724 96.4018L187.178 93.3507L186.139 96.4018C185.568 98.08 185.104 100.311 185.108 101.36ZM166.156 102.695C166.33 103.848 166.473 102.905 166.473 100.597C166.473 98.2898 166.33 97.3462 166.156 98.4995C165.981 99.6529 165.981 101.542 166.156 102.695ZM206.802 106.89C204.906 110.981 203.53 114.328 203.743 114.328C204.159 114.328 210.884 100.212 210.884 99.3386C210.884 98.2974 210.187 99.5881 206.802 106.89ZM221.549 100.597C221.549 101.017 221.7 101.36 221.885 101.36C222.07 101.36 222.433 101.017 222.692 100.597C222.951 100.178 222.799 99.8344 222.356 99.8344C221.912 99.8344 221.549 100.178 221.549 100.597ZM238.641 103.839L236.403 106.318L238.879 104.078C241.187 101.989 241.705 101.36 241.117 101.36C240.985 101.36 239.871 102.476 238.641 103.839ZM216.216 106.663C216.216 107.81 218.5 107.144 218.901 105.88C219.132 105.15 219.823 104.359 220.435 104.124C221.048 103.889 221.549 103.325 221.549 102.87C221.549 102.417 220.349 102.962 218.883 104.082C217.416 105.201 216.216 106.363 216.216 106.663ZM220.962 105.031C220.795 105.53 221.203 105.937 221.867 105.937C222.529 105.937 223.072 105.393 223.072 104.729C223.072 103.382 221.432 103.616 220.962 105.031ZM155.954 106.509C157.107 108.611 159.032 110.956 159.059 110.292C159.084 109.665 155.949 105.174 155.486 105.174C155.34 105.174 155.55 105.774 155.954 106.509ZM164.631 111.838C164.806 112.997 164.954 112.23 164.96 110.132C164.965 108.035 164.822 107.086 164.641 108.024C164.461 108.962 164.456 110.678 164.631 111.838ZM29.582 108.315C29.582 108.735 29.9248 108.866 30.3438 108.607C30.7628 108.347 31.1056 107.792 31.1056 107.372C31.1056 106.953 30.7628 106.822 30.3438 107.081C29.9248 107.34 29.582 107.896 29.582 108.315ZM152.228 108.225C152.228 108.645 152.591 108.988 153.034 108.988C153.478 108.988 153.629 108.645 153.37 108.225C153.111 107.806 152.749 107.462 152.563 107.462C152.378 107.462 152.228 107.806 152.228 108.225ZM229.547 112.039C227.911 113.717 226.743 115.09 226.953 115.09C227.162 115.09 228.673 113.717 230.309 112.039C231.946 110.361 233.113 108.988 232.904 108.988C232.694 108.988 231.184 110.361 229.547 112.039ZM146.895 110.603C146.895 110.973 147.348 111.276 147.901 111.276C149.142 111.276 152.228 114.732 152.228 116.122C152.228 116.683 152.993 117.796 153.929 118.595C155.361 119.819 155.464 119.835 154.581 118.695C152.912 116.539 154.124 116.375 156.124 118.486C157.123 119.541 158.438 120.409 159.045 120.417C159.892 120.427 159.94 120.22 159.254 119.533C158.626 118.904 158.596 118.349 159.153 117.677C159.728 116.983 159.505 116.276 158.345 115.113C157.464 114.232 156.932 113.202 157.164 112.827C157.883 111.662 155.332 110.533 151.656 110.389C150.713 110.353 149.942 110.054 149.942 109.727C149.942 109.399 149.257 109.311 148.419 109.53C147.581 109.749 146.895 110.232 146.895 110.603ZM263.932 113.946C263.692 114.576 263.826 115.09 264.232 115.09C264.638 115.09 264.97 114.576 264.97 113.946C264.97 113.317 264.835 112.802 264.671 112.802C264.506 112.802 264.174 113.317 263.932 113.946ZM165.255 119.188C177.795 137.045 182.291 143.214 182.566 142.938C183.049 142.454 178.088 134.923 177.287 134.923C176.911 134.923 176.69 134.648 176.795 134.311C177.03 133.553 169.97 123.278 166.77 119.721C165.475 118.281 164.416 116.766 164.416 116.351C164.416 115.938 164.193 115.821 163.922 116.093C163.651 116.365 164.251 117.758 165.255 119.188ZM222.692 118.904C221.934 119.743 221.484 120.43 221.694 120.43C221.903 120.43 222.695 119.743 223.453 118.904C224.211 118.065 224.661 117.379 224.451 117.379C224.242 117.379 223.449 118.065 222.692 118.904ZM180.671 121.384C180.882 121.908 181.055 121.479 181.055 120.43C181.055 119.381 180.882 118.952 180.671 119.477C180.459 120.001 180.459 120.859 180.671 121.384ZM160.607 119.193C160.607 119.351 161.207 119.952 161.94 120.528C163.148 121.476 163.175 121.449 162.228 120.239C161.232 118.968 160.607 118.565 160.607 119.193ZM86.357 121.211C85.1473 120.207 82.9061 120.99 82.9061 122.419C82.9061 123.019 83.6687 123.481 84.6582 123.481C86.5253 123.481 88.2774 122.171 88.1784 120.85C88.1456 120.409 87.9407 120.492 87.7236 121.034C87.4402 121.742 87.0548 121.792 86.357 121.211ZM92.6043 121.693C93.12 121.902 94.1484 121.915 94.8896 121.721C95.6308 121.528 95.2088 121.357 93.9519 121.342C92.6949 121.326 92.0885 121.484 92.6043 121.693ZM157.817 123.05C158.047 123.653 157.914 124.253 157.52 124.385C157.126 124.517 159.352 125.506 162.465 126.581L168.126 128.537L166.6 126.391C164.964 124.089 163.989 123.555 164.67 125.333C165.262 126.878 161.208 125.41 159.42 123.432C157.837 121.681 157.237 121.538 157.817 123.05ZM179.875 127.486C180.057 128.43 180.206 127.658 180.206 125.77C180.206 123.882 180.057 123.109 179.875 124.053C179.694 124.998 179.694 126.542 179.875 127.486ZM148.99 123.223C149.513 123.435 150.37 123.435 150.894 123.223C151.418 123.012 150.99 122.839 149.942 122.839C148.895 122.839 148.466 123.012 148.99 123.223ZM81.0345 123.429C80.793 123.819 80.9446 124.354 81.3704 124.618C81.7962 124.881 82.1444 124.561 82.1444 123.908C82.1444 122.567 81.6873 122.371 81.0345 123.429ZM153.196 123.942C153.449 124.195 154.106 124.223 154.655 124.002C155.263 123.759 155.083 123.578 154.195 123.541C153.392 123.509 152.943 123.689 153.196 123.942ZM78.7491 125.059C79.4652 126.22 80.6102 125.866 80.1364 124.63C79.8956 124.003 79.3867 123.683 79.0051 123.92C78.6235 124.156 78.5077 124.669 78.7491 125.059ZM145.036 126.889C145.848 127.506 146.923 128.021 147.423 128.034C147.923 128.047 149.637 128.764 151.232 129.626C152.827 130.489 153.491 130.747 152.708 130.198C151.926 129.651 150.555 128.578 149.661 127.816L148.038 126.43L150.11 126.752C151.249 126.93 152 126.781 151.779 126.423C151.557 126.063 149.617 125.77 147.466 125.77C143.866 125.77 143.674 125.858 145.036 126.889ZM189.066 137.038C186.594 142.05 185.673 144.765 185.906 146.353C186.142 147.957 185.895 148.666 185.038 148.846C184.201 149.021 184.357 149.238 185.556 149.567C186.507 149.828 187.081 149.729 186.844 149.345C186.609 148.965 186.81 148.654 187.291 148.654C187.879 148.654 188.006 147.715 187.68 145.782C187.262 143.303 187.774 141.76 191.417 134.53C193.738 129.922 194.944 127.009 194.097 128.058C193.249 129.107 190.985 133.148 189.066 137.038ZM184.479 129.012C184.69 129.536 184.863 129.107 184.863 128.058C184.863 127.009 184.69 126.58 184.479 127.105C184.268 127.629 184.268 128.487 184.479 129.012ZM164.035 128.821C165.711 129.597 167.425 130.231 167.844 130.228C168.263 130.225 167.234 129.573 165.559 128.779C163.883 127.985 162.169 127.352 161.75 127.371C161.331 127.392 162.359 128.044 164.035 128.821ZM161.844 130.922C163.468 132.497 166.329 135.33 168.2 137.215C170.072 139.101 170.913 139.786 170.068 138.737C169.224 137.688 168.035 136.164 167.427 135.35C166.012 133.458 174.927 140.666 176.682 142.835C177.405 143.727 178.186 144.27 178.417 144.039C178.649 143.808 176.968 141.13 174.682 138.087C172.395 135.044 170.864 132.764 171.279 133.021C172.581 133.826 172.1 132.169 170.652 130.857C169.703 129.997 169.025 129.851 168.485 130.391C167.946 130.931 166.529 130.701 163.963 129.659C158.728 127.533 158.494 127.673 161.844 130.922ZM93.571 129.528C90.354 130.48 89.2868 131.04 90.5239 131.127L92.4283 131.261L90.5277 131.791C88.394 132.385 87.4196 134.923 89.3256 134.923C90.0158 134.923 90.5239 135.569 90.5239 136.449C90.5239 138.408 92.0703 138.396 94.1888 136.419C95.8563 134.864 96.4543 133.7 95.1814 134.488C94.8104 134.717 94.3274 133.967 94.1088 132.819C93.884 131.642 94.0951 130.49 94.5925 130.177C95.1364 129.836 95.5714 130.218 95.7245 131.173C95.8616 132.025 96.2044 132.606 96.4863 132.464C96.7681 132.321 97.942 131.732 99.0938 131.153C100.246 130.574 101.189 129.801 101.189 129.434C101.189 129.067 100.503 129.134 99.6652 129.584C98.764 130.066 98.1416 130.103 98.1416 129.674C98.1416 129.275 98.5697 128.775 99.0938 128.563C101.461 127.607 98.0563 128.202 93.571 129.528ZM179.131 132.778C179.374 133.386 179.555 133.205 179.591 132.317C179.624 131.513 179.444 131.063 179.191 131.316C178.938 131.569 178.911 132.227 179.131 132.778ZM84.4297 131.872C83.4142 132.53 83.4142 132.607 84.4297 132.569C85.0582 132.546 86.2579 132.233 87.0959 131.872L88.6194 131.217L87.0959 131.175C86.2579 131.151 85.0582 131.465 84.4297 131.872ZM83.3731 135.829C83.0082 137.656 82.67 138.043 82.0149 137.387C81.3597 136.731 81.4009 136.202 82.1794 135.262C83.0981 134.154 83.0021 134.038 81.3476 134.253C80.3192 134.385 78.9967 134.195 78.4079 133.829C77.6758 133.372 77.5098 133.44 77.8822 134.042C78.1809 134.527 78.062 134.923 77.6187 134.923C77.1753 134.923 76.812 135.417 76.812 136.022C76.812 136.627 76.4113 137.369 75.9207 137.673C75.3326 138.037 75.1856 137.818 75.4872 137.031C75.7942 136.23 75.408 135.696 74.3164 135.41C72.2626 134.872 72.1019 135.054 71.9077 138.125C71.705 141.335 72.1324 142.551 73.4655 142.551C74.049 142.551 74.5487 142.122 74.5746 141.598C74.6013 141.074 74.9334 141.416 75.312 142.36C75.6914 143.305 76.575 144.077 77.2774 144.077C79.1384 144.077 85.9532 136.973 85.9532 135.032C85.9532 132.484 83.9155 133.113 83.3731 135.829ZM292.414 136.614C290.995 137.501 291.021 137.578 292.995 138.393L295.06 139.246L292.203 139.789C290.161 140.177 289.347 140.724 289.347 141.704C289.347 144.319 294.067 147.061 295.918 145.522C297.222 144.438 297.285 139.231 296.019 137.201C294.918 135.436 294.425 135.356 292.414 136.614ZM96.2334 139.814C92.8839 141.456 90.5825 142.947 91.1203 143.129C91.6582 143.309 92.6865 143.2 93.4057 142.884C94.1248 142.567 94.9704 142.364 95.285 142.43C95.5996 142.497 95.8563 142.219 95.8563 141.812C95.8563 141.406 96.3492 141.263 96.951 141.494C97.5909 141.74 97.8567 142.442 97.5909 143.187C97.2679 144.09 97.7158 143.929 99.1388 142.631C100.24 141.626 100.928 140.457 100.667 140.034C100.404 139.609 100.569 139.498 101.033 139.785C101.771 140.241 103.474 138.171 103.474 136.816C103.474 136.233 103.909 136.053 96.2334 139.814ZM62.8479 138.455C62.4998 138.401 61.7532 139.214 61.1888 140.263C60.2891 141.935 60.0994 142.006 59.6454 140.835C58.927 138.982 58.1638 139.166 57.1285 141.443C55.9463 144.041 56.0087 144.586 57.5574 145.181C58.3801 145.497 59.2333 145.188 59.8427 144.354C60.3775 143.621 60.8147 143.26 60.8147 143.55C60.8147 144.267 63.4939 141.535 64.5147 139.777C65.1644 138.656 65.3442 138.607 65.3625 139.542C65.3876 140.852 61.8881 144.813 57.7676 148.139L55.1014 150.291L57.7676 148.727C59.2341 147.866 61.5178 146.589 62.8433 145.891C65.332 144.579 68.2451 139.522 67.3484 138.07C67.043 137.574 66.2134 137.514 65.1683 137.912C64.2404 138.266 63.196 138.51 62.8479 138.455ZM188.847 143.314C188.847 143.975 189.306 143.653 189.935 142.551C190.534 141.502 191.024 140.129 191.024 139.5C191.024 138.839 190.564 139.161 189.935 140.263C189.337 141.312 188.847 142.685 188.847 143.314ZM148.419 141.363C147.79 141.499 149.676 141.627 152.608 141.646C155.541 141.666 157.315 141.434 156.549 141.132C155.278 140.63 151.255 140.745 148.419 141.363ZM54.7206 141.026C54.7206 141.445 54.8714 141.788 55.0565 141.788C55.2416 141.788 55.6042 141.445 55.8632 141.026C56.1222 140.606 55.9706 140.263 55.5273 140.263C55.0839 140.263 54.7206 140.606 54.7206 141.026ZM161.575 141.486C161.828 141.74 162.486 141.767 163.035 141.547C163.643 141.303 163.462 141.122 162.575 141.086C161.772 141.053 161.322 141.233 161.575 141.486ZM78.7613 142.128C77.9478 142.78 76.9483 143.314 76.5392 143.314C75.5718 143.314 76.0037 142.962 78.3355 141.849C80.131 140.994 80.1554 141.009 78.7613 142.128ZM144.816 142.249C145.069 142.502 145.727 142.53 146.276 142.309C146.884 142.066 146.703 141.885 145.816 141.849C145.013 141.816 144.563 141.996 144.816 142.249ZM70.1975 143.457C70.4405 144.065 70.621 143.885 70.6576 142.996C70.6904 142.192 70.5106 141.742 70.2577 141.995C70.0048 142.248 69.9773 142.907 70.1975 143.457ZM163.273 144.415C168.783 146.931 170.835 147.509 170.115 146.342C169.668 145.617 170.188 145.515 172.304 145.913C176.405 146.683 175.675 145.88 171.081 144.569C166.403 143.234 163.995 142.775 161.369 142.717C159.935 142.686 160.405 143.106 163.273 144.415ZM140.801 143.314C139.408 144.215 140.611 144.215 142.705 143.314C143.71 142.881 143.84 142.644 143.086 142.617C142.458 142.593 141.429 142.907 140.801 143.314ZM58.4692 143.759C58.4327 144.647 58.2521 144.828 58.0091 144.22C57.789 143.669 57.8164 143.011 58.0693 142.758C58.3222 142.505 58.502 142.955 58.4692 143.759ZM82.5253 144.948C82.0172 145.456 82.5253 145.532 84.0488 145.177C85.3057 144.883 86.6769 144.3 87.0959 143.88C87.604 143.371 87.0959 143.295 85.5724 143.651C84.3154 143.945 82.9442 144.528 82.5253 144.948ZM89.5572 144.577C90.0729 144.786 91.1013 144.799 91.8425 144.605C92.5837 144.412 92.1617 144.241 90.9048 144.226C89.6478 144.21 89.0415 144.368 89.5572 144.577ZM179.531 146.824C181.326 148.083 182.475 147.855 181.587 146.416C181.311 145.969 180.343 145.602 179.437 145.602H177.789L179.531 146.824ZM285.174 147.876C284.285 148.615 284.35 148.99 285.589 150.23C286.399 151.041 287.747 151.705 288.585 151.705C289.423 151.705 290.108 152.048 290.108 152.468C290.108 152.887 290.612 153.23 291.227 153.23C291.908 153.23 292.174 152.783 291.908 152.086C291.514 151.059 291.875 150.841 293.727 150.987C294.583 151.054 295.269 147.579 294.502 147.059C293.402 146.311 286.31 146.933 285.174 147.876ZM157.56 147.128C157.56 147.548 157.711 147.891 157.896 147.891C158.081 147.891 158.444 147.548 158.703 147.128C158.962 146.708 158.81 146.365 158.367 146.365C157.923 146.365 157.56 146.708 157.56 147.128ZM160.914 148.774C160.542 149.376 160.88 149.523 161.975 149.236C162.858 149.004 163.689 149.14 163.822 149.538C164.101 150.377 169.748 151.798 169.748 151.029C169.748 150.508 164.04 148.152 162.366 147.982C161.867 147.932 161.213 148.288 160.914 148.774ZM287.039 149.387C287.656 149.777 287.962 150.295 287.72 150.538C287.476 150.78 286.845 150.455 286.315 149.816C285.216 148.49 285.427 148.365 287.039 149.387ZM290.108 150.179C290.108 150.599 289.766 150.942 289.347 150.942C288.928 150.942 288.585 150.599 288.585 150.179C288.585 149.76 288.928 149.416 289.347 149.416C289.766 149.416 290.108 149.76 290.108 150.179ZM278.009 152.569C281.395 153.519 282.015 153.276 280.208 151.706C278.787 150.473 278.238 150.361 277.324 151.121C276.355 151.926 276.453 152.132 278.009 152.569ZM179.237 153.045C179.77 153.656 184.222 152.12 184.222 151.324C184.222 150.619 183.552 150.694 181.644 151.61C180.226 152.291 179.143 152.937 179.237 153.045ZM163.956 158.198C156.821 160.784 153.168 161.348 158.424 159.052C159.834 158.436 160.542 157.903 159.998 157.87C158.364 157.767 154.429 160.105 154.914 160.891C155.162 161.292 155.087 161.629 154.748 161.638C154.409 161.647 153.275 162.37 152.228 163.244L150.323 164.834L153.035 163.339C154.527 162.517 158.983 160.758 162.938 159.432C169.419 157.259 173.308 155.561 171.881 155.53C171.587 155.524 168.021 156.725 163.956 158.198ZM268.298 158.967C268.556 159.641 269.113 159.979 269.535 159.717C269.957 159.456 270.302 159.629 270.302 160.102C270.302 160.631 270.925 160.764 271.921 160.446C273.01 160.1 273.37 160.208 273.019 160.777C272.732 161.241 272.841 161.621 273.26 161.621C274.418 161.621 274.847 160.525 274.138 159.376C273.789 158.81 273.026 158.531 272.442 158.755C271.859 158.98 270.735 158.69 269.945 158.112C268.276 156.89 267.631 157.225 268.298 158.967ZM293.778 159.498C294.324 160.045 294.679 160.09 294.679 159.613C294.679 158.594 293.778 157.692 293.27 158.202C293.053 158.418 293.282 159.002 293.778 159.498ZM264.684 162.993C264.478 163.328 264.586 164.051 264.925 164.6C265.365 165.312 265.693 165.353 266.07 164.741C266.361 164.27 266.918 164.082 267.308 164.324C268.116 164.824 268.28 163.664 267.509 162.893C266.811 162.194 265.141 162.253 264.684 162.993ZM69.956 167.452C69.956 168.247 74.3964 165.35 74.8024 164.29C75.1033 163.505 74.3423 163.792 72.6093 165.116C71.1497 166.23 69.956 167.282 69.956 167.452ZM185.292 166.389L183.841 168.105L185.746 166.588C186.793 165.753 187.792 164.98 187.968 164.871C188.142 164.762 187.938 164.672 187.514 164.672C187.09 164.672 186.091 165.444 185.292 166.389ZM290.87 170.348C290.87 172.047 292.063 172.385 292.188 170.722C292.249 169.912 291.978 169.249 291.585 169.249C291.192 169.249 290.87 169.743 290.87 170.348ZM288.019 172.27C287.046 173.83 287.458 176.114 288.711 176.114C289.111 176.114 289.24 175.795 288.999 175.406C288.759 175.017 289.253 174.479 290.097 174.211C291.345 173.814 291.483 173.448 290.843 172.249C289.846 170.385 289.191 170.39 288.019 172.27ZM182.698 172.682C182.17 173.32 182.087 173.826 182.512 173.826C182.931 173.826 183.7 173.311 184.222 172.682C184.751 172.043 184.834 171.538 184.409 171.538C183.99 171.538 183.22 172.052 182.698 172.682ZM170.701 178.674C168.082 180.678 165.939 181.971 165.939 181.548C165.939 181.124 166.701 180.243 167.633 179.59C168.564 178.937 168.966 178.403 168.527 178.403C168.088 178.403 166.924 179.261 165.939 180.31C164.776 181.55 164.513 182.217 165.188 182.217C165.818 182.217 165.35 183.189 163.995 184.696C162.394 186.475 162.731 186.292 165.185 184.051C167.066 182.333 170.678 179.364 173.211 177.452C175.743 175.541 178.301 173.342 178.895 172.567C179.488 171.791 178.959 172.028 177.718 173.093C176.477 174.159 173.319 176.67 170.701 178.674ZM297.98 174.937C297.98 175.548 298.445 176.227 299.014 176.445C299.824 176.757 299.873 176.518 299.241 175.334C298.28 173.538 297.98 173.443 297.98 174.937ZM295.478 179.095C294.757 180.445 294.861 180.49 296.928 179.709C298.153 179.246 298.985 178.59 298.777 178.253C298.093 177.146 296.272 177.611 295.478 179.095ZM192.673 189.845L190.952 192.514L192.915 190.226C193.996 188.967 194.881 187.623 194.883 187.238C194.888 186.411 194.88 186.42 192.673 189.845ZM186.581 196.276C186.782 196.476 187.399 195.884 187.955 194.959C188.918 193.352 188.902 193.336 187.59 194.594C186.835 195.319 186.381 196.075 186.581 196.276ZM106.521 198.28C106.521 198.676 107.035 198.998 107.664 198.998C108.841 198.998 109.177 198.098 108.32 197.239C107.711 196.63 106.521 197.319 106.521 198.28ZM180.474 205.863C179.619 207.661 179.635 207.686 180.752 206.29C181.403 205.475 181.937 204.474 181.937 204.065C181.937 203.096 181.585 203.529 180.474 205.863ZM163.121 206.626C162.711 206.626 161.966 207.526 161.466 208.625C160.687 210.336 160.724 210.559 161.725 210.174C163.012 209.68 163.344 210.833 162.131 211.584C161.712 211.844 161.369 212.379 161.369 212.774C161.369 214.318 162.876 213.347 165.29 210.25C166.678 208.467 167.135 207.523 166.306 208.152C165.476 208.781 164.583 209.59 164.321 209.95C164.059 210.309 163.597 210.202 163.294 209.711C162.991 209.22 163.239 208.24 163.845 207.532C164.45 206.824 165.195 205.73 165.499 205.101C165.836 204.405 165.624 204.48 164.96 205.291C164.359 206.025 163.531 206.626 163.121 206.626ZM175.475 214.229C173.27 218.585 173.092 219.406 174.7 217.796C175.328 217.167 175.842 216.267 175.842 215.797C175.842 215.326 176.366 213.929 177.005 212.691C177.644 211.453 177.992 210.44 177.78 210.44C177.566 210.44 176.529 212.145 175.475 214.229ZM201.274 215.09C201.274 218.075 201.424 218.573 201.918 217.235C202.444 215.81 202.086 211.203 201.448 211.203C201.352 211.203 201.274 212.952 201.274 215.09ZM204.27 225.077C204.513 225.685 204.693 225.504 204.73 224.615C204.762 223.811 204.583 223.361 204.33 223.615C204.077 223.868 204.049 224.526 204.27 225.077ZM187.269 231.889C187.269 232.308 187.612 232.439 188.031 232.18C188.45 231.921 188.793 231.365 188.793 230.946C188.793 230.526 188.45 230.395 188.031 230.654C187.612 230.914 187.269 231.469 187.269 231.889ZM193.27 240.704C194.168 242.25 194.385 241.755 193.65 239.838C193.389 239.156 193.014 238.758 192.819 238.955C192.622 239.151 192.825 239.938 193.27 240.704ZM189.934 251.052C189.591 250.742 189.609 251.002 189.976 251.631C190.341 252.26 190.577 253.805 190.498 255.063C190.337 257.658 190.651 257.117 191.748 252.911C192.361 250.565 192.318 250.155 191.533 250.807C190.996 251.253 190.277 251.364 189.934 251.052ZM225.083 258.88C225.729 260.565 226.853 258.896 226.87 256.229L226.881 254.343L225.739 255.976C225.11 256.875 224.815 258.182 225.083 258.88ZM207.075 258.542C207.075 258.937 207.418 259.259 207.837 259.259C208.256 259.259 208.599 258.724 208.599 258.07C208.599 257.416 208.256 257.093 207.837 257.352C207.418 257.612 207.075 258.146 207.075 258.542ZM204.79 258.497C204.79 258.916 204.941 259.259 205.126 259.259C205.311 259.259 205.674 258.916 205.933 258.497C206.192 258.077 206.04 257.734 205.597 257.734C205.153 257.734 204.79 258.077 204.79 258.497ZM189.997 267.155C190.261 267.842 190.799 268.204 191.194 267.959C191.623 267.694 191.547 267.072 191.006 266.42C189.892 265.075 189.351 265.469 189.997 267.155ZM210.884 271.509C210.884 272.324 211.142 272.99 211.455 272.99C211.769 272.99 212.027 272.164 212.027 271.155C212.027 270.147 211.769 269.481 211.455 269.675C211.142 269.869 210.884 270.694 210.884 271.509Z" fill="#276555"/>
</svg>
