<svg width="72" height="72" viewBox="0 0 72 72" fill="none" xmlns="http://www.w3.org/2000/svg">
<path d="M28.0939 3.01087C27.2831 2.56377 26.0936 1.54457 25.4092 1L30.3633 16.7613C31.2313 16.221 32.3544 15.3487 32.7174 14.3768C33.3672 12.6294 32.7647 8.52574 32.7612 8.49961L34.8914 9.92141C34.8914 9.92141 35.436 12.7982 34.5906 15.0754C33.9139 16.8842 31.9913 18.157 30.9792 18.7235L33.5565 26.9244C34.895 26.2153 36.9567 24.8281 38.1101 22.5841C39.943 19.0265 39.5623 13.1139 39.5538 13.0666L41.4298 14.7942C41.4644 15.0125 42.0224 19.3542 39.8872 23.4988C38.387 26.4152 35.7277 28.0884 34.1675 28.8647L36.1656 35.2243C38.0331 34.5674 40.9226 33.2742 43.4887 30.9433C47.4835 27.3214 47.8692 22.1851 47.8671 22.0629L49.4718 23.989C49.4775 24.1557 49.5665 28.1301 44.8342 32.4231C41.9863 35.0074 38.8164 36.425 36.7667 37.137L38.3856 42.2888C40.8336 41.8601 45.1393 40.7547 48.3226 38.0269C52.8967 34.1055 54.1893 30.362 54.1914 30.3592L55.5072 32.3192C55.4394 32.5989 54.7197 35.1748 49.6251 39.5441C46.9453 41.8396 43.6504 43.0905 41.042 43.7671C40.3647 43.943 39.681 44.093 38.9923 44.217L40.6832 49.6055C43.7288 48.9126 48.6497 47.4201 51.7786 44.5638C56.4332 40.3154 57.7915 36.7139 57.7929 36.7054L58.81 39.0341C58.7534 39.3442 58.2915 41.3261 53.1291 46.0407C50.0616 48.8405 45.6069 50.4234 42.367 51.2632C42.009 51.3561 41.6497 51.4439 41.2892 51.5266L43.6695 59.0997C46.4022 58.4103 50.6605 56.9702 53.6567 54.2043C58.372 49.8506 58.6341 48.8907 59.9761 46.8918C60.2812 47.9435 59.8567 50.0166 59.8567 50.0166C59.3722 50.7942 59.0473 51.848 54.7126 56.0237C51.6607 58.9613 47.1742 60.1931 44.2508 60.9502L46.4827 68.0522C52.913 65.186 67.4241 57.6306 63.2618 40.8748C59.0847 26.5833 40.8746 9.68409 28.0939 3.01087V3.01087ZM40.0842 61.9765C37.2244 62.9194 32.6722 64.3942 28.4188 63.5558C22.5148 62.3883 21.6728 61.6763 20.845 61.2836C20.845 61.2836 19.3653 59.7686 19.0538 58.7225C21.2646 59.6768 22.0041 60.3414 28.3242 61.4524C32.4518 62.1799 36.9383 61.0082 39.5828 60.0998L37.5366 52.4222C37.1034 52.581 36.6675 52.7324 36.2292 52.8764C33.0501 53.921 28.4492 54.9975 24.3533 54.3003C17.4604 53.1278 16.0012 51.711 15.785 51.4793L15.3824 48.9712C15.3874 48.9769 18.4789 51.2738 24.6888 52.3304C28.9945 53.0636 34.1209 51.545 37.0174 50.4742L35.5582 45.0024C34.8149 45.3176 34.0587 45.6016 33.2916 45.8536C30.732 46.6941 27.2838 47.4258 23.7897 46.9413C17.1404 46.0231 15.1395 44.2467 14.9339 44.0461L14.9812 41.6863C14.9834 41.687 18.0954 44.1372 24.063 44.9608C28.4146 45.564 32.834 43.9995 35.0355 43.041L33.6589 37.8765C31.5901 38.4105 27.9865 39.0348 23.9683 38.3645C17.6652 37.31 15.5901 33.9197 15.5053 33.7749L15.8154 31.2873C15.8804 31.3911 18.9811 35.5019 24.2989 36.3918C27.9484 37.0007 31.2645 36.4208 33.1433 35.9398L31.439 29.5484C29.8357 29.7744 26.391 29.9665 23.3051 28.181C19.2678 25.848 17.3898 21.8941 17.3008 21.6928L17.9435 19.2256C17.9633 19.2687 20.8408 24.4488 24.3046 26.4505C26.718 27.8455 29.4931 27.7635 30.9184 27.5954L28.7091 19.3055C27.8947 19.3937 25.0264 19.5894 23.2069 18.2297C21.2632 16.7719 20.1663 14.0569 20.1663 14.0569L21.1897 11.7077C21.201 11.7331 22.9117 15.5104 24.4027 16.6292C25.3859 17.3638 27.187 17.409 28.1857 17.3426L24.1131 2.07571C22.5352 4.35286 19.2982 9.27019 18.272 11.4993C13.1964 22.5234 8.48602 40.2822 12.5219 53.6442C17.8496 71.2744 35.4198 71.1691 42.1361 69.6809L40.0842 61.9765V61.9765Z" fill="url(#paint0_linear_532_1292)"/>
<defs>
<linearGradient id="paint0_linear_532_1292" x1="9.86516" y1="5.45359" x2="57.8995" y2="27.8524" gradientUnits="userSpaceOnUse">
<stop stop-color="#0A3732"/>
<stop offset="1" stop-color="#55C388"/>
</linearGradient>
</defs>
</svg>
