<svg width="719" height="398" viewBox="0 0 719 398" fill="none" xmlns="http://www.w3.org/2000/svg">
<path fill-rule="evenodd" clip-rule="evenodd" d="M233.915 362.009C233.298 361.774 232.15 359.628 231.362 357.241C229.421 351.345 228.869 350.834 228.505 354.589L228.195 357.788L225.074 355.879C222.725 354.444 222.453 354.419 223.976 355.781C225.089 356.776 226.316 358.614 226.701 359.864C227.38 362.065 227.285 362.091 223.692 360.697C221.651 359.906 218.193 358.077 216.009 356.633C205.556 349.721 199.831 346.147 199.046 346.042C198.573 345.98 197.059 344.456 195.681 342.656C194.302 340.856 191.387 338.528 189.202 337.483C187.017 336.438 184.851 335.089 184.388 334.485C183.926 333.881 182.113 332.945 180.36 332.405C178.609 331.866 176.119 330.567 174.829 329.519C173.539 328.471 171.918 327.466 171.226 327.285C169.003 326.703 162.844 319.889 161.455 316.472C159.988 312.866 158.379 311.334 157.092 312.319C156.641 312.664 157.006 313.519 157.903 314.217C158.799 314.916 159.248 315.706 158.899 315.974C157.783 316.828 155.33 314.722 153.713 311.523C152.618 309.358 151.581 308.397 150.276 308.342C147.425 308.223 138.795 301.588 134.75 296.407C132.765 293.864 130.699 291.827 130.159 291.881C129.62 291.935 128.493 291.083 127.655 289.988C126.816 288.893 124.341 287.51 122.153 286.914C119.965 286.318 117.993 285.593 117.77 285.302C117.547 285.011 115.533 283.773 113.294 282.551C106.221 278.69 103.924 276.999 100.496 273.133C98.6613 271.063 96.2463 268.945 95.1305 268.425C92.2853 267.102 81.8452 257.767 75.7091 251.059C71.3664 246.311 70.1316 244.27 67.9012 238.146C66.4446 234.144 64.356 229.573 63.2613 227.987C60.6007 224.135 55.775 214.816 55.089 212.204C54.7856 211.051 55.0628 209.705 55.7043 209.214C56.5373 208.576 55.8623 206.418 53.3461 201.672C51.4079 198.015 49.3784 193.676 48.8361 192.028C48.2938 190.38 45.3055 185.709 42.1951 181.646C39.0846 177.583 36.2728 173.097 35.9468 171.679C35.222 168.526 38.1599 162.442 40.8787 161.462C41.9725 161.068 43.3764 159.621 44.0003 158.248C45.0967 155.831 44.959 155.557 39.7273 149.737C34.4763 143.894 34.3194 143.577 34.2097 138.65C34.0553 131.664 33.1322 127.035 31.4581 124.848C29.7293 122.59 29.3853 117.58 30.949 117.423C31.6299 117.355 31.3086 116.692 30.1452 115.768C27.2191 113.443 28.5371 105.962 32.3922 103.011C34.4447 101.439 35.3787 99.815 35.624 97.388C36.0324 93.3514 39.7821 90.001 44.261 89.6728C45.8855 89.5525 49.047 88.204 51.2852 86.6745C56.2732 83.2653 63.8366 81.9749 68.1913 83.7908C69.9486 84.5235 73.8492 87.0309 76.8586 89.3629C82.109 93.4312 82.511 93.9597 86.7569 102.375C90.6401 110.073 91.8748 111.798 96.8366 116.455C102.47 121.741 115.002 130.56 123.874 135.481C126.441 136.904 128.515 138.258 128.484 138.49C128.388 139.221 86.9753 120.444 82.9137 117.828C79.3187 115.512 78.9737 115.032 78.1697 111.23C77.6924 108.974 77.3369 105.017 77.3793 102.437C77.485 96.0442 76.6366 95.428 75.7686 101.266C75.3757 103.903 75.5721 107.548 76.2038 109.366C77.7045 113.68 76.6934 114.279 72.7391 111.419C70.084 109.497 69.3439 108.372 68.4688 104.927C67.1657 99.7969 63.9071 90.0112 63.1577 88.9779C61.9117 87.2582 62.7619 93.5377 64.6568 100.04C65.7716 103.865 66.249 107.039 65.7191 107.092C65.1892 107.145 61.5234 104.932 57.5723 102.177C50.433 97.1954 43.3611 93.7319 43.176 95.1254C43.1228 95.5263 44.3823 96.4675 45.9746 97.2182C50.0192 99.1242 61.2919 107.32 61.1666 108.263C61.1098 108.691 55.5988 109.905 48.9204 110.96C37.9902 112.685 32.0404 114.093 32.5972 114.82C32.9224 115.245 49.4904 113.242 54.9742 112.116C60.4813 110.986 68.3248 111.604 68.4833 113.182C68.5379 113.727 69.0579 114.125 69.6383 114.067C70.2196 114.009 71.8773 115.024 73.3234 116.322C74.7687 117.621 78.3413 119.993 81.2632 121.593C84.1844 123.192 86.382 124.648 86.1478 124.828C85.9128 125.008 84.2515 125.415 82.455 125.735C77.5915 126.601 63.4097 131.111 55.7106 134.239C51.9866 135.752 46.8396 137.764 44.2732 138.709C39.0946 140.616 38.661 142.323 43.8031 140.563C63.2381 133.907 71.9519 131.206 76.6274 130.386C86.9133 128.582 87.8615 128.473 90.3561 128.81C94.8343 129.417 111.045 136.57 111.78 138.266C112.176 139.176 112.635 139.564 112.801 139.127C112.968 138.69 114.566 138.922 116.352 139.644L119.6 140.956L115.37 141.761C111.101 142.573 101.425 145.865 88.0445 151.057C72.724 157.002 53.85 163.537 47.7983 164.993C44.33 165.827 41.2215 166.948 40.89 167.484C40.5576 168.021 41.2215 168.2 42.3642 167.883C43.5069 167.566 47.0366 166.995 50.208 166.614C56.0861 165.907 63.426 163.652 85.3836 155.807C92.183 153.379 100.787 150.723 104.504 149.906C108.221 149.089 111.572 148.184 111.95 147.894C113.284 146.873 127.326 146.43 127.424 147.405C127.479 147.949 128.742 148.342 130.233 148.279C132.794 148.171 132.686 148.324 128.285 151.052C106.706 164.433 77.0119 186.883 68.0958 196.56C58.479 206.997 58.6548 206.693 64.0316 203.59C66.9125 201.926 73.2026 196.682 79.7466 190.489C88.4622 182.241 91.6997 179.659 95.826 177.668C98.6666 176.297 104.044 172.838 107.773 169.983C111.503 167.127 115.898 164.348 117.539 163.809C120.109 162.963 123.138 161.101 133.023 154.289C134.8 153.064 137.585 154.717 135.908 156.001C135.471 156.335 135.763 157.457 136.557 158.494C137.693 159.978 137.545 160.9 135.86 162.822C134.682 164.164 133.517 166.158 133.269 167.252C133.023 168.346 129.152 173.333 124.669 178.334C120.185 183.335 112.731 192.476 108.103 198.645C103.476 204.815 95.7702 214.367 90.9803 219.873C86.1904 225.379 81.065 231.639 79.5903 233.784L76.9095 237.685L81.7285 233.287C84.3793 230.868 90.6667 224.275 95.7011 218.637C100.736 212.999 105.475 207.715 106.233 206.895C106.991 206.076 108.788 203.981 110.225 202.239C117.789 193.075 123.278 186.865 127.771 182.386C133.836 176.342 140.675 172.098 141.86 173.646C142.318 174.245 142.086 175.236 141.342 175.848C140.348 176.668 140.639 176.782 142.439 176.279C144.777 175.625 144.897 175.726 145.102 178.523C145.369 182.164 145.7 182.627 146.777 180.874C147.727 179.329 148.775 180.885 150.114 185.822C150.552 187.437 151.292 189.257 151.758 189.866C153.004 191.494 151.602 198.14 149.707 199.591C148.807 200.279 147.976 201.556 147.86 202.428C147.745 203.3 145.29 207.459 142.405 211.671C139.521 215.883 136.456 220.628 135.594 222.217C133.907 225.33 126.463 237.756 120.115 248.06C116.064 254.635 112.572 262.99 113.806 263.154C114.191 263.205 115.127 261.955 115.888 260.376C116.649 258.798 119.55 254.19 122.336 250.138C125.122 246.087 127.874 241.909 128.453 240.855C130.822 236.542 142.238 219.991 147.948 212.59C153.529 205.358 154.249 204.7 156.283 204.97C159.056 205.338 165.689 213.56 164.622 215.307C164.175 216.04 165.323 218.374 167.823 221.809C173.06 229.007 172.997 229.32 162.824 247.094C161.787 248.906 160.031 252.87 158.922 255.904C155.793 264.462 154.604 267.198 149.207 278.271C146.44 283.944 144.392 288.615 144.655 288.65C145.803 288.802 155.111 272.788 160.854 260.784C166.645 248.678 168.883 244.974 173.651 239.592C175.432 237.582 175.469 237.601 178.462 241.995C180.122 244.43 182.313 248.543 183.333 251.134C185.127 255.694 184.537 259.396 180.984 265.88C179.685 268.251 173.118 288.779 171.705 294.887C170.982 298.014 170.138 300.983 169.831 301.486C168.45 303.745 165.102 314.228 165.567 314.835C166.456 315.996 167.644 314.431 169.329 309.878C170.222 307.462 171.127 305.353 171.34 305.19C171.552 305.028 173.242 300.05 175.094 294.13C176.947 288.209 178.77 283.13 179.145 282.843C179.52 282.556 180.092 280.664 180.415 278.636C181.313 273.015 187.587 260.349 189.358 260.585C189.701 260.63 190.421 262.542 190.956 264.834C191.509 267.194 192.693 269.533 193.691 270.23C194.66 270.908 195.599 272.376 195.779 273.493C195.958 274.611 197.389 278.102 198.959 281.251C200.584 284.513 201.531 287.748 201.16 288.769C200.682 290.087 200.856 290.471 201.821 290.219C203.593 289.757 204.516 291.126 203.142 292.179C202.534 292.644 202.497 294.09 203.058 295.391C203.62 296.693 203.759 298.003 203.367 298.303C202.975 298.603 203.777 300.097 205.148 301.622C207.671 304.427 207.714 304.961 206.391 317.241C206.258 318.468 205.915 323.478 205.628 328.372C205.34 333.267 204.651 337.62 204.096 338.045C203.541 338.47 203.292 339.511 203.542 340.359C203.792 341.206 204.332 341.643 204.741 341.33C205.15 341.017 205.69 341.454 205.94 342.301C206.595 344.52 207.562 343.386 208.251 339.587C208.58 337.778 208.921 336.814 209.009 337.447C209.097 338.08 210.165 338.89 211.382 339.248C213.477 339.865 213.537 339.767 212.524 337.416C211.934 336.05 211.77 334.69 212.159 334.392C212.549 334.093 212.562 333.451 212.188 332.963C211.81 332.469 210.951 332.794 210.247 333.697C209.22 335.017 209.019 334.32 209.165 329.95C209.263 326.998 209.634 323.167 209.989 321.435C210.344 319.704 210.59 317.189 210.536 315.845C210.482 314.501 211.112 312.439 211.937 311.262C213.221 309.43 213.426 309.4 213.362 311.051C213.319 312.113 213.67 313.032 214.14 313.094C214.61 313.156 215.729 315.365 216.628 318C217.527 320.637 219.067 324.633 220.052 326.881C221.305 329.741 221.414 331.094 220.416 331.389C218.781 331.871 219.694 335.381 221.65 336.126C222.445 336.429 222.418 336.664 221.577 336.747C219.85 336.92 220.778 338.181 222.833 338.454C223.981 338.607 225.091 340.076 227.022 344C228.467 346.937 230.917 351.768 232.468 354.737C235.378 360.308 235.864 362.751 233.915 362.009ZM237.27 355.783C235.337 353.172 231.831 345.031 232.022 343.595C232.094 343.044 232.611 343.189 233.168 343.916C233.725 344.644 234.687 344.852 235.306 344.378C237.008 343.076 238.495 344.544 239.977 348.988C242.045 355.186 240.22 359.766 237.27 355.783ZM239.838 350.984C239.504 350.547 238.873 350.464 238.436 350.798C237.999 351.132 237.916 351.763 238.25 352.2C238.584 352.636 239.215 352.72 239.652 352.386C240.088 352.052 240.172 351.421 239.838 350.984ZM241.425 348.043C241.652 345.757 237.106 339.882 236.447 341.612C236.269 342.082 235.273 342.272 234.235 342.035C233.198 341.799 232.657 341.36 233.033 341.062C233.408 340.764 232.922 340.591 231.951 340.679C230.39 340.818 230.102 340.422 229.461 337.251C228.667 333.327 226.917 328.355 224.814 324.041C224.017 322.406 223.942 320.395 224.631 319.144C225.275 317.976 225.3 316.129 224.688 315.04C220.821 308.164 233.421 316.309 241.126 325.666C243.54 328.597 245.826 329.249 243.807 326.432C243.032 325.35 240.817 321.993 238.883 318.971C236.951 315.948 234.726 312.654 233.941 311.649C232.928 310.356 232.956 309.693 234.035 309.375C234.871 309.127 235.205 308.77 234.774 308.579C234.344 308.389 232.606 307.452 230.911 306.498C229.216 305.543 227.563 304.968 227.236 305.218C226.909 305.469 225.582 303.956 224.287 301.857C222.363 298.736 221.782 298.286 221.101 299.393C220.51 300.354 219.859 300.203 218.848 298.865C217.811 297.492 217.839 297.136 218.95 297.545C220.186 298 220.417 297.725 220.18 296.083C219.91 294.209 220.025 294.156 221.748 295.361C222.772 296.076 223.941 296.406 224.349 296.094C225.342 295.334 223.037 292.413 221.56 292.562C219.642 292.753 216.642 288.141 218.006 287.096C218.661 286.595 219.439 286.501 219.734 286.886C220.029 287.272 221.129 287.227 222.177 286.787C223.591 286.194 223.783 285.595 222.924 284.473C222.287 283.64 222.123 282.686 222.559 282.351C222.996 282.017 223.73 282.236 224.191 282.838C225.222 284.184 224.592 287.377 223.329 287.209C222.821 287.142 222.983 287.839 223.687 288.76C225.33 290.905 227.351 290.741 226.424 288.538C226.036 287.615 226.769 288.147 228.054 289.72C230.708 292.969 232.883 293.372 231.627 290.381C231.146 289.237 231.342 288.335 232.087 288.261C232.8 288.189 233.671 288.928 234.023 289.905C234.42 291.007 235.283 291.496 236.301 291.194C237.608 290.809 237.553 290.435 236.028 289.349C234.977 288.6 234.608 288.039 235.208 288.102C235.809 288.166 237.409 289.491 238.764 291.047C241.341 294.006 247.178 299.086 249.921 300.76C250.886 301.349 251.155 302.02 250.598 302.447C250.089 302.836 250.191 303.353 250.824 303.594C251.598 303.888 252.13 303.378 252.447 302.037C253.53 297.453 253.392 304.151 252.169 315.523C251.2 324.53 250.032 329.159 247.182 335.293C245.134 339.698 243.271 344.183 243.039 345.258C242.807 346.333 242.299 347.907 241.909 348.755C241.307 350.065 241.234 349.958 241.425 348.043ZM237.831 346.718C237.7 346.547 237.057 346.816 236.402 347.318C235.746 347.819 235.476 348.576 235.8 348.999C236.123 349.421 236.766 349.152 237.229 348.399C237.692 347.646 237.963 346.89 237.831 346.718ZM223.965 343.113C221.249 340.189 219.71 339.869 219.951 342.28C220.015 342.923 220.679 343.682 221.426 343.967C222.172 344.251 223.662 345.803 224.735 347.416C226.432 349.963 226.692 350.071 226.728 348.239C226.752 346.984 225.635 344.912 223.965 343.113ZM215.101 333.147C213.038 332.874 213.812 335.945 216.151 337.318C217.605 338.171 217.721 338.009 217.236 335.816C216.844 334.047 216.246 333.299 215.101 333.147ZM230.288 317.679C229.65 317.302 229.812 317.887 230.648 318.978C231.484 320.07 232.006 320.378 231.808 319.665C231.61 318.949 230.927 318.056 230.288 317.679ZM252.123 298.76C251.106 298.049 250.315 297.152 250.366 296.766C250.417 296.381 251.292 296.647 252.309 297.358C253.326 298.07 254.117 298.966 254.066 299.352C254.015 299.738 253.14 299.472 252.123 298.76ZM237.112 301.361C236.798 300.95 236.183 300.888 235.746 301.222C235.31 301.556 235.379 302.387 235.9 303.068C236.421 303.748 237.036 303.811 237.266 303.207C237.496 302.603 237.427 301.773 237.112 301.361ZM203.563 323.341C202.584 323.419 201.426 323.757 200.989 324.091C200.552 324.425 200.996 324.635 201.975 324.557C202.954 324.478 204.113 324.141 204.549 323.806C204.986 323.472 204.542 323.263 203.563 323.341ZM242.944 274.386C241.364 273.472 239.757 272.964 239.374 273.257C238.989 273.552 238.279 273.273 237.794 272.64C237.309 272.007 236.081 271.608 235.066 271.754C233.753 271.945 233.36 271.65 233.708 270.737C233.992 269.991 235.534 269.797 237.392 270.273C239.15 270.723 240.721 270.769 240.882 270.373C241.593 268.632 245.759 268.5 248.251 270.14C251.2 272.081 250.684 273.674 247.252 273.219C245.867 273.035 245.543 273.299 245.665 274.519C245.774 275.615 245.002 275.578 242.944 274.386ZM217.204 293.452C216.683 292.771 216.614 291.94 217.051 291.606C217.487 291.272 218.102 291.334 218.417 291.745C218.731 292.157 218.8 292.987 218.57 293.591C218.34 294.196 217.725 294.132 217.204 293.452ZM233.242 277.112C232.728 277.044 232.024 276.619 231.679 276.167C231.298 275.67 231.704 275.434 232.709 275.567C233.622 275.689 234.325 276.114 234.272 276.512C234.219 276.91 233.755 277.181 233.242 277.112ZM252.08 262.019C252.395 259.645 251.531 258.851 250.486 260.553C249.917 261.48 249.379 261.541 248.976 260.726C247.878 258.512 244.41 256.711 243.869 258.074C243.582 258.801 243.39 258.415 243.424 257.181C243.476 255.329 243.07 254.864 240.66 254.018C239.105 253.473 237.444 253.325 236.968 253.69C236.458 254.08 235.497 253.264 234.628 251.703C232.998 248.773 231.764 248.911 232.205 251.973C232.57 254.51 230.67 254.316 230.102 251.758C229.867 250.697 228.867 248.745 227.882 247.422C226.808 245.977 226.535 244.795 227.2 244.466C227.81 244.164 227.761 243.58 227.091 243.169C226.421 242.757 225.216 240.427 224.413 237.992C222.585 232.44 222.142 231.848 221.095 233.553C220.159 235.075 219.743 234.692 218.958 231.584C218.665 230.423 218.803 229.917 219.267 230.458C219.73 231 220.653 230.859 221.32 230.146C222.987 228.36 225.674 231.183 226.647 235.74C227.609 240.248 228.172 241.018 228.728 238.588C228.966 237.543 228.785 236.196 228.325 235.594C227.864 234.993 227.883 234.197 228.367 233.827C228.914 233.408 229.642 234.067 230.29 235.567C231.127 237.507 231.564 237.73 232.509 236.702C233.225 235.924 235.261 235.942 237.707 236.749C242.259 238.25 246.351 238.175 243.847 236.636C243.024 236.13 242.696 235.451 243.119 235.127C243.542 234.803 244.566 235.424 245.394 236.505C246.323 237.718 248.024 238.389 249.834 238.256C251.448 238.137 253.508 238.558 254.411 239.189C256.255 240.478 257.956 239.753 256.758 238.189C255.573 236.641 242.268 230.08 236.512 228.206C232.644 226.947 231.109 225.917 230.195 223.965C229.295 222.044 229.007 221.843 229.066 223.18C229.11 224.165 228.656 224.907 228.058 224.828C226.603 224.635 227.763 221.758 229.504 221.244C230.302 221.008 230.471 220.302 229.904 219.561C229.333 218.815 228.268 218.79 227.339 219.501C225.479 220.925 224.291 219.907 225.506 217.929C225.969 217.177 226.037 216.155 225.655 215.657C225.275 215.16 224.598 215.348 224.151 216.075C223.608 216.96 223.193 216.905 222.899 215.909C222.658 215.09 222.211 214.611 221.906 214.844C221.01 215.531 221.036 221.015 221.943 222.372C222.438 223.112 221.926 223.117 220.692 222.385C219.544 221.705 218.238 221.431 217.787 221.776C217.336 222.121 216.5 221.77 215.929 220.995C214.967 219.69 215.055 219.631 217.127 220.203C218.359 220.543 219.566 220.293 219.811 219.648C220.483 217.885 218.677 216.057 217.302 217.11C216.64 217.617 214.628 217.279 212.83 216.361C210.033 214.932 209.267 214.994 207.515 216.795C206.301 218.042 205.193 218.539 204.791 218.014C204.419 217.528 204.818 216.592 205.678 215.933C206.675 215.17 206.788 214.459 205.99 213.968C204.584 213.105 204.818 208.983 206.328 207.979C207.021 207.518 207.109 207.668 206.626 208.485C206.25 209.123 206.183 209.961 206.479 210.348C206.775 210.735 207.395 210.435 207.858 209.682C208.379 208.834 209.052 208.774 209.626 209.523C210.135 210.189 210.227 211.234 209.831 211.848C209.434 212.46 209.582 213.041 210.16 213.14C212.019 213.454 212.238 209.584 210.41 208.715C208.527 207.82 207.56 205.677 208.66 204.835C209.061 204.528 209.889 204.933 210.502 205.733C212.083 207.797 213.252 207.722 214.263 205.495C215.198 203.436 213.593 200.46 211.652 200.655C211.009 200.719 209.952 200.079 209.303 199.231C208.179 197.763 208.307 197.335 210.46 195.397C210.973 194.935 211.382 194.089 211.37 193.516C211.339 192.129 218.758 193.156 218.899 194.559C219.159 197.147 221.262 196.292 221.376 193.552C221.445 191.903 221.856 191.039 222.307 191.596C223.082 192.556 225.742 192.992 235.506 193.76C237.988 193.955 243.157 195.001 246.992 196.083C254.831 198.296 256.205 197.691 250.034 194.743C244.638 192.166 244.611 192.047 249.262 191.383C251.448 191.071 253.001 190.509 252.713 190.133C251.924 189.102 248.723 189.182 248.583 190.235C248.515 190.743 248.014 190.575 247.469 189.862C246.923 189.15 245.445 188.736 244.184 188.941C242.649 189.192 241.675 188.714 241.235 187.494C240.814 186.327 239.255 185.444 236.898 185.04C234.873 184.692 232.866 183.948 232.435 183.385C232.004 182.823 230.582 183.002 229.276 183.783C227.592 184.79 226.438 184.749 225.313 183.645C224.439 182.788 222.865 182.397 221.814 182.776C220.762 183.155 219.357 182.753 218.692 181.884C217.966 180.936 217.296 180.786 217.021 181.511C216.687 182.387 216.459 182.093 216.189 180.442C215.983 179.19 216.133 177.699 216.52 177.129C217.558 175.597 214.85 174.908 213.089 176.256C211.998 177.092 212.001 177.68 213.101 178.356C214.278 179.079 214.214 179.416 212.825 179.826C211.832 180.119 210.199 180.988 209.194 181.757C208.033 182.645 206.77 182.692 205.735 181.887C204.838 181.188 203.519 181.064 202.805 181.611C201.471 182.632 199.341 182.767 195.184 182.092C193.877 181.88 192.417 182.007 191.937 182.374C191.458 182.741 189.713 182.801 188.059 182.509C186.405 182.216 180.061 181.831 173.96 181.653C160.053 181.246 158.265 180.168 154.174 169.723C152.609 165.727 151.363 161.929 151.405 161.286C151.479 160.16 165.907 158.752 167.506 159.714C167.934 159.97 168.718 159.849 169.248 159.443C169.779 159.036 172.396 158.999 175.062 159.36C177.73 159.721 180.231 159.789 180.62 159.513C181.582 158.83 190.547 159.477 189.839 160.177C189.53 160.484 190.372 160.314 191.711 159.801C193.998 158.926 193.989 159.09 191.573 162.5C190.158 164.497 189.186 166.465 189.412 166.874C189.639 167.284 190.095 168.063 190.424 168.607C190.754 169.151 190.523 170.422 189.91 171.431C189.008 172.918 189.295 172.903 191.42 171.347C193.188 170.053 194.34 169.816 194.955 170.618C195.456 171.273 195.271 172.265 194.543 172.823C191.807 174.917 195.912 173.894 199.236 171.652C199.818 171.261 201.383 171.522 202.717 172.233C206.302 174.144 206.56 173.167 203.757 168.288C202.374 165.883 201.634 163.616 202.11 163.252C202.672 162.822 203.475 163.645 204.395 165.596C205.175 167.249 206.067 169.1 206.375 169.71C206.683 170.321 206.88 171.235 206.813 171.745C206.593 173.397 210.505 174.457 212.156 173.192C213.04 172.516 213.811 172.428 213.867 172.999C213.924 173.569 214.803 173.686 215.82 173.259C216.838 172.831 217.553 171.923 217.41 171.241C217.222 170.343 217.488 170.176 218.373 170.637C219.045 170.988 220.078 170.906 220.667 170.455C221.256 170.004 222.545 170.199 223.531 170.888C224.518 171.578 226.64 171.709 228.247 171.18C229.854 170.651 231.511 170.663 231.928 171.208C233.047 172.67 237.794 172.818 238.628 171.418C239.096 170.63 238.845 170.556 237.91 171.207C235.803 172.675 234.255 169.863 235.274 166.422C236.145 163.483 236.203 163.456 240.802 163.765C243.357 163.937 246.151 163.54 247.009 162.883C247.867 162.226 248.843 162.046 249.177 162.483C250.133 163.731 252.048 161.755 251.543 160.042C251.292 159.195 250.766 158.748 250.372 159.049C249.978 159.351 248.98 159.124 248.151 158.545C247.323 157.967 244.18 157.115 241.166 156.651C231.853 155.218 221.903 151.445 221.584 149.226C221.363 147.697 220.696 147.442 218.353 147.985C216.728 148.362 214.002 148.54 212.294 148.382C209.96 148.164 208.45 148.763 206.22 150.792C204.588 152.276 202.986 153.143 202.662 152.719C202.336 152.294 201.69 152.239 201.224 152.596C200.294 153.308 192.677 153.606 188.738 153.086C187.367 152.903 184.639 153.042 182.676 153.393C180.713 153.744 176.009 153.938 172.223 153.826C168.436 153.712 164.973 153.9 164.525 154.243C163.249 155.22 151.771 155.208 149.612 154.228C148.543 153.743 147.204 152.273 146.638 150.961C145.36 147.998 147.833 145.831 153.632 144.831C155.858 144.447 160.916 143.182 164.874 142.018C168.832 140.854 172.937 139.75 173.996 139.562C175.055 139.375 176.415 138.844 177.017 138.383C177.619 137.922 179.469 137.553 181.129 137.563C182.789 137.574 185.785 136.689 187.786 135.599C193.086 132.712 201.324 129.664 206.043 128.843C208.303 128.45 210.869 127.58 211.745 126.91C213.593 125.495 216.544 124.601 230.503 121.228C238.223 119.362 238.979 118.255 232.729 117.965C230.575 117.866 228.566 117.463 228.266 117.071C227.965 116.678 225.916 116.222 223.712 116.058C221.508 115.893 219.434 115.404 219.102 114.971C218.77 114.538 217.058 115.286 215.298 116.634C213.185 118.251 211.632 118.798 210.728 118.243C209.127 117.259 205.969 119.373 205.669 121.628C205.555 122.485 204.916 123.375 204.249 123.605C203.533 123.852 203.338 121.297 203.775 117.372C204.181 113.714 204.274 110.408 203.982 110.026C203.69 109.644 204.054 108.869 204.793 108.304C205.99 107.387 205.887 107.281 203.841 107.326C202.199 107.362 201.401 106.806 201.042 105.376C200.613 103.671 200.731 103.529 201.832 104.417C202.751 105.159 204.033 104.763 206.282 103.042C209.268 100.756 209.961 99.0235 208.627 97.1822C208.304 96.737 208.97 95.8482 210.106 95.2079C211.417 94.4697 211.737 93.8782 210.984 93.5912C210.265 93.3175 210.516 92.5803 211.62 91.7234C213.374 90.362 215.518 86.299 213.815 87.5623C213.357 87.9031 212.092 87.1859 211.005 85.9694C208.963 83.6852 209.457 80.5794 211.989 79.7702C212.686 79.5481 212.958 78.9794 212.596 78.5061C212.234 78.0337 211.29 78.0966 210.5 78.6472C209.642 79.2451 209.338 79.1813 209.749 78.4882C210.126 77.8493 210.047 76.8216 209.574 76.2031C209.099 75.5837 209.04 74.8269 209.44 74.5205C209.84 74.2141 209.774 72.7059 209.294 71.1692C208.813 69.633 208.856 68.8912 209.389 69.5219C209.923 70.1527 210.611 72.1108 210.918 73.8743C211.295 76.0379 211.967 77.1915 212.989 77.4248C214.895 77.8606 217.097 83.2089 216.808 86.7058C216.587 89.3807 216.417 89.1297 231.137 107.656C238.323 116.701 239.514 118.669 241.81 125.304C243.231 129.411 245.764 135.857 247.439 139.629C249.115 143.402 250.169 146.446 249.783 146.395C249.397 146.343 247.484 144.865 245.534 143.11C241.277 139.28 239.162 138.665 236.71 140.542C235.696 141.318 234.417 141.78 233.865 141.57C233.313 141.36 231.223 142.054 229.22 143.112C226.263 144.675 225.587 145.465 225.628 147.31C225.66 148.83 226.264 149.849 227.449 150.387C228.875 151.034 229.894 150.545 232.661 147.885C235.089 145.55 236.835 144.571 238.599 144.555C242.237 144.522 241.394 146.517 237.212 147.84C232.889 149.208 232.697 149.828 235.793 152.441C237.286 153.703 239.56 154.306 241.925 154.069C244.017 153.86 247.407 154.638 249.566 155.823C251.701 156.995 253.792 157.69 254.213 157.368C255.82 156.138 255.617 161.234 253.816 167.281C252.795 170.713 251.91 174.42 251.851 175.52C251.758 177.251 251.632 177.248 250.917 175.496C249.673 172.449 247.322 171.459 245.196 173.087C243.952 174.039 242.946 174.085 242.283 173.218C241.726 172.49 241.218 172.286 241.154 172.764C240.921 174.514 245.014 176.723 246.969 175.901C248.132 175.413 249.036 175.605 249.112 176.356C249.184 177.071 249.938 177.815 250.789 178.01C252.601 178.424 259.378 193.691 260.983 200.973C261.537 203.485 262.205 205.822 262.469 206.167C262.733 206.511 263.001 208.04 263.065 209.563L263.183 212.333L260.527 211.786C259.067 211.486 257.494 211.529 257.033 211.881C256.572 212.235 253.6 212.152 250.429 211.699C247.12 211.226 245.042 211.369 245.551 212.034C246.038 212.67 247.057 213.274 247.814 213.375C249.703 213.626 257.329 219.211 256.573 219.79C256.238 220.047 254.455 220.237 252.612 220.212C250.769 220.189 249.537 220.531 249.875 220.973C250.215 221.416 251.018 221.725 251.662 221.661C252.305 221.597 253.362 222.237 254.011 223.085C254.66 223.933 255.727 224.216 256.382 223.714C257.037 223.213 258.075 223.458 258.687 224.258C260.524 226.657 261.663 226.155 262.278 222.676C263.168 217.639 263.715 220.864 263.467 229.679C263.308 235.347 262.479 239.042 260.566 242.621C259.094 245.376 256.759 251.071 255.378 255.278C252.926 262.75 251.632 265.396 252.08 262.019ZM238.335 268.281C237.665 267.327 237.709 266.995 238.446 267.433C239.115 267.831 239.611 268.538 239.549 269.004C239.487 269.469 238.941 269.144 238.335 268.281ZM242.758 261.851C241.038 262.285 240.888 262.185 241.947 261.3C242.663 260.705 243.742 260.405 244.346 260.635C245.61 261.116 245.582 261.137 242.758 261.851ZM228 264.46C226.341 263.375 224.903 262.382 224.803 262.251C224.704 262.121 226.095 260.978 227.895 259.709C231.406 257.238 233.05 257.512 230.481 260.141C229.499 261.148 229.309 262.606 229.968 264.086C230.989 266.375 230.941 266.385 228 264.46ZM208.001 276.495C207.499 275.84 207.446 275.03 207.883 274.696C208.32 274.361 209.087 274.624 209.589 275.279C210.09 275.934 210.143 276.744 209.707 277.078C209.27 277.412 208.502 277.15 208.001 276.495ZM218.686 267.422C218.249 266.85 218.263 265.388 218.719 264.174C219.175 262.96 219.003 261.255 218.338 260.385C217.01 258.651 217.067 258.509 219.351 257.835C221.508 257.199 221.942 259.43 220.61 264.32C219.898 266.937 219.19 268.079 218.686 267.422ZM222.162 252.22C219.176 248.32 219.637 248.143 223.537 251.692C225.321 253.317 226.05 254.491 225.524 254.894C225.068 255.243 223.555 254.04 222.162 252.22ZM252.81 228.653C252.172 228.275 252.334 228.86 253.17 229.952C254.006 231.043 254.528 231.352 254.33 230.638C254.132 229.923 253.449 229.029 252.81 228.653ZM211.191 261.228C211.588 260.561 212.295 260.065 212.76 260.126C213.226 260.188 212.901 260.734 212.038 261.341C211.083 262.011 210.751 261.967 211.191 261.228ZM215.575 256.444C214.624 254.537 216.845 251.855 218.06 253.442C218.547 254.078 218.357 255.354 217.638 256.277C216.663 257.529 216.139 257.571 215.575 256.444ZM225.228 248.823C225.164 248.18 225.269 247.533 225.462 247.386C225.654 247.238 226.085 247.475 226.42 247.911C226.754 248.348 226.649 248.995 226.187 249.349C225.724 249.703 225.293 249.467 225.228 248.823ZM207.694 255.367C206.293 254.254 205.573 253.072 205.852 252.341C206.103 251.682 205.788 250.736 205.152 250.239C204.515 249.743 204.352 249.491 204.789 249.681C205.226 249.87 205.776 249.519 206.011 248.902C206.28 248.195 206.718 248.555 207.195 249.877C207.804 251.567 208.279 251.723 209.64 250.682C210.568 249.971 211.378 249.893 211.44 250.508C211.501 251.123 210.876 251.826 210.05 252.071C209.105 252.349 208.816 253.38 209.27 254.854C209.982 257.162 209.961 257.169 207.694 255.367ZM220.998 245.765C219.863 244.282 219.913 243.909 221.221 244.083C222.529 244.256 222.854 244.68 222.68 245.988C222.507 247.296 222.133 247.247 220.998 245.765ZM223.988 244.735C223.654 244.299 223.738 243.668 224.174 243.333C224.611 242.999 225.242 243.083 225.576 243.52C225.91 243.956 225.827 244.587 225.39 244.922C224.953 245.256 224.322 245.172 223.988 244.735ZM233.995 233.837C232.683 233.865 231.669 233.446 231.741 232.906C231.812 232.365 232.923 232.063 234.208 232.234C237.234 232.635 237.084 233.768 233.995 233.837ZM221.706 241.754C221.371 241.317 221.293 240.105 221.532 239.059C221.775 237.999 222.235 237.51 222.574 237.953C222.908 238.39 222.986 239.602 222.748 240.647C222.505 241.707 222.045 242.197 221.706 241.754ZM245.327 217.759C245.033 216.763 244.618 216.708 244.075 217.593C243.628 218.32 243.507 219.234 243.805 219.624C244.679 220.766 245.807 219.384 245.327 217.759ZM254.185 209.947C252.805 209.77 252.784 209.931 254.081 210.733C254.979 211.287 255.76 211.388 255.817 210.956C255.875 210.525 255.141 210.071 254.185 209.947ZM200.476 250.215C199.364 248.762 199.539 246.244 200.741 246.404C201.704 246.531 203.09 250.659 202.357 251.219C201.972 251.514 201.126 251.063 200.476 250.215ZM208.869 242.339C207.137 241.523 205.768 240.493 205.826 240.051C205.885 239.609 206.252 239.664 206.642 240.173C207.811 241.7 208.885 240.114 208.121 237.992C207.729 236.906 207.941 235.61 208.591 235.112C209.623 234.323 209.443 234.103 207.187 233.388C205.764 232.938 204.051 231.842 203.379 230.951C202.371 229.613 202.452 229.437 203.841 229.934C205.227 230.429 205.297 230.265 204.24 228.999C203.535 228.153 201.987 226.788 200.802 225.963L198.646 224.465L200.239 226.709C201.999 229.189 200.565 231.228 198.119 229.726C196.238 228.569 195.963 230.127 197.623 232.537C202.073 238.996 202.461 239.806 201.47 240.564C200.882 241.014 199.267 241.174 197.88 240.918C195.486 240.478 195.385 240.309 195.854 237.529C196.388 234.371 194.831 233.053 192.592 234.767C190.615 236.28 185.255 235.544 184.462 233.649C184.096 232.773 182.529 229.482 180.982 226.339C179.432 223.195 178.343 220.487 178.56 220.321C178.964 220.012 185.378 221.002 191.386 222.301C193.254 222.704 195.127 223.474 195.549 224.013C196.054 224.656 196.268 224.381 196.174 223.209C196.052 221.688 196.189 221.629 197.108 222.809C197.7 223.568 198.481 223.962 198.844 223.684C199.207 223.406 200.75 223.784 202.273 224.522C203.797 225.26 206.487 226.349 208.25 226.941C211.134 227.908 211.439 228.245 211.279 230.289C211.175 231.622 211.98 233.45 213.227 234.712C214.396 235.895 214.682 236.386 213.862 235.8C211.857 234.37 210.609 235.484 212.073 237.397C212.807 238.355 212.676 239.571 211.723 240.641L210.201 242.354L212.07 241.094C214.368 239.545 215.766 240.954 213.587 242.622C212.638 243.349 210.777 243.238 208.869 242.339ZM195.777 247.367C195.423 246.905 195.66 246.473 196.303 246.409C196.947 246.344 197.593 246.449 197.741 246.642C197.889 246.835 197.652 247.265 197.215 247.6C196.778 247.934 196.131 247.829 195.777 247.367ZM213.941 232.363C213.378 232.149 213.11 231.472 213.344 230.857C213.578 230.244 214.195 230.299 214.716 230.979C215.784 232.374 215.465 232.944 213.941 232.363ZM226.619 212.481C223.604 208.546 221.087 205.703 221.026 206.163C220.965 206.622 221.095 207.082 221.315 207.185C221.535 207.289 221.955 208.732 222.249 210.392C222.579 212.269 223.31 213.533 224.178 213.731C224.946 213.906 226.964 215.367 228.661 216.977C230.359 218.587 231.827 219.843 231.924 219.769C232.021 219.695 229.634 216.415 226.619 212.481ZM193.163 241.257C192.41 240.794 192.14 240.15 192.563 239.827C192.986 239.503 193.743 239.774 194.244 240.429C194.746 241.084 195.015 241.727 194.844 241.859C194.672 241.99 193.916 241.719 193.163 241.257ZM189.07 241.766C188.4 240.812 188.445 240.48 189.182 240.919C189.851 241.316 190.347 242.023 190.285 242.489C190.223 242.954 189.677 242.629 189.07 241.766ZM227.235 207.797C226.866 207.287 227.621 207.162 228.911 207.519C230.867 208.06 231.093 207.954 230.27 206.879C228.961 205.168 225.042 206.586 225.23 208.702C225.444 211.106 226.124 211.622 227.063 210.093C227.526 209.34 227.603 208.307 227.235 207.797ZM217.845 213.68C217.268 212.927 214.601 214.366 214.703 215.377C214.764 215.992 215.55 215.932 216.449 215.244C217.348 214.556 217.977 213.852 217.845 213.68ZM219.678 208.26C218.342 208.082 217.762 210.469 219.025 210.949C219.776 211.235 220.209 210.882 220.343 209.875C220.453 209.05 220.153 208.323 219.678 208.26ZM198.078 216.932C195.898 216.643 192.356 215.959 190.206 215.413C188.057 214.867 185.909 214.713 185.434 215.07C184.541 215.742 180.678 214.315 178.719 212.589C178.106 212.049 176.496 210.963 175.142 210.175C172.63 208.714 170.226 205.119 168.255 199.874C167.649 198.26 165.95 194.872 164.48 192.346C163.009 189.82 161.941 187.397 162.108 186.963C162.53 185.852 187.45 187.122 192.039 188.488C195.86 189.625 201.824 194.955 200.452 196.006C200.045 196.317 199.438 196.215 199.103 195.779C198.769 195.342 198.138 195.258 197.702 195.592C197.265 195.927 197.424 196.875 198.054 197.698C198.684 198.521 199.442 200.562 199.736 202.233C200.032 203.904 200.789 205.589 201.421 205.976C202.052 206.365 202.42 208.253 202.239 210.172C201.997 212.743 201.323 213.908 199.685 214.597C198.136 215.248 197.846 215.679 198.731 216.015C199.43 216.282 200.517 216.106 201.147 215.624C201.776 215.142 202.564 215.105 202.899 215.542C203.973 216.945 202.145 217.472 198.078 216.932ZM221.305 199.454C220.857 197.936 215.797 198.979 215.956 200.557C216.018 201.176 216.925 201.092 217.972 200.371C219.369 199.409 219.58 199.439 218.764 200.486C218.153 201.271 217.89 202.222 218.178 202.599C218.958 203.618 221.715 200.845 221.305 199.454ZM224.313 196.63C224.249 195.986 223.618 195.903 222.911 196.444C222.204 196.985 222.121 197.615 222.725 197.846C223.329 198.076 223.96 198.159 224.127 198.032C224.294 197.904 224.377 197.273 224.313 196.63ZM231.559 187.724C231.045 187.656 230.226 187.081 229.739 186.445C229.021 185.507 229.222 185.303 230.802 185.365C231.874 185.408 232.99 185.756 233.283 186.138C233.913 186.961 232.89 187.901 231.559 187.724ZM198.441 203.138C197.92 202.458 197.305 202.395 197.075 202.999C196.845 203.603 196.913 204.434 197.228 204.845C197.543 205.256 198.158 205.318 198.594 204.984C199.031 204.65 198.962 203.819 198.441 203.138ZM112.816 264.686C111.986 264.577 110.539 267.631 111.085 268.343C111.386 268.737 111.998 268.089 112.443 266.902C112.889 265.715 113.057 264.719 112.816 264.686ZM221.277 177.994C221.002 177.066 220.447 176.263 220.044 176.209C219.641 176.155 219.63 176.529 220.019 177.038C220.409 177.547 220.171 178.391 219.491 178.912C218.81 179.433 218.747 180.048 219.351 180.278C220.992 180.902 221.838 179.898 221.277 177.994ZM185.395 202.994C184.929 202.932 184.222 203.428 183.825 204.096C183.386 204.834 183.718 204.878 184.672 204.208C185.535 203.602 185.86 203.056 185.395 202.994ZM231.763 160.072C231.513 159.224 231.411 158.452 231.536 158.357C231.66 158.261 232.379 158.561 233.132 159.024C233.957 159.531 234.048 160.212 233.359 160.739C232.671 161.266 232.037 161.001 231.763 160.072ZM236.461 150.808C236.127 150.371 236.368 149.62 236.998 149.138C237.627 148.656 238.636 148.45 239.24 148.68C239.845 148.91 239.603 149.662 238.704 150.35C237.805 151.038 236.796 151.244 236.461 150.808ZM204.697 163.55C202.024 160.121 202.41 158.045 205.558 158.912C208.164 159.631 209.133 160.528 207.868 161.048C207.378 161.25 206.975 162.55 206.971 163.938C206.965 166.347 206.862 166.33 204.697 163.55ZM227.442 148.897C227.108 148.46 227.191 147.829 227.628 147.495C228.065 147.16 228.696 147.244 229.03 147.681C229.364 148.118 229.281 148.748 228.844 149.083C228.407 149.417 227.776 149.333 227.442 148.897ZM197.127 166.151C195.655 165.566 195.29 164.833 195.566 163.011C195.872 160.976 196.251 160.63 198.204 160.602C200.017 160.576 200.531 161.002 200.706 162.678C201.006 165.554 199.442 167.071 197.127 166.151ZM239.254 129.779C238.919 129.342 238.267 129.275 237.805 129.629C237.343 129.982 237.458 130.461 238.063 130.691C238.667 130.921 239.318 130.989 239.511 130.841C239.704 130.693 239.588 130.216 239.254 129.779ZM207.253 146.531C205.998 146.053 203.304 148.191 203.44 149.556C203.501 150.156 204.593 149.801 205.867 148.766C207.142 147.732 207.765 146.727 207.253 146.531ZM213.56 140.633C213.225 140.197 212.573 140.129 212.111 140.483C211.649 140.837 211.764 141.315 212.369 141.545C212.973 141.775 213.624 141.843 213.817 141.695C214.01 141.548 213.894 141.07 213.56 140.633ZM205.609 140.118C205.278 139.685 204.435 140.065 203.736 140.962C203.037 141.859 202.218 142.269 201.915 141.873C201.612 141.478 200.828 141.564 200.173 142.065C199.518 142.567 198.631 142.519 198.202 141.959C197.689 141.288 196.108 141.89 193.57 143.722C191.451 145.253 190.389 146.271 191.21 145.985C195.15 144.614 195.661 144.395 195.499 144.151C195.404 144.006 196.948 143.849 198.933 143.802C202.663 143.714 206.669 141.503 205.609 140.118ZM183.729 143.879C182.751 143.278 182.334 143.556 181.705 145.232C180.616 148.132 181.339 148.694 183.314 146.481C184.348 145.323 184.502 144.354 183.729 143.879ZM205.453 129.633C204.739 129.83 203.846 130.514 203.468 131.153C203.091 131.79 203.675 131.629 204.767 130.793C205.859 129.957 206.168 129.435 205.453 129.633ZM213.362 120.634L210.89 121.518L213.014 119.768C214.181 118.805 215.41 118.374 215.744 118.811C216.079 119.247 216.235 119.638 216.093 119.677C215.951 119.717 214.721 120.148 213.362 120.634ZM199.935 125.033C199.42 124.964 199.068 123.704 199.154 122.231C199.298 119.776 199.233 119.841 198.369 123.009C197.523 126.112 197.206 126.437 195.283 126.182C194.102 126.025 192.8 126.446 192.387 127.119C191.974 127.79 191.163 128.161 190.585 127.94C190.007 127.72 188.985 127.962 188.312 128.477C187.639 128.992 185.583 129.778 183.742 130.224C181.9 130.669 178.25 131.935 175.631 133.038C169.609 135.571 148.036 142.204 146.488 141.998C139.222 141.033 161.971 121.758 185.081 109.296C191.914 105.612 197.65 102.617 197.83 102.641C198.009 102.665 198.178 103.725 198.206 104.996C198.242 106.641 197.268 108.06 194.83 109.911C192.434 111.73 192.018 112.327 193.446 111.892C195.472 111.277 195.79 111.445 198.466 114.542C199.428 115.656 200.109 115.711 200.716 114.722C201.245 113.861 201.635 113.79 201.71 114.542C201.778 115.222 201.145 115.981 200.304 116.23C199.463 116.478 198.557 117.249 198.293 117.944C197.991 118.737 198.597 118.86 199.922 118.275L202.032 117.344L201.824 120.967C201.601 124.822 201.412 125.229 199.935 125.033ZM212.116 114.071C211.793 113.649 211.149 113.918 210.686 114.671C210.224 115.424 209.953 116.18 210.084 116.352C210.215 116.523 210.859 116.254 211.514 115.752C212.169 115.251 212.44 114.494 212.116 114.071ZM193.922 116.626C193.587 116.189 192.935 116.122 192.473 116.476C192.011 116.829 192.126 117.308 192.731 117.538C193.335 117.768 193.986 117.836 194.179 117.688C194.372 117.54 194.256 117.063 193.922 116.626ZM188.615 119.564C187.906 118.638 184.913 119.534 184.424 120.819C183.686 122.755 185.21 123.295 187.172 121.793C188.264 120.957 188.913 119.954 188.615 119.564ZM181.366 124.214C181.854 123.42 181.872 122.272 181.407 121.664C180.367 120.306 179.364 120.97 179.066 123.213C178.66 126.272 179.797 126.768 181.366 124.214ZM204.06 92.8543C200.597 94.3896 199.913 93.4871 200.668 88.3744C201.495 82.7755 204.779 74.8751 205.751 76.1448C206.091 76.5887 206.003 77.5464 205.556 78.2738C205.109 78.9999 205.491 81.7576 206.404 84.4011C207.317 87.0447 207.679 89.8354 207.207 90.6037C206.735 91.372 206.257 92.0048 206.144 92.0105C206.032 92.0156 205.094 92.3961 204.06 92.8543ZM215.424 84.2915C214.959 84.2297 214.252 84.7257 213.855 85.3934C213.415 86.1318 213.747 86.1759 214.702 85.5059C215.565 84.8993 215.89 84.3533 215.424 84.2915ZM195.241 98.5739C194.225 97.3012 186.075 100.859 183.538 103.683C182.275 105.089 179.911 106.625 178.281 107.098C175.015 108.046 174.214 108.49 163.81 115.129C158.466 118.539 155.296 121.251 151.476 125.682C145.208 132.954 145.262 132.911 145.356 130.513C145.398 129.444 146.492 127.105 147.788 125.315C149.083 123.525 149.744 121.908 149.255 121.722C148.767 121.536 147.926 122.079 147.386 122.929C146.129 124.907 148.266 115.13 151.135 105.777L153.351 98.5507L163.34 89.614C168.834 84.6991 174.863 78.9815 176.738 76.9065C178.614 74.8323 183.188 70.4437 186.903 67.1536C190.619 63.8636 194.781 59.8611 196.151 58.2591L198.645 55.3467L202.466 60.338C206.766 65.9551 206.69 66.5713 201.263 70.0748C199.041 71.5088 197.67 73.0558 197.502 74.319C197.357 75.411 196.413 76.9462 195.403 77.7288C194.396 78.5116 193.299 79.9089 192.968 80.8336C192.454 82.2704 192.57 82.3628 193.765 81.4638C195.495 80.1634 196.377 81.1686 195.783 83.7654C195.537 84.8441 195.781 85.7181 196.326 85.7085C196.87 85.6987 196.994 88.7711 196.601 92.5357C196.207 96.3004 195.596 99.0176 195.241 98.5739ZM134.147 139.717C133.542 139.487 133.427 139.009 133.889 138.655C134.351 138.301 135.003 138.369 135.338 138.805C135.672 139.242 135.788 139.72 135.596 139.868C135.403 140.015 134.751 139.947 134.147 139.717ZM178.473 103.026C177.673 101.982 176.369 104.017 176.882 105.507C177.133 106.235 177.632 106.134 178.178 105.246C178.666 104.451 178.799 103.452 178.473 103.026ZM137.561 130.657C137.744 128.176 138.209 122.057 138.594 117.059C139.429 106.265 137.583 90.0739 134.671 82.6433C130.393 71.7242 129.768 68.345 131.325 64.5437C132.987 60.4867 139.302 53.6408 141.353 53.6741C142.071 53.686 144.874 52.9469 147.581 52.0318C154.096 49.8289 157.591 46.1822 159.169 39.9419L160.435 34.93L167.347 34.5567C176.411 34.0684 184.759 37.2086 188.95 42.6835C190.838 45.1489 191.462 46.5814 190.684 46.6585C189.919 46.7353 190.145 47.3538 191.292 48.3222C192.297 49.1703 194.175 51.0383 195.467 52.4738L197.814 55.0845L185.915 65.0401C179.371 70.516 169.627 79.2262 164.26 84.3963C158.895 89.5665 154.341 93.7752 154.143 93.7482C153.944 93.7218 154.545 88.2442 155.478 81.5752C157.049 70.3594 157.576 68.7987 162.496 60.7695C165.421 55.995 168.675 50.6222 169.727 48.8295C170.778 47.0361 172.386 44.4063 173.298 42.9838C174.21 41.5619 174.652 40.3581 174.28 40.308C173.907 40.2592 170.235 45.374 166.119 51.6745C162.004 57.975 158.126 63.8714 157.504 64.7774C156.684 65.9676 156.344 64.3859 156.27 59.0633C156.215 55.0151 156.328 51.1867 156.522 50.5562C156.717 49.9259 156.363 49.3467 155.736 49.2691C155.11 49.1917 154.228 53.3774 153.778 58.5711C152.846 69.3218 151.798 69.8882 146.418 62.5464C144.587 60.0455 142.561 58.1822 141.563 58.0775C140.196 57.9352 141.056 59.3128 145.829 64.9033C151.466 71.5068 151.778 72.0897 151.286 75.0773L150.764 78.2464L148.589 76.8954C147.392 76.1516 144.276 74.0623 141.663 72.253C134.079 67.0002 132.696 66.4456 136.264 70.0894C138.008 71.8711 141.917 75.0258 144.949 77.0998L150.464 80.8715L149.709 86.9949C149.293 90.3629 148.619 93.3755 148.209 93.6892C147.798 94.0035 146.895 96.6789 146.2 99.6353C145.504 102.592 144.706 105.186 144.427 105.4C143.613 106.023 141.426 115.259 139.875 124.627C138.265 134.348 137.059 137.49 137.561 130.657ZM171.879 99.3484C171.545 98.9116 171.083 99.0486 170.853 99.6529C170.623 100.257 170.708 101.109 171.042 101.546C171.377 101.982 171.839 101.845 172.069 101.241C172.299 100.637 172.214 99.7851 171.879 99.3484ZM198.198 79.7477C198.595 79.08 199.302 78.584 199.768 78.6458C200.233 78.7076 199.908 79.2536 199.045 79.8602C198.091 80.5302 197.759 80.4861 198.198 79.7477ZM176.639 93.7689C177.104 91.2406 175.963 88.8143 174.747 89.745C174.077 90.258 174.12 95.6949 174.802 96.5858C175.415 97.387 176.193 96.1934 176.639 93.7689Z" fill="#276555"/>
<path fill-rule="evenodd" clip-rule="evenodd" d="M470.822 362.341C471.438 362.101 472.57 359.947 473.34 357.554C475.239 351.645 475.787 351.129 476.178 354.882L476.512 358.078L479.619 356.147C481.958 354.696 482.229 354.668 480.716 356.041C479.61 357.045 478.396 358.891 478.02 360.144C477.357 362.35 477.452 362.375 481.035 360.955C483.071 360.15 486.515 358.296 488.689 356.836C499.092 349.849 504.792 346.234 505.575 346.124C506.048 346.058 507.551 344.523 508.917 342.713C510.282 340.903 513.18 338.555 515.358 337.494C517.535 336.434 519.692 335.069 520.15 334.462C520.608 333.854 522.414 332.905 524.163 332.353C525.911 331.801 528.391 330.484 529.673 329.427C530.956 328.37 532.57 327.353 533.26 327.167C535.479 326.569 541.589 319.711 542.953 316.285C544.394 312.668 545.992 311.124 547.286 312.1C547.74 312.442 547.381 313.299 546.489 314.004C545.598 314.71 545.155 315.503 545.506 315.768C546.628 316.614 549.066 314.491 550.659 311.28C551.739 309.107 552.77 308.138 554.074 308.075C556.924 307.935 565.506 301.239 569.514 296.028C571.48 293.471 573.532 291.42 574.072 291.47C574.611 291.52 575.732 290.659 576.563 289.558C577.393 288.458 579.859 287.057 582.042 286.445C584.226 285.834 586.193 285.094 586.413 284.802C586.634 284.509 588.639 283.257 590.87 282.018C597.914 278.107 600.199 276.399 603.599 272.509C605.419 270.426 607.819 268.291 608.931 267.763C611.767 266.42 622.14 257.009 628.227 250.258C632.536 245.479 633.756 243.429 635.942 237.289C637.37 233.276 639.426 228.691 640.509 227.097C643.142 223.226 647.901 213.872 648.568 211.255C648.863 210.1 648.576 208.757 647.931 208.27C647.094 207.638 647.753 205.475 650.235 200.711C652.147 197.041 654.146 192.687 654.676 191.036C655.206 189.384 658.161 184.691 661.242 180.606C664.324 176.52 667.103 172.015 667.419 170.594C668.121 167.436 665.14 161.374 662.414 160.413C661.317 160.027 659.903 158.59 659.269 157.222C658.155 154.812 658.291 154.538 663.481 148.68C668.69 142.8 668.845 142.482 668.919 137.554C669.023 130.567 669.913 125.931 671.571 123.732C673.284 121.462 673.592 116.45 672.027 116.304C671.346 116.241 671.662 115.576 672.819 114.643C675.728 112.297 674.357 104.826 670.481 101.902C668.417 100.346 667.471 98.7281 667.208 96.3029C666.771 92.2694 662.997 88.946 658.516 88.6499C656.891 88.5413 653.72 87.2156 651.471 85.7021C646.458 82.3288 638.886 81.0927 634.544 82.9398C632.792 83.6851 628.91 86.2205 625.917 88.574C620.696 92.6799 620.298 93.2113 616.113 101.657C612.285 109.383 611.063 111.116 606.134 115.809C600.539 121.135 588.071 130.044 579.234 135.029C576.678 136.47 574.613 137.839 574.646 138.07C574.747 138.8 616.024 119.727 620.067 117.082C623.645 114.74 623.986 114.258 624.763 110.45C625.224 108.191 625.551 104.231 625.49 101.652C625.339 95.2597 626.183 94.6373 627.093 100.469C627.505 103.103 627.334 106.75 626.716 108.572C625.246 112.897 626.261 113.488 630.195 110.6C632.836 108.659 633.568 107.529 634.419 104.078C635.685 98.9382 638.873 89.1293 639.615 88.0907C640.849 86.362 640.044 92.6475 638.195 99.1633C637.108 102.996 636.654 106.173 637.184 106.222C637.714 106.272 641.364 104.033 645.295 101.249C652.398 96.2166 659.445 92.7024 659.64 94.0945C659.697 94.4951 658.444 95.4453 656.857 96.2074C652.826 98.1424 641.612 106.419 641.745 107.361C641.804 107.788 647.324 108.963 654.01 109.97C664.952 111.617 670.912 112.982 670.36 113.713C670.038 114.14 653.456 112.257 647.965 111.17C642.449 110.079 634.611 110.754 634.463 112.332C634.413 112.878 633.896 113.279 633.315 113.226C632.733 113.171 631.083 114.199 629.646 115.508C628.21 116.817 624.655 119.214 621.744 120.834C618.835 122.455 616.647 123.927 616.883 124.105C617.119 124.283 618.783 124.679 620.582 124.986C625.452 125.816 639.666 130.224 647.387 133.297C651.122 134.784 656.283 136.759 658.856 137.685C664.048 139.554 664.494 141.258 659.339 139.535C639.857 133.019 631.124 130.38 626.443 129.594C616.144 127.864 615.195 127.762 612.703 128.117C608.23 128.756 592.071 136.026 591.348 137.726C590.959 138.64 590.502 139.031 590.333 138.595C590.163 138.159 588.567 138.403 586.786 139.137L583.548 140.473L587.783 141.247C592.057 142.029 601.757 145.251 615.175 150.347C630.537 156.182 649.458 162.581 655.52 163.993C658.994 164.802 662.11 165.902 662.446 166.435C662.782 166.969 662.119 167.153 660.974 166.845C659.829 166.536 656.296 165.99 653.122 165.632C647.239 164.967 639.883 162.765 617.869 155.077C611.053 152.698 602.43 150.104 598.707 149.314C594.985 148.524 591.627 147.643 591.247 147.355C589.905 146.344 575.861 146.002 575.769 146.978C575.719 147.522 574.458 147.924 572.967 147.871C570.406 147.782 570.514 147.934 574.935 150.631C596.609 163.857 626.464 186.093 635.449 195.706C645.141 206.073 644.963 205.771 639.564 202.706C636.671 201.062 630.343 195.864 623.755 189.718C614.981 181.533 611.725 178.974 607.584 177.013C604.734 175.662 599.332 172.242 595.582 169.414C591.832 166.585 587.417 163.838 585.773 163.31C583.196 162.483 580.154 160.642 570.221 153.901C568.434 152.689 565.662 154.362 567.348 155.634C567.787 155.965 567.503 157.09 566.716 158.132C565.591 159.624 565.746 160.545 567.445 162.454C568.633 163.789 569.812 165.774 570.067 166.866C570.322 167.958 574.228 172.917 578.747 177.886C583.267 182.855 590.786 191.941 595.458 198.078C600.13 204.214 607.903 213.711 612.733 219.182C617.562 224.653 622.732 230.876 624.222 233.011L626.931 236.892L622.081 232.529C619.412 230.13 613.078 223.582 608.003 217.98C602.928 212.378 598.151 207.128 597.387 206.314C596.623 205.5 594.812 203.419 593.362 201.687C585.732 192.577 580.199 186.407 575.674 181.96C569.566 175.96 562.697 171.765 561.523 173.322C561.069 173.923 561.308 174.913 562.057 175.52C563.056 176.333 562.766 176.448 560.962 175.958C558.62 175.322 558.501 175.424 558.315 178.222C558.075 181.864 557.747 182.33 556.657 180.585C555.697 179.047 554.659 180.61 553.356 185.557C552.93 187.174 552.203 189 551.741 189.612C550.507 191.249 551.957 197.884 553.862 199.322C554.767 200.004 555.607 201.275 555.729 202.146C555.851 203.017 558.335 207.158 561.25 211.35C564.164 215.54 567.264 220.264 568.137 221.847C569.846 224.947 577.379 237.32 583.802 247.577C587.9 254.124 591.451 262.453 590.218 262.626C589.834 262.679 588.889 261.437 588.116 259.863C587.344 258.29 584.41 253.704 581.595 249.672C578.781 245.64 575.998 241.482 575.412 240.433C573.012 236.137 561.477 219.668 555.714 212.308C550.082 205.117 549.357 204.463 547.325 204.748C544.554 205.136 537.98 213.406 539.06 215.145C539.513 215.875 538.381 218.217 535.906 221.67C530.721 228.905 530.786 229.218 541.086 246.918C542.136 248.722 543.92 252.674 545.052 255.699C548.242 264.235 549.45 266.963 554.927 277.996C557.735 283.65 559.816 288.306 559.553 288.343C558.407 288.503 548.983 272.556 543.154 260.593C537.276 248.53 535.013 244.842 530.206 239.494C528.41 237.497 528.373 237.516 525.412 241.931C523.77 244.379 521.608 248.507 520.607 251.105C518.846 255.678 519.462 259.375 523.061 265.834C524.378 268.196 531.092 288.676 532.548 294.773C533.294 297.895 534.159 300.858 534.47 301.359C535.867 303.608 539.29 314.067 538.83 314.677C537.949 315.845 536.75 314.288 535.033 309.747C534.122 307.338 533.201 305.235 532.988 305.074C532.774 304.913 531.049 299.948 529.154 294.041C527.259 288.134 525.4 283.068 525.023 282.783C524.645 282.499 524.06 280.611 523.722 278.586C522.784 272.971 516.419 260.351 514.65 260.599C514.307 260.647 513.601 262.564 513.082 264.86C512.547 267.224 511.379 269.571 510.387 270.275C509.422 270.96 508.494 272.435 508.322 273.553C508.15 274.672 506.744 278.174 505.198 281.333C503.596 284.607 502.672 287.849 503.05 288.867C503.538 290.182 503.366 290.567 502.4 290.322C500.625 289.873 499.711 291.249 501.093 292.291C501.704 292.752 501.752 294.197 501.2 295.503C500.647 296.808 500.517 298.119 500.912 298.417C501.306 298.714 500.515 300.213 499.154 301.748C496.652 304.572 496.613 305.106 498.024 317.376C498.166 318.602 498.545 323.609 498.867 328.501C499.19 333.394 499.91 337.742 500.468 338.163C501.026 338.584 501.283 339.624 501.039 340.473C500.795 341.322 500.258 341.763 499.847 341.453C499.436 341.143 498.899 341.583 498.655 342.432C498.016 344.656 497.041 343.529 496.324 339.735C495.982 337.928 495.634 336.966 495.551 337.6C495.467 338.233 494.405 339.052 493.191 339.418C491.1 340.05 491.039 339.953 492.036 337.595C492.616 336.225 492.77 334.863 492.379 334.568C491.987 334.272 491.969 333.63 492.34 333.139C492.714 332.642 493.576 332.961 494.286 333.859C495.323 335.172 495.519 334.473 495.342 330.105C495.222 327.154 494.824 323.325 494.456 321.596C494.089 319.867 493.825 317.354 493.869 316.009C493.913 314.666 493.269 312.608 492.435 311.437C491.138 309.614 490.932 309.586 491.009 311.236C491.059 312.298 490.715 313.219 490.245 313.285C489.776 313.351 488.672 315.567 487.793 318.209C486.913 320.852 485.402 324.859 484.432 327.114C483.2 329.983 483.101 331.336 484.1 331.624C485.739 332.095 484.851 335.611 482.901 336.37C482.108 336.679 482.137 336.913 482.978 336.99C484.706 337.151 483.788 338.419 481.735 338.707C480.588 338.867 479.488 340.345 477.586 344.282C476.162 347.229 473.746 352.078 472.217 355.058C469.346 360.65 468.878 363.096 470.822 362.341ZM467.422 356.139C469.337 353.514 472.784 345.348 472.583 343.914C472.506 343.363 471.991 343.511 471.439 344.242C470.887 344.975 469.927 345.19 469.304 344.72C467.593 343.43 466.116 344.908 464.666 349.363C462.644 355.576 464.501 360.143 467.422 356.139ZM464.82 351.358C465.151 350.919 465.782 350.831 466.221 351.162C466.66 351.493 466.748 352.123 466.417 352.563C466.086 353.002 465.455 353.09 465.016 352.759C464.577 352.428 464.489 351.797 464.82 351.358ZM463.212 348.428C462.969 346.144 467.472 340.237 468.143 341.962C468.325 342.431 469.322 342.614 470.358 342.37C471.394 342.125 471.932 341.683 471.554 341.388C471.177 341.092 471.662 340.915 472.633 340.996C474.194 341.125 474.48 340.726 475.098 337.551C475.864 333.621 477.578 328.637 479.65 324.309C480.436 322.668 480.497 320.656 479.798 319.41C479.146 318.247 479.107 316.4 479.711 315.306C483.529 308.403 470.988 316.638 463.35 326.05C460.958 328.998 458.676 329.667 460.675 326.835C461.443 325.748 463.633 322.375 465.545 319.339C467.456 316.302 469.657 312.992 470.435 311.982C471.438 310.682 471.406 310.019 470.325 309.708C469.486 309.467 469.15 309.112 469.579 308.918C470.008 308.724 471.74 307.776 473.428 306.809C475.115 305.843 476.764 305.255 477.093 305.503C477.422 305.751 478.738 304.229 480.018 302.12C481.92 298.987 482.498 298.532 483.186 299.634C483.784 300.591 484.434 300.435 485.435 299.09C486.462 297.71 486.432 297.353 485.324 297.771C484.091 298.235 483.858 297.961 484.083 296.317C484.34 294.442 484.224 294.39 482.51 295.607C481.492 296.329 480.324 296.667 479.915 296.359C478.916 295.605 481.2 292.668 482.678 292.806C484.598 292.984 487.564 288.35 486.193 287.316C485.534 286.819 484.756 286.73 484.464 287.117C484.171 287.505 483.071 287.469 482.02 287.036C480.602 286.453 480.405 285.856 481.256 284.727C481.887 283.89 482.045 282.934 481.606 282.603C481.166 282.272 480.434 282.496 479.977 283.101C478.956 284.455 479.609 287.643 480.871 287.466C481.378 287.395 481.222 288.094 480.524 289.02C478.897 291.177 476.874 291.028 477.785 288.818C478.167 287.892 477.437 288.429 476.164 290.011C473.533 293.279 471.362 293.698 472.596 290.698C473.068 289.55 472.866 288.65 472.121 288.581C471.407 288.514 470.541 289.26 470.196 290.239C469.807 291.344 468.948 291.839 467.928 291.545C466.618 291.168 466.671 290.795 468.187 289.698C469.233 288.941 469.598 288.377 468.998 288.444C468.398 288.513 466.808 289.85 465.464 291.415C462.908 294.392 457.108 299.515 454.376 301.208C453.416 301.804 453.152 302.477 453.712 302.899C454.224 303.285 454.126 303.802 453.494 304.049C452.722 304.348 452.186 303.841 451.86 302.503C450.744 297.926 450.93 304.624 452.235 315.986C453.268 324.986 454.47 329.607 457.364 335.721C459.443 340.111 461.339 344.582 461.578 345.655C461.817 346.729 462.337 348.299 462.733 349.144C463.345 350.45 463.417 350.342 463.212 348.428ZM466.796 347.078C466.926 346.906 467.571 347.171 468.23 347.667C468.889 348.164 469.165 348.919 468.844 349.344C468.524 349.769 467.878 349.504 467.41 348.755C466.942 348.005 466.666 347.25 466.796 347.078ZM480.636 343.373C483.331 340.43 484.868 340.099 484.644 342.512C484.584 343.155 483.926 343.919 483.181 344.209C482.437 344.498 480.959 346.061 479.897 347.681C478.218 350.241 477.959 350.351 477.91 348.519C477.877 347.264 478.979 345.184 480.636 343.373ZM489.429 333.345C491.489 333.056 490.738 336.133 488.408 337.522C486.961 338.386 486.843 338.224 487.313 336.029C487.691 334.256 488.285 333.505 489.429 333.345ZM474.13 317.986C474.766 317.604 474.608 318.19 473.78 319.287C472.952 320.385 472.433 320.697 472.625 319.982C472.817 319.265 473.495 318.367 474.13 317.986ZM452.161 299.224C453.172 298.505 453.957 297.603 453.903 297.218C453.849 296.832 452.976 297.105 451.964 297.823C450.953 298.542 450.168 299.445 450.222 299.83C450.276 300.215 451.149 299.943 452.161 299.224ZM467.189 301.717C467.501 301.304 468.115 301.237 468.554 301.568C468.993 301.899 468.93 302.731 468.414 303.415C467.898 304.099 467.283 304.167 467.049 303.564C466.815 302.961 466.877 302.131 467.189 301.717ZM500.895 323.455C501.875 323.527 503.036 323.856 503.475 324.187C503.914 324.518 503.472 324.731 502.492 324.66C501.513 324.588 500.352 324.259 499.913 323.928C499.474 323.597 499.916 323.384 500.895 323.455ZM461.164 274.785C462.738 273.859 464.341 273.339 464.726 273.63C465.113 273.922 465.821 273.638 466.301 273.002C466.782 272.365 468.007 271.958 469.023 272.096C470.338 272.277 470.729 271.98 470.374 271.07C470.085 270.326 468.541 270.142 466.686 270.632C464.932 271.095 463.361 271.151 463.197 270.757C462.473 269.021 458.307 268.919 455.827 270.577C452.892 272.539 453.42 274.128 456.848 273.648C458.232 273.454 458.558 273.716 458.444 274.937C458.343 276.034 459.114 275.991 461.164 274.785ZM487.04 293.665C487.556 292.981 487.62 292.149 487.181 291.818C486.742 291.487 486.128 291.554 485.816 291.967C485.504 292.381 485.441 293.212 485.675 293.814C485.91 294.417 486.524 294.349 487.04 293.665ZM470.886 277.441C471.399 277.369 472.1 276.939 472.442 276.485C472.819 275.985 472.412 275.752 471.407 275.892C470.496 276.02 469.795 276.45 469.851 276.848C469.907 277.246 470.373 277.513 470.886 277.441ZM451.94 262.483C451.607 260.112 452.466 259.311 453.523 261.006C454.099 261.929 454.637 261.986 455.035 261.168C456.117 258.946 459.572 257.121 460.122 258.48C460.415 259.204 460.604 258.817 460.56 257.583C460.495 255.732 460.898 255.264 463.302 254.401C464.853 253.844 466.513 253.685 466.992 254.046C467.505 254.433 468.46 253.61 469.317 252.042C470.926 249.101 472.161 249.23 471.742 252.295C471.395 254.834 473.294 254.627 473.843 252.065C474.071 251.002 475.056 249.043 476.032 247.713C477.096 246.261 477.361 245.076 476.694 244.752C476.081 244.454 476.126 243.87 476.793 243.454C477.46 243.038 478.648 240.7 479.433 238.258C481.222 232.693 481.66 232.098 482.72 233.796C483.666 235.311 484.08 234.925 484.842 231.812C485.127 230.649 484.985 230.143 484.525 230.688C484.067 231.233 483.142 231.099 482.47 230.391C480.79 228.617 478.123 231.459 477.183 236.023C476.254 240.537 475.696 241.312 475.123 238.886C474.877 237.842 475.049 236.493 475.505 235.889C475.961 235.284 475.936 234.488 475.45 234.122C474.9 233.707 474.177 234.371 473.539 235.876C472.717 237.822 472.281 238.048 471.329 237.027C470.607 236.253 468.572 236.286 466.131 237.111C461.59 238.645 457.497 238.599 459.991 237.042C460.81 236.53 461.132 235.848 460.708 235.528C460.282 235.207 459.263 235.835 458.442 236.922C457.522 238.142 455.826 238.825 454.015 238.705C452.4 238.598 450.343 239.033 449.445 239.671C447.61 240.973 445.904 240.26 447.091 238.688C448.265 237.131 461.523 230.475 467.265 228.56C471.124 227.273 472.651 226.231 473.551 224.274C474.438 222.346 474.723 222.143 474.674 223.48C474.637 224.466 475.096 225.204 475.694 225.121C477.148 224.917 475.967 222.049 474.223 221.548C473.422 221.317 473.249 220.612 473.81 219.868C474.376 219.117 475.441 219.084 476.375 219.789C478.245 221.2 479.425 220.173 478.196 218.204C477.728 217.455 477.653 216.433 478.031 215.933C478.408 215.433 479.086 215.616 479.538 216.34C480.088 217.221 480.502 217.163 480.789 216.165C481.024 215.345 481.468 214.863 481.774 215.093C482.675 215.773 482.688 221.258 481.791 222.622C481.302 223.365 481.813 223.366 483.042 222.626C484.185 221.937 485.49 221.653 485.943 221.996C486.396 222.337 487.23 221.98 487.795 221.201C488.748 219.889 488.66 219.831 486.591 220.417C485.363 220.766 484.153 220.525 483.904 219.882C483.22 218.124 485.012 216.283 486.394 217.326C487.06 217.828 489.07 217.476 490.861 216.545C493.648 215.095 494.414 215.152 496.179 216.941C497.402 218.179 498.514 218.668 498.912 218.14C499.28 217.651 498.874 216.718 498.01 216.066C497.007 215.31 496.889 214.599 497.684 214.103C499.083 213.229 498.82 209.109 497.302 208.116C496.606 207.66 496.52 207.811 497.008 208.624C497.389 209.26 497.462 210.098 497.169 210.487C496.876 210.875 496.253 210.58 495.785 209.831C495.258 208.986 494.585 208.931 494.016 209.684C493.512 210.353 493.427 211.399 493.828 212.01C494.229 212.619 494.085 213.202 493.508 213.304C491.651 213.632 491.404 209.763 493.226 208.882C495.102 207.974 496.054 205.823 494.948 204.989C494.545 204.685 493.72 205.096 493.113 205.9C491.547 207.976 490.377 207.909 489.35 205.689C488.401 203.637 489.984 200.65 491.926 200.831C492.57 200.891 493.622 200.243 494.265 199.39C495.379 197.914 495.247 197.487 493.08 195.564C492.564 195.106 492.149 194.263 492.157 193.69C492.178 192.303 484.766 193.383 484.635 194.787C484.395 197.376 482.285 196.537 482.151 193.798C482.07 192.15 481.653 191.288 481.206 191.849C480.438 192.814 477.782 193.269 468.023 194.107C465.543 194.32 460.382 195.403 456.554 196.513C448.731 198.782 447.353 198.187 453.503 195.195C458.881 192.578 458.907 192.459 454.25 191.829C452.062 191.533 450.505 190.982 450.79 190.604C451.572 189.568 454.774 189.624 454.922 190.676C454.993 191.183 455.493 191.012 456.033 190.296C456.573 189.579 458.049 189.154 459.311 189.351C460.847 189.59 461.818 189.105 462.25 187.882C462.663 186.712 464.215 185.818 466.569 185.397C468.591 185.035 470.593 184.276 471.02 183.71C471.446 183.145 472.87 183.314 474.181 184.086C475.872 185.08 477.027 185.032 478.144 183.919C479.011 183.056 480.583 182.653 481.636 183.025C482.691 183.397 484.093 182.985 484.752 182.111C485.471 181.157 486.14 181.003 486.42 181.725C486.76 182.599 486.986 182.304 487.244 180.651C487.441 179.398 487.281 177.908 486.89 177.34C485.841 175.816 488.543 175.108 490.314 176.443C491.411 177.271 491.412 177.859 490.318 178.543C489.146 179.274 489.211 179.611 490.604 180.011C491.599 180.297 493.238 181.154 494.249 181.916C495.415 182.796 496.68 182.834 497.709 182.02C498.6 181.315 499.918 181.182 500.637 181.724C501.978 182.735 504.108 182.855 508.261 182.151C509.566 181.928 511.027 182.045 511.509 182.409C511.991 182.772 513.737 182.82 515.389 182.516C517.04 182.211 523.381 181.781 529.481 181.559C543.385 181.052 545.165 179.961 549.18 169.487C550.717 165.48 551.936 161.673 551.889 161.03C551.807 159.905 537.37 158.6 535.777 159.574C535.351 159.834 534.567 159.718 534.033 159.316C533.499 158.913 530.883 158.894 528.219 159.274C525.554 159.654 523.053 159.741 522.662 159.467C521.695 158.791 512.735 159.502 513.448 160.198C513.759 160.502 512.916 160.338 511.573 159.835C509.28 158.976 509.29 159.14 511.731 162.532C513.161 164.519 514.146 166.48 513.923 166.891C513.699 167.303 513.249 168.085 512.923 168.631C512.598 169.178 512.838 170.447 513.458 171.452C514.371 172.932 514.084 172.919 511.947 171.379C510.17 170.097 509.016 169.868 508.407 170.675C507.911 171.334 508.103 172.324 508.835 172.876C511.586 174.951 507.474 173.958 504.134 171.739C503.549 171.352 501.986 171.625 500.657 172.345C497.086 174.282 496.821 173.307 499.589 168.408C500.954 165.993 501.678 163.721 501.2 163.36C500.635 162.934 499.838 163.763 498.931 165.72C498.163 167.379 497.285 169.237 496.981 169.849C496.677 170.461 496.487 171.378 496.557 171.887C496.789 173.537 492.885 174.625 491.225 173.372C490.336 172.702 489.565 172.62 489.513 173.191C489.459 173.762 488.581 173.885 487.561 173.465C486.541 173.045 485.819 172.142 485.957 171.459C486.139 170.56 485.872 170.395 484.99 170.862C484.32 171.217 483.287 171.143 482.694 170.696C482.102 170.249 480.815 170.453 479.833 171.15C478.852 171.846 476.731 171.993 475.12 171.475C473.509 170.958 471.852 170.982 471.439 171.53C470.331 173 465.585 173.182 464.741 171.788C464.267 171.003 464.518 170.928 465.457 171.573C467.575 173.024 469.102 170.202 468.059 166.768C467.167 163.836 467.109 163.809 462.513 164.151C459.958 164.341 457.162 163.965 456.299 163.314C455.436 162.663 454.459 162.49 454.128 162.929C453.181 164.184 451.252 162.221 451.745 160.505C451.989 159.656 452.512 159.205 452.908 159.504C453.304 159.802 454.301 159.569 455.125 158.984C455.95 158.399 459.087 157.525 462.097 157.04C471.399 155.54 481.322 151.696 481.625 149.475C481.836 147.944 482.5 147.684 484.848 148.21C486.475 148.575 489.202 148.734 490.909 148.563C493.241 148.329 494.755 148.918 497 150.93C498.643 152.402 500.251 153.258 500.572 152.832C500.894 152.404 501.541 152.345 502.009 152.698C502.944 153.403 510.563 153.647 514.499 153.098C515.868 152.906 518.597 153.025 520.562 153.362C522.528 153.699 527.233 153.859 531.018 153.72C534.804 153.579 538.268 153.742 538.719 154.082C540.002 155.049 551.479 154.956 553.632 153.96C554.697 153.467 556.025 151.987 556.582 150.671C557.839 147.699 555.35 145.55 549.544 144.592C547.316 144.224 542.248 142.995 538.282 141.86C534.316 140.724 530.203 139.649 529.143 139.469C528.082 139.289 526.719 138.769 526.113 138.312C525.508 137.855 523.655 137.5 521.995 137.522C520.336 137.544 517.334 136.681 515.324 135.605C510.004 132.756 501.745 129.767 497.02 128.981C494.757 128.604 492.185 127.752 491.304 127.088C489.446 125.687 486.489 124.814 472.505 121.541C464.772 119.73 464.009 118.629 470.257 118.294C472.41 118.18 474.415 117.762 474.713 117.368C475.011 116.973 477.056 116.503 479.259 116.323C481.462 116.142 483.533 115.638 483.862 115.202C484.19 114.767 485.907 115.503 487.677 116.838C489.802 118.44 491.359 118.976 492.259 118.414C493.852 117.419 497.026 119.51 497.342 121.763C497.462 122.619 498.108 123.505 498.776 123.729C499.494 123.971 499.67 121.415 499.206 117.494C498.773 113.838 498.656 110.533 498.946 110.149C499.235 109.765 498.865 108.993 498.122 108.433C496.918 107.524 497.02 107.417 499.068 107.448C500.709 107.473 501.503 106.911 501.853 105.478C502.269 103.77 502.15 103.629 501.056 104.525C500.142 105.274 498.857 104.887 496.595 103.181C493.594 100.917 492.887 99.1898 494.208 97.339C494.528 96.8914 493.856 96.0074 492.716 95.3753C491.399 94.6466 491.074 94.0573 491.826 93.7649C492.542 93.4861 492.287 92.7508 491.176 91.9018C489.412 90.553 487.24 86.5055 488.951 87.7565C489.412 88.094 490.671 87.3678 491.75 86.1435C493.776 83.8447 493.26 80.7425 490.721 79.9515C490.023 79.7344 489.747 79.1677 490.105 78.6918C490.464 78.2168 491.408 78.2729 492.202 78.8179C493.065 79.4096 493.368 79.3436 492.953 78.6535C492.571 78.0173 492.642 76.9891 493.111 76.3671C493.581 75.7444 493.635 74.9871 493.233 74.6836C492.83 74.3802 492.886 72.8715 493.355 71.3314C493.824 69.7918 493.776 69.0503 493.248 69.6849C492.719 70.3194 492.045 72.2824 491.75 74.0481C491.389 76.2143 490.725 77.3727 489.705 77.6133C487.802 78.0628 485.639 83.4268 485.953 86.9215C486.192 89.5947 486.361 89.3426 471.774 107.974C464.653 117.07 463.476 119.047 461.228 125.698C459.837 129.815 457.35 136.28 455.702 140.063C454.054 143.848 453.021 146.899 453.407 146.846C453.793 146.791 455.694 145.299 457.632 143.531C461.862 139.67 463.972 139.04 466.438 140.9C467.457 141.668 468.74 142.121 469.289 141.907C469.84 141.693 471.935 142.371 473.946 143.416C476.914 144.957 477.596 145.742 477.568 147.587C477.546 149.107 476.95 150.131 475.768 150.677C474.347 151.334 473.325 150.853 470.539 148.213C468.095 145.896 466.341 144.929 464.577 144.926C460.939 144.919 461.796 146.908 465.988 148.201C470.321 149.537 470.517 150.156 467.44 152.792C465.956 154.064 463.687 154.683 461.32 154.463C459.227 154.269 455.842 155.072 453.691 156.273C451.565 157.459 449.478 158.169 449.055 157.85C447.44 156.632 447.68 161.727 449.523 167.76C450.569 171.184 451.481 174.885 451.548 175.985C451.654 177.715 451.779 177.711 452.482 175.955C453.703 172.898 456.047 171.891 458.185 173.504C459.436 174.447 460.442 174.486 461.099 173.614C461.651 172.883 462.157 172.675 462.224 173.152C462.47 174.901 458.393 177.139 456.432 176.331C455.266 175.851 454.363 176.05 454.293 176.801C454.226 177.517 453.477 178.266 452.628 178.467C450.819 178.894 444.152 194.209 442.599 201.503C442.063 204.019 441.411 206.361 441.15 206.707C440.889 207.053 440.632 208.584 440.578 210.108L440.48 212.878L443.132 212.312C444.591 212.002 446.164 212.033 446.627 212.383C447.091 212.733 450.062 212.629 453.229 212.153C456.535 211.656 458.614 211.784 458.11 212.452C457.627 213.093 456.612 213.704 455.856 213.81C453.97 214.074 446.384 219.715 447.144 220.288C447.481 220.542 449.265 220.719 451.108 220.681C452.951 220.645 454.185 220.978 453.85 221.423C453.514 221.868 452.712 222.183 452.068 222.123C451.425 222.064 450.372 222.712 449.729 223.564C449.086 224.417 448.021 224.707 447.363 224.211C446.704 223.714 445.668 223.966 445.061 224.771C443.242 227.183 442.099 226.689 441.46 223.214C440.534 218.184 440.009 221.412 440.321 230.226C440.521 235.893 441.376 239.582 443.315 243.147C444.807 245.891 447.182 251.569 448.594 255.766C451.099 263.221 452.412 265.857 451.94 262.483ZM465.73 268.647C466.393 267.688 466.346 267.356 465.612 267.8C464.946 268.202 464.455 268.913 464.521 269.378C464.586 269.843 465.129 269.514 465.73 268.647ZM461.26 262.248C462.984 262.67 463.133 262.569 462.067 261.692C461.347 261.102 460.266 260.81 459.664 261.044C458.403 261.534 458.431 261.555 461.26 262.248ZM476.037 264.752C477.688 263.655 479.118 262.651 479.217 262.52C479.316 262.389 477.916 261.256 476.107 260C472.579 257.554 470.937 257.84 473.524 260.451C474.514 261.45 474.714 262.907 474.066 264.391C473.061 266.688 473.109 266.697 476.037 264.752ZM496.122 276.642C496.618 275.984 496.666 275.174 496.226 274.843C495.787 274.511 495.022 274.779 494.525 275.438C494.028 276.097 493.981 276.907 494.42 277.238C494.859 277.569 495.625 277.301 496.122 276.642ZM485.371 267.646C485.805 267.071 485.78 265.61 485.315 264.399C484.851 263.188 485.01 261.482 485.67 260.608C486.985 258.864 486.926 258.722 484.638 258.065C482.476 257.444 482.058 259.679 483.425 264.559C484.156 267.17 484.873 268.307 485.371 267.646ZM481.787 252.47C484.745 248.548 484.282 248.375 480.408 251.952C478.636 253.589 477.915 254.769 478.443 255.168C478.903 255.514 480.407 254.3 481.787 252.47ZM450.97 229.123C451.605 228.741 451.448 229.327 450.62 230.425C449.792 231.522 449.272 231.834 449.465 231.119C449.657 230.403 450.334 229.504 450.97 229.123ZM492.822 261.399C492.421 260.734 491.71 260.243 491.245 260.309C490.78 260.374 491.109 260.917 491.976 261.518C492.935 262.181 493.267 262.134 492.822 261.399ZM488.403 256.646C489.341 254.733 487.101 252.067 485.898 253.663C485.415 254.302 485.614 255.577 486.339 256.495C487.323 257.739 487.848 257.778 488.403 256.646ZM478.696 249.095C478.756 248.451 478.647 247.806 478.453 247.659C478.259 247.513 477.829 247.753 477.498 248.192C477.167 248.631 477.277 249.278 477.742 249.628C478.206 249.979 478.636 249.739 478.696 249.095ZM496.277 255.513C497.67 254.39 498.381 253.203 498.097 252.474C497.841 251.817 498.15 250.868 498.782 250.367C499.415 249.866 499.577 249.613 499.141 249.806C498.705 249.998 498.153 249.652 497.913 249.036C497.639 248.331 497.204 248.694 496.736 250.02C496.14 251.714 495.665 251.874 494.298 250.842C493.364 250.138 492.554 250.065 492.496 250.681C492.439 251.297 493.07 251.995 493.897 252.233C494.844 252.506 495.14 253.534 494.697 255.011C494.002 257.324 494.023 257.331 496.277 255.513ZM482.904 246.007C484.028 244.516 483.975 244.143 482.669 244.326C481.362 244.509 481.04 244.935 481.224 246.242C481.407 247.549 481.78 247.497 482.904 246.007ZM479.907 244.999C480.238 244.559 480.15 243.929 479.711 243.598C479.272 243.267 478.641 243.355 478.31 243.794C477.979 244.233 478.067 244.864 478.506 245.195C478.945 245.526 479.576 245.438 479.907 244.999ZM469.822 234.172C471.134 234.191 472.145 233.765 472.069 233.225C471.994 232.685 470.881 232.391 469.598 232.571C466.574 232.994 466.733 234.126 469.822 234.172ZM482.168 242.001C482.499 241.562 482.568 240.349 482.322 239.305C482.072 238.247 481.608 237.761 481.272 238.206C480.941 238.645 480.872 239.858 481.118 240.902C481.368 241.96 481.832 242.446 482.168 242.001ZM458.375 218.176C458.661 217.178 459.076 217.12 459.626 218.001C460.078 218.725 460.206 219.638 459.91 220.03C459.044 221.178 457.907 219.805 458.375 218.176ZM449.461 210.428C450.84 210.241 450.862 210.401 449.571 211.213C448.677 211.773 447.896 211.88 447.836 211.449C447.775 211.018 448.506 210.559 449.461 210.428ZM503.457 250.309C504.559 248.848 504.367 246.332 503.165 246.5C502.203 246.634 500.847 250.772 501.584 251.327C501.971 251.619 502.814 251.162 503.457 250.309ZM495.008 242.494C496.735 241.665 498.096 240.626 498.035 240.184C497.973 239.742 497.606 239.8 497.22 240.312C496.062 241.847 494.976 240.269 495.725 238.141C496.109 237.053 495.888 235.759 495.234 235.265C494.197 234.483 494.375 234.262 496.626 233.531C498.045 233.071 499.751 231.962 500.416 231.066C501.415 229.721 501.333 229.546 499.947 230.053C498.565 230.558 498.494 230.394 499.542 229.12C500.241 228.27 501.779 226.893 502.958 226.061L505.103 224.547L503.526 226.802C501.784 229.295 503.232 231.324 505.667 229.804C507.541 228.634 507.826 230.19 506.184 232.612C501.781 239.102 501.398 239.915 502.395 240.666C502.985 241.112 504.601 241.259 505.986 240.994C508.378 240.537 508.477 240.367 507.989 237.59C507.432 234.436 508.979 233.107 511.23 234.805C513.218 236.304 518.573 235.529 519.352 233.629C519.712 232.75 521.255 229.448 522.78 226.294C524.307 223.139 525.377 220.423 525.159 220.259C524.752 219.953 518.346 220.989 512.347 222.33C510.482 222.747 508.615 223.531 508.197 224.072C507.696 224.719 507.48 224.446 507.566 223.273C507.676 221.751 507.54 221.693 506.629 222.879C506.042 223.644 505.264 224.042 504.899 223.767C504.535 223.492 502.994 223.881 501.476 224.63C499.958 225.379 497.276 226.487 495.517 227.092C492.64 228.08 492.338 228.419 492.512 230.462C492.626 231.794 491.834 233.628 490.596 234.899C489.435 236.09 489.153 236.582 489.968 235.991C491.964 234.546 493.22 235.651 491.769 237.574C491.042 238.538 491.182 239.753 492.142 240.817L493.677 242.518L491.799 241.272C489.49 239.74 488.101 241.159 490.292 242.811C491.247 243.531 493.107 243.406 495.008 242.494ZM508.136 247.427C508.486 246.963 508.247 246.533 507.603 246.473C506.959 246.413 506.313 246.523 506.167 246.717C506.021 246.911 506.261 247.34 506.7 247.671C507.139 248.002 507.785 247.892 508.136 247.427ZM489.865 232.555C490.426 232.337 490.689 231.657 490.451 231.045C490.213 230.432 489.596 230.492 489.08 231.176C488.022 232.579 488.345 233.146 489.865 232.555ZM477.044 212.763C480.031 208.808 482.527 205.947 482.592 206.405C482.656 206.864 482.53 207.325 482.31 207.43C482.091 207.535 481.682 208.981 481.4 210.644C481.082 212.523 480.361 213.792 479.495 213.997C478.727 214.177 476.721 215.652 475.034 217.275C473.349 218.897 471.889 220.163 471.792 220.09C471.694 220.016 474.058 216.72 477.044 212.763ZM510.707 241.299C511.456 240.83 511.721 240.185 511.296 239.865C510.871 239.544 510.116 239.82 509.619 240.479C509.122 241.137 508.857 241.783 509.03 241.913C509.202 242.043 509.957 241.767 510.707 241.299ZM514.802 241.779C515.465 240.82 515.419 240.488 514.684 240.932C514.019 241.334 513.528 242.045 513.593 242.51C513.658 242.975 514.202 242.646 514.802 241.779ZM476.395 208.084C476.76 207.572 476.005 207.453 474.717 207.818C472.765 208.374 472.538 208.269 473.353 207.188C474.65 205.468 478.579 206.858 478.406 208.975C478.209 211.38 477.533 211.901 476.583 210.379C476.115 209.629 476.031 208.597 476.395 208.084ZM485.827 213.9C486.398 213.142 489.075 214.563 488.981 215.574C488.924 216.19 488.138 216.135 487.234 215.454C486.33 214.772 485.696 214.072 485.827 213.9ZM483.955 208.493C485.29 208.306 485.886 210.689 484.627 211.178C483.879 211.469 483.443 211.119 483.302 210.113C483.186 209.288 483.48 208.559 483.955 208.493ZM505.617 217.01C507.795 216.705 511.332 215.996 513.478 215.435C515.623 214.873 517.769 214.703 518.247 215.058C519.144 215.723 522.997 214.268 524.944 212.528C525.553 211.984 527.155 210.886 528.503 210.088C531.005 208.61 533.383 204.997 535.316 199.738C535.911 198.12 537.586 194.72 539.037 192.184C540.49 189.647 541.54 187.216 541.371 186.783C540.941 185.676 516.03 187.125 511.451 188.524C507.639 189.688 501.713 195.061 503.092 196.101C503.502 196.41 504.108 196.304 504.439 195.864C504.771 195.425 505.401 195.337 505.84 195.668C506.279 195.999 506.127 196.948 505.503 197.776C504.878 198.604 504.135 200.65 503.853 202.324C503.57 203.996 502.824 205.687 502.195 206.079C501.567 206.472 501.212 208.362 501.408 210.28C501.667 212.849 502.35 214.01 503.993 214.687C505.547 215.326 505.84 215.755 504.957 216.098C504.26 216.37 503.172 216.202 502.539 215.724C501.906 215.247 501.117 215.216 500.786 215.655C499.722 217.065 501.554 217.579 505.617 217.01ZM482.265 199.699C482.702 198.177 487.769 199.185 487.622 200.763C487.564 201.383 486.657 201.306 485.604 200.592C484.201 199.64 483.99 199.672 484.813 200.713C485.43 201.494 485.7 202.443 485.414 202.822C484.641 203.846 481.864 201.093 482.265 199.699ZM479.237 196.897C479.296 196.253 479.927 196.164 480.637 196.7C481.348 197.236 481.436 197.866 480.833 198.101C480.231 198.335 479.6 198.424 479.433 198.297C479.265 198.171 479.177 197.54 479.237 196.897ZM471.927 188.043C472.44 187.972 473.255 187.39 473.737 186.75C474.448 185.808 474.247 185.605 472.667 185.679C471.596 185.729 470.482 186.085 470.191 186.47C469.568 187.297 470.597 188.23 471.927 188.043ZM505.155 203.219C505.671 202.535 506.286 202.467 506.52 203.07C506.754 203.673 506.692 204.503 506.38 204.917C506.068 205.331 505.454 205.397 505.015 205.066C504.576 204.735 504.639 203.903 505.155 203.219ZM591.219 264.151C592.049 264.036 593.517 267.079 592.977 267.795C592.678 268.191 592.062 267.547 591.608 266.364C591.154 265.181 590.979 264.185 591.219 264.151ZM482.139 178.24C482.407 177.31 482.956 176.502 483.359 176.445C483.762 176.389 483.776 176.762 483.39 177.274C483.003 177.787 483.247 178.629 483.932 179.145C484.616 179.661 484.683 180.275 484.081 180.51C482.445 181.146 481.592 180.148 482.139 178.24ZM518.2 202.981C518.664 202.916 519.375 203.407 519.777 204.072C520.222 204.807 519.89 204.853 518.931 204.19C518.063 203.59 517.735 203.046 518.2 202.981ZM471.525 160.393C471.768 159.543 471.865 158.771 471.74 158.676C471.614 158.582 470.898 158.887 470.148 159.355C469.326 159.868 469.241 160.549 469.933 161.071C470.625 161.593 471.257 161.324 471.525 160.393ZM466.76 151.163C467.091 150.724 466.845 149.974 466.212 149.497C465.578 149.019 464.568 148.821 463.965 149.055C463.363 149.29 463.61 150.04 464.514 150.721C465.418 151.403 466.429 151.602 466.76 151.163ZM498.615 163.677C501.263 160.229 500.862 158.155 497.721 159.045C495.12 159.783 494.157 160.686 495.426 161.197C495.917 161.396 496.33 162.693 496.343 164.081C496.367 166.49 496.469 166.472 498.615 163.677ZM475.765 149.187C476.096 148.748 476.008 148.118 475.569 147.786C475.13 147.455 474.5 147.544 474.168 147.983C473.837 148.422 473.926 149.052 474.365 149.383C474.804 149.714 475.434 149.626 475.765 149.187ZM506.204 166.224C507.671 165.628 508.031 164.892 507.742 163.073C507.421 161.039 507.039 160.696 505.086 160.682C503.273 160.669 502.762 161.099 502.6 162.776C502.32 165.654 503.895 167.16 506.204 166.224ZM463.816 130.155C464.148 129.716 464.799 129.644 465.264 129.994C465.729 130.344 465.617 130.824 465.014 131.058C464.411 131.292 463.76 131.365 463.566 131.219C463.372 131.072 463.485 130.594 463.816 130.155ZM495.937 146.676C497.188 146.19 499.898 148.308 499.771 149.674C499.715 150.275 498.62 149.928 497.338 148.902C496.056 147.877 495.426 146.876 495.937 146.676ZM489.588 140.824C489.919 140.385 490.571 140.313 491.035 140.664C491.5 141.014 491.388 141.493 490.785 141.727C490.183 141.962 489.532 142.035 489.338 141.888C489.144 141.742 489.257 141.263 489.588 140.824ZM497.535 140.252C497.863 139.817 498.708 140.19 499.413 141.083C500.119 141.974 500.941 142.379 501.241 141.98C501.541 141.583 502.326 141.664 502.984 142.16C503.643 142.657 504.529 142.603 504.954 142.039C505.463 141.365 507.048 141.956 509.599 143.77C511.729 145.285 512.798 146.295 511.975 146.016C508.026 144.673 507.513 144.458 507.673 144.212C507.767 144.067 506.222 143.921 504.237 143.888C500.507 143.826 496.484 141.644 497.535 140.252ZM519.441 143.856C520.415 143.248 520.833 143.523 521.475 145.194C522.585 148.087 521.865 148.654 519.875 146.455C518.832 145.304 518.672 144.336 519.441 143.856ZM497.615 129.766C498.331 129.958 499.229 130.635 499.611 131.272C499.992 131.906 499.407 131.749 498.309 130.921C497.212 130.093 496.899 129.573 497.615 129.766ZM489.642 120.824L492.12 121.69L489.984 119.955C488.81 119.001 487.578 118.579 487.247 119.018C486.915 119.457 486.762 119.848 486.904 119.887C487.047 119.926 488.279 120.348 489.642 120.824ZM503.1 125.127C503.615 125.054 503.958 123.791 503.861 122.319C503.7 119.865 503.765 119.929 504.652 123.092C505.52 126.188 505.839 126.511 507.761 126.242C508.94 126.077 510.245 126.489 510.663 127.158C511.081 127.827 511.894 128.191 512.471 127.967C513.047 127.743 514.071 127.977 514.748 128.487C515.424 128.997 517.486 129.768 519.33 130.201C521.175 130.633 524.834 131.873 527.461 132.957C533.501 135.446 555.121 141.924 556.667 141.708C563.926 140.691 541.04 121.579 517.841 109.284C510.981 105.648 505.224 102.695 505.045 102.72C504.865 102.745 504.704 103.806 504.685 105.078C504.661 106.723 505.646 108.135 508.097 109.968C510.505 111.77 510.926 112.364 509.495 111.939C507.465 111.339 507.147 111.509 504.494 114.625C503.54 115.746 502.86 115.806 502.246 114.821C501.71 113.964 501.32 113.897 501.25 114.649C501.186 115.329 501.825 116.084 502.668 116.326C503.511 116.569 504.422 117.333 504.691 118.026C504.999 118.817 504.394 118.944 503.065 118.369L500.948 117.452L501.182 121.074C501.432 124.927 501.625 125.333 503.1 125.127ZM490.841 114.252C491.161 113.828 491.807 114.093 492.275 114.842C492.743 115.592 493.019 116.346 492.889 116.519C492.759 116.691 492.114 116.426 491.455 115.929C490.796 115.432 490.52 114.678 490.841 114.252ZM509.053 116.677C509.384 116.238 510.036 116.165 510.501 116.516C510.965 116.866 510.853 117.346 510.251 117.58C509.648 117.814 508.997 117.887 508.803 117.741C508.609 117.594 508.722 117.116 509.053 116.677ZM514.381 119.577C515.083 118.646 518.082 119.52 518.58 120.801C519.332 122.732 517.812 123.283 515.839 121.795C514.741 120.967 514.085 119.969 514.381 119.577ZM521.663 124.174C521.169 123.384 521.143 122.236 521.604 121.625C522.634 120.259 523.642 120.916 523.956 123.157C524.384 126.213 523.25 126.717 521.663 124.174ZM498.745 92.9784C502.219 94.4887 502.895 93.5814 502.104 88.4742C501.237 82.8815 497.896 75.0048 496.934 76.2814C496.597 76.7277 496.692 77.6848 497.144 78.409C497.596 79.1318 497.233 81.8923 496.34 84.5423C495.446 87.1923 495.104 89.9855 495.581 90.7504C496.059 91.5153 496.541 92.1446 496.654 92.1495C496.766 92.1538 497.707 92.5276 498.745 92.9784ZM487.319 84.4973C487.784 84.4322 488.494 84.9231 488.896 85.588C489.341 86.3232 489.009 86.3697 488.05 85.7065C487.183 85.1062 486.854 84.5625 487.319 84.4973ZM507.604 98.6345C508.611 97.3546 516.786 100.854 519.344 103.66C520.617 105.056 522.992 106.575 524.624 107.036C527.898 107.961 528.702 108.399 539.153 114.963C544.522 118.335 547.71 121.024 551.562 125.427C557.883 132.654 557.829 132.612 557.717 130.214C557.667 129.146 556.557 126.815 555.248 125.034C553.94 123.253 553.268 121.642 553.755 121.452C554.241 121.263 555.086 121.8 555.632 122.645C556.904 124.615 554.697 114.853 551.76 105.521L549.493 98.3106L539.44 89.4459C533.911 84.5705 527.84 78.8963 525.951 76.8348C524.061 74.7741 519.455 70.4185 515.716 67.1552C511.977 63.8919 507.786 59.9194 506.404 58.3273L503.89 55.4329L500.105 60.4515C495.845 66.0992 495.926 66.7149 501.378 70.1794C503.61 71.5974 504.992 73.1345 505.169 74.3964C505.322 75.4874 506.277 77.0158 507.292 77.7912C508.305 78.5667 509.412 79.9561 509.749 80.8784C510.274 82.3114 510.159 82.4047 508.957 81.5142C507.218 80.2264 506.343 81.2378 506.956 83.8303C507.209 84.9072 506.972 85.7829 506.427 85.7772C505.882 85.7714 505.78 88.8445 506.201 92.6063C506.622 96.368 507.252 99.0807 507.604 98.6345ZM568.992 139.338C569.595 139.104 569.707 138.625 569.242 138.274C568.777 137.924 568.126 137.996 567.794 138.435C567.463 138.874 567.35 139.353 567.544 139.499C567.738 139.645 568.389 139.573 568.992 139.338ZM524.404 102.966C525.196 101.916 526.515 103.942 526.012 105.435C525.767 106.166 525.267 106.068 524.715 105.184C524.221 104.392 524.081 103.395 524.404 102.966ZM565.513 130.302C565.312 127.823 564.803 121.707 564.382 116.712C563.47 105.925 565.2 89.7209 568.058 82.2696C572.258 71.3201 572.859 67.9365 571.274 64.1464C569.583 60.1014 563.219 53.301 561.168 53.3491C560.45 53.3662 557.642 52.6472 554.928 51.7515C548.398 49.5955 544.877 45.9739 543.254 39.7451L541.952 34.7424L535.038 34.4188C525.971 33.9955 517.645 37.1955 513.493 42.7004C511.624 45.1793 511.01 46.6163 511.789 46.6878C512.554 46.759 512.332 47.3792 511.192 48.3557C510.194 49.211 508.329 51.0924 507.047 52.5372L504.719 55.1647L516.689 65.0346C523.272 70.4634 533.079 79.1035 538.483 84.2349C543.885 89.3664 548.468 93.5424 548.666 93.5139C548.865 93.4861 548.225 88.0129 547.244 81.3509C545.592 70.1466 545.054 68.5897 540.077 60.5961C537.118 55.8427 533.825 50.4934 532.76 48.7083C531.696 46.9224 530.07 44.3042 529.147 42.8883C528.226 41.4731 527.775 40.2724 528.147 40.2196C528.518 40.1682 532.227 45.2565 536.388 51.5273C540.549 57.7981 544.469 63.6665 545.098 64.568C545.926 65.7522 546.255 64.1681 546.29 58.8452C546.316 54.7967 546.176 50.9693 545.978 50.3401C545.778 49.7112 546.128 49.1295 546.755 49.0474C547.38 48.9655 548.291 53.1448 548.779 58.3351C549.788 69.0789 550.84 69.6377 556.167 62.2575C557.98 59.7435 559.993 57.8658 560.99 57.7539C562.356 57.6017 561.505 58.9854 556.773 64.6101C551.184 71.2539 550.875 71.839 551.389 74.823L551.934 77.9883L554.1 76.6217C555.291 75.8693 558.391 73.7577 560.991 71.9297C568.538 66.6226 569.916 66.0581 566.375 69.7274C564.643 71.5215 560.757 74.7043 557.74 76.8L552.253 80.6112L553.052 86.729C553.492 90.094 554.188 93.1016 554.6 93.4123C555.013 93.7237 555.936 96.3926 556.652 99.3439C557.369 102.296 558.185 104.884 558.466 105.096C559.284 105.713 561.537 114.933 563.156 124.29C564.835 133.999 566.064 137.132 565.513 130.302ZM530.971 99.2413C531.302 98.8022 531.765 98.9358 531.999 99.5384C532.234 100.141 532.155 100.993 531.823 101.432C531.492 101.871 531.029 101.738 530.795 101.135C530.561 100.533 530.64 99.6804 530.971 99.2413ZM504.512 79.8301C504.11 79.1652 503.399 78.6743 502.934 78.7394C502.469 78.8046 502.798 79.3482 503.666 79.9486C504.625 80.6118 504.957 80.5653 504.512 79.8301ZM526.171 93.6961C525.688 91.1712 526.812 88.7368 528.034 89.6587C528.708 90.1669 528.704 95.6039 528.028 96.4997C527.421 97.3053 526.635 96.1174 526.171 93.6961Z" fill="#276555"/>
</svg>
