<svg width="113" height="104" viewBox="0 0 113 104" fill="none" xmlns="http://www.w3.org/2000/svg">
<path fill-rule="evenodd" clip-rule="evenodd" d="M25.1929 93.6372C27.637 93.3943 30.2523 92.2331 33.2777 90.0473C36.5164 87.7072 39.7102 86.2633 43.0387 85.6342C45.3744 85.1925 45.804 85.217 57.7656 86.473C64.1141 87.1396 66.8844 87.1649 72.8409 86.6099C83.6967 85.5987 95.0549 82.1754 104.408 77.0957C113.044 72.4052 118.968 67.5813 124.39 60.8246C132.695 50.4744 139.093 36.5688 142.552 21.3529C143.513 17.126 144.57 6.44257 144.384 2.83378C143.856 -7.42787 141.391 -15.1314 136.689 -21.2221C132.96 -26.051 126.21 -30.4371 118.824 -32.8299C105.923 -37.0098 87.779 -36.7581 70.8312 -32.1642C62.5884 -29.93 52.3106 -25.3353 46.8384 -21.4389C28.4275 -8.32826 15.8081 16.2342 15.2037 40.1353C15.1324 42.955 14.9175 46.0863 14.7257 47.094C13.8552 51.6728 11.5529 55.7333 7.88304 59.1621C4.00618 62.7845 2.13407 66.5601 2.10883 70.8076C2.09522 73.0805 2.80805 75.9583 3.86851 77.9126C5.08892 80.1613 13.4741 89.9541 15.1939 91.139C17.9022 93.0047 21.7869 93.9752 25.1929 93.6372ZM20.1282 84.8256C18.805 84.065 11.0334 74.7715 10.4676 73.2737C10.1734 72.4943 10.1022 71.6223 10.2263 70.316C10.4344 68.125 10.9031 67.2927 13.0161 65.362C15.5087 63.0845 17.0685 61.1714 18.8411 58.2172L20.5478 55.3731L21.4521 55.8497C25.9235 58.2077 32.5754 64.866 35.8159 70.2281C37.1317 72.4053 39.6115 77.5121 39.5711 77.9614C39.5601 78.0837 39.0875 78.3266 38.5211 78.5017C34.8141 79.6464 31.673 81.2707 28.2859 83.7939C27.2158 84.5911 26.3161 85.2429 26.2865 85.2424C26.2569 85.2419 25.7398 85.3769 25.1374 85.5422C23.7518 85.9224 21.467 85.5956 20.1282 84.8256ZM51.3329 77.7154L47.7629 77.2157L46.6414 74.2592C43.226 65.2566 36.8465 57.0285 28.7164 51.1398C27.3116 50.1223 25.426 48.8959 24.5259 48.4141L22.8894 47.5386L23.0375 43.228C23.1192 40.8574 23.3547 37.1912 23.5611 35.0811C25.279 17.5153 34.3317 -0.288639 47.3549 -11.7143C48.5458 -12.759 50.12 -14.0305 50.8533 -14.5398L52.1863 -15.466L55.154 -14.41C59.4696 -12.8745 64.1761 -10.5679 68.6416 -7.8004C73.9623 -4.50283 76.4562 -2.58114 84.5568 4.46332C85.4393 5.23099 85.9287 5.45408 86.9255 5.54366C89.1085 5.73986 91.067 4.13158 91.2609 1.98303C91.4272 0.145336 90.4644 -1.09212 85.7246 -5.1342C78.2503 -11.5082 71.1182 -16.0941 62.1536 -20.2901C61.7302 -20.4883 61.9785 -20.6651 63.58 -21.3059C84.3684 -29.6245 109.761 -30.0331 123.298 -22.2668C132.095 -17.2192 136.35 -8.49181 136.422 4.65388C136.432 6.34291 136.28 9.08143 136.086 10.7394L135.733 13.7542L133.759 10.5303C131.097 6.18054 127.723 1.37081 124.85 -2.17176C122.893 -4.5846 122.297 -5.15034 121.472 -5.37906C119.374 -5.96074 116.932 -4.65243 116.365 -2.64365C115.924 -1.08363 116.43 0.058501 119.006 3.32888C124.299 10.0457 127.945 15.8005 131.441 22.9529L133.07 26.2857L132.361 28.5343C130.078 35.7817 126.239 43.9643 122.14 50.321C117.635 57.3079 113.152 62.0043 106.987 66.1935C103.986 68.2326 99.531 70.8657 99.3842 70.6867C99.3363 70.6282 98.9183 69.1654 98.4547 67.4355C95.2094 55.3218 88.8009 42.8246 79.8091 31.0744C76.751 27.0781 75.9179 26.3495 74.267 26.2262C72.0351 26.0595 70.2776 27.4785 70.0869 29.6012C69.9354 31.2865 70.2245 31.8791 72.735 35.0277C81.6463 46.205 88.1541 58.8422 90.9772 70.4516C91.4082 72.225 91.7495 73.8056 91.7353 73.964C91.6985 74.3725 85.8828 76.1843 81.2594 77.2271C75.6293 78.4972 69.3835 79.1052 62.8415 79.0203C61.3769 79.0014 56.8617 78.4893 51.3329 77.7154ZM70.6261 69.9078C72.2995 69.3242 73.5027 67.375 73.2699 65.625C73.1321 64.5879 70.668 59.9518 68.071 55.8434C64.2352 49.7745 58.8558 42.8561 53.702 37.3635C48.705 32.0382 40.6276 25.0033 38.855 24.4329C36.2688 23.6005 33.4778 25.7868 33.7335 28.4447C33.8817 29.9864 34.3998 30.6543 37.1928 32.9034C47.7803 41.4293 57.6352 53.1463 64.2317 65.0521C65.3526 67.0749 66.5562 68.957 66.9065 69.2343C67.8005 69.9416 69.5962 70.2669 70.6261 69.9078ZM116.043 44.9344C117.162 44.4137 118.297 42.8547 118.402 41.6953C118.54 40.1498 114.476 31.1641 110.808 24.9053C109.372 22.4543 108.626 21.4582 107.877 20.9873C105.209 19.31 101.796 21.2455 101.867 24.395C101.886 25.2324 102.21 26.0744 103.051 27.4663C105.619 31.7168 108.341 37.1042 110.297 41.8088C110.961 43.4034 111.393 44.0481 112.152 44.5735C113.4 45.4375 114.702 45.5583 116.043 44.9344Z" fill="#276555"/>
</svg>
