<svg width="92" height="134" viewBox="0 0 92 134" fill="none" xmlns="http://www.w3.org/2000/svg">
<path fill-rule="evenodd" clip-rule="evenodd" d="M67.3101 2.97144C64.9939 3.35233 62.5704 4.61986 59.8182 6.89009C56.872 9.32059 53.9141 10.8932 50.7779 11.6966C48.5772 12.2605 48.166 12.2634 36.6813 11.7947C30.5859 11.546 27.9422 11.6909 22.2952 12.5839C12.0033 14.2111 1.3794 18.1705 -7.2315 23.5882C-15.1821 28.5906 -20.5379 33.5549 -25.2968 40.3328C-32.5865 50.7154 -37.8412 64.3742 -40.2124 79.1038C-40.8712 83.1957 -41.2279 93.454 -40.8305 96.886C-39.7008 106.645 -36.8809 113.845 -32.0247 119.37C-28.1743 123.75 -21.4689 127.523 -14.2789 129.356C-1.71967 132.557 15.5691 131.21 31.4526 125.792C39.1779 123.158 48.7 118.147 53.6814 114.095C70.4412 100.462 80.9794 76.2548 80.0987 53.412C79.9948 50.7173 80.0089 47.7163 80.1303 46.7431C80.6815 42.321 82.6297 38.3062 85.9207 34.8106C89.3974 31.1176 90.9527 27.4008 90.7178 23.3464C90.5922 21.1769 89.7369 18.4744 88.6064 16.6743C87.3054 14.6031 78.7111 5.77072 76.9987 4.74511C74.302 3.13017 70.5379 2.44117 67.3101 2.97144ZM72.6777 11.0702C73.986 11.7152 81.9645 20.1087 82.5955 21.5033C82.9236 22.229 83.0446 23.0567 83.0059 24.3107C82.941 26.4141 82.5447 27.2368 80.6472 29.208C78.4087 31.5331 77.0378 33.4538 75.5273 36.3808L74.0729 39.1986L73.1814 38.7991C68.7732 36.8219 62.0232 30.8746 58.6057 25.956C57.2181 23.9589 54.5417 19.2374 54.5528 18.8062C54.5559 18.6888 54.9918 18.4282 55.5213 18.2265C58.987 16.9081 61.8837 15.1666 64.9603 12.5524C65.9323 11.7264 66.7506 11.0496 66.7789 11.0483C66.8072 11.047 67.2921 10.8866 67.8565 10.6921C69.1548 10.2448 71.3538 10.4172 72.6777 11.0702ZM43.3503 19.7585L46.7855 20.0175L48.0354 22.7701C51.8416 31.1518 58.4274 38.6135 66.5404 43.7364C67.9422 44.6215 69.8153 45.6767 70.7032 46.0815L72.3173 46.817L72.4388 50.9391C72.5055 53.206 72.5044 56.7186 72.4361 58.7446C71.8686 75.6102 64.3201 93.1506 52.596 104.847C51.5239 105.917 50.1001 107.226 49.4317 107.757L48.2169 108.722L45.3221 107.895C41.1126 106.693 36.4833 104.78 32.0557 102.412C26.7801 99.5897 24.2844 97.9083 16.1292 91.6809C15.2408 91.0022 14.7604 90.8192 13.8043 90.7946C11.7103 90.7405 9.94046 92.3946 9.88652 94.4565C9.84001 96.2202 10.8337 97.3422 15.6006 100.91C23.1176 106.536 30.1993 110.476 39.0049 113.933C39.4207 114.096 39.1948 114.28 37.7064 114.989C18.387 124.195 -5.80599 126.134 -19.1895 119.55C-27.8879 115.27 -32.478 107.202 -33.348 94.6636C-33.4598 93.0525 -33.4824 90.4302 -33.3984 88.8364L-33.2455 85.9382L-31.1667 88.894C-28.3618 92.8819 -24.8509 97.2654 -21.8947 100.47C-19.8813 102.653 -19.2787 103.157 -18.4776 103.325C-16.4415 103.752 -14.1922 102.354 -13.7737 100.403C-13.4488 98.8875 -14.0002 97.8285 -16.6573 94.8652C-22.1144 88.7791 -25.9429 83.5105 -29.7126 76.8992L-31.4694 73.8185L-30.9306 71.6297C-29.1947 64.5751 -26.0322 56.5333 -22.5108 50.2178C-18.6402 43.2762 -14.6505 38.5214 -9.02638 34.1481C-6.28878 32.0193 -2.20017 29.2351 -2.04925 29.3969C-2.00002 29.4498 -1.51209 30.8201 -0.964564 32.4424C2.86905 43.803 9.74296 55.3365 19.035 65.9996C22.1952 69.6262 23.0341 70.2705 24.6162 70.2874C26.755 70.3103 28.3447 68.8491 28.3972 66.8121C28.4389 65.1948 28.1271 64.647 25.5408 61.7959C16.3604 51.6745 9.38329 40.0134 5.98314 29.1083C5.46394 27.4425 5.04209 25.9551 5.04601 25.8031C5.05612 25.4111 10.4923 23.3275 14.8382 22.0504C20.1303 20.495 26.0501 19.5338 32.2946 19.2156C33.6925 19.1443 38.03 19.3574 43.3503 19.7585ZM25.4257 28.3855C23.8653 29.0445 22.8366 30.9778 23.1653 32.6333C23.36 33.6145 25.9927 37.8878 28.72 41.6495C32.7483 47.2062 38.3005 53.4794 43.5508 58.4058C48.6412 63.1822 56.7737 69.4019 58.499 69.838C61.0163 70.4745 63.5449 68.218 63.139 65.6975C62.9036 64.2355 62.3688 63.6298 59.568 61.6542C48.9505 54.165 38.8374 43.5863 31.8202 32.6285C30.6279 30.7668 29.3652 29.0444 29.0143 28.8012C28.1185 28.1809 26.3861 27.9801 25.4257 28.3855ZM-16.3673 54.9855C-17.403 55.5507 -18.3905 57.1075 -18.4192 58.2201C-18.4575 59.7033 -14.0338 68.0292 -10.1535 73.7774C-8.63416 76.0284 -7.86269 76.9334 -7.11973 77.337C-4.47259 78.7747 -1.33491 76.7196 -1.59491 73.7187C-1.66408 72.9208 -2.02501 72.1373 -2.91198 70.8604C-5.61997 66.9614 -8.54431 61.9869 -10.6971 57.6174C-11.4267 56.1363 -11.8784 55.5475 -12.634 55.0924C-13.8768 54.3441 -15.1263 54.3084 -16.3673 54.9855Z" fill="#276555"/>
</svg>
