<svg width="133" height="133" viewBox="0 0 133 133" fill="none" xmlns="http://www.w3.org/2000/svg">
<path fill-rule="evenodd" clip-rule="evenodd" d="M5.84282 54.7558C6.83045 57.0046 8.74423 59.1319 11.7593 61.332C14.9871 63.6872 17.3488 66.277 18.9776 69.2472C20.1206 71.3314 20.2303 71.7475 22.7392 83.5103C24.0707 89.7532 24.9043 92.3953 27.2761 97.8873C31.5985 107.897 38.3699 117.637 46.0958 124.958C53.2295 131.718 59.6504 135.858 67.7537 138.921C80.1664 143.614 95.3698 145.393 110.909 143.971C115.226 143.576 125.711 141.274 129.085 139.98C138.679 136.3 145.241 131.572 149.577 125.215C153.014 120.174 155.095 112.398 155.084 104.634C155.064 91.0726 149.208 73.8982 139.593 59.2053C134.916 52.0591 127.366 43.7088 121.966 39.7117C103.8 26.2642 76.5377 21.8689 53.6236 28.6938C50.9205 29.499 47.8765 30.264 46.8589 30.3936C42.2355 30.9834 37.6618 30.0513 33.2653 27.6233C28.6206 25.0583 24.4509 24.4471 20.4043 25.738C18.2389 26.4288 15.7231 27.9975 14.1931 29.6109C12.4327 31.4675 5.71696 42.4725 5.12276 44.4746C4.18719 47.6275 4.46702 51.6217 5.84282 54.7558ZM12.6536 47.2119C12.9671 45.7183 19.3981 35.4513 20.6471 34.4496C21.2971 33.9286 22.1042 33.591 23.3848 33.3045C25.5326 32.8241 26.4691 33.0121 28.9591 34.4236C31.8964 36.0887 34.1984 36.9795 37.5563 37.7504L40.7889 38.4928L40.6158 39.5002C39.7578 44.4819 35.486 52.8684 31.3907 57.6097C29.7278 59.5349 25.6396 63.4738 25.1998 63.5745C25.0801 63.6019 24.7029 63.2278 24.361 62.7435C22.1248 59.5729 19.608 57.089 16.1601 54.6495C15.0708 53.8787 14.1724 53.225 14.1638 53.1967C14.1551 53.1684 13.8666 52.7185 13.523 52.1969C12.7325 50.9971 12.3359 48.7234 12.6536 47.2119ZM29.0751 74.6823L28.445 71.1331L30.909 69.1513C38.4119 63.1166 44.2608 54.5033 47.3432 44.9494C47.8758 43.2987 48.4582 41.126 48.6377 40.121L48.9635 38.2938L53.1082 37.1002C55.3876 36.4439 58.9466 35.5329 61.0169 35.0759C78.2515 31.2712 97.9834 34.3673 112.88 43.2134C114.242 44.0224 115.938 45.1255 116.649 45.6652L117.943 46.646L117.857 49.7948C117.733 54.3738 116.997 59.5631 115.748 64.666C114.26 70.7462 113.205 73.7125 109.014 83.596C108.557 84.6728 108.497 85.2072 108.72 86.1828C109.209 88.3193 111.345 89.6837 113.448 89.2029C115.247 88.792 116.125 87.4934 118.502 81.7351C122.248 72.6547 124.401 64.4533 125.616 54.6301C125.673 54.1662 125.918 54.3474 127.023 55.672C141.369 72.8637 149.619 96.8825 146.425 112.158C144.349 122.086 137.367 128.834 124.89 132.972C123.287 133.504 120.636 134.208 118.999 134.537L116.023 135.134L118.478 132.26C121.789 128.381 125.318 123.684 127.797 119.855C129.486 117.247 129.839 116.506 129.801 115.65C129.705 113.476 127.705 111.558 125.619 111.641C124 111.705 123.07 112.539 120.758 116.002C116.01 123.114 111.666 128.363 105.948 133.901L103.283 136.482L100.925 136.504C93.327 136.576 84.358 135.459 77.0447 133.53C69.0063 131.409 63.1527 128.6 57.2607 124.035C54.3928 121.813 50.5098 118.392 50.6345 118.197C50.6753 118.133 51.9369 117.283 53.4383 116.307C63.9521 109.47 73.8514 99.5077 82.2405 87.3201C85.0938 83.175 85.5286 82.1573 85.1347 80.5493C84.6023 78.3755 82.7089 77.1436 80.6315 77.6193C78.9821 77.9971 78.5081 78.4554 76.2914 81.8173C68.4221 93.7512 58.4204 103.852 48.2554 110.13C46.7025 111.089 45.3052 111.903 45.1503 111.938C44.7504 112.03 41.2272 107.061 38.8042 102.987C35.8536 98.0272 33.3418 92.2764 31.3971 86.0296C30.9618 84.6311 30.0508 80.1791 29.0751 74.6823ZM42.472 90.6106C43.545 92.021 45.771 92.5617 47.3629 91.7985C48.3063 91.3465 51.9519 87.5681 55.0544 83.8268C59.6376 78.3006 64.5508 71.0437 68.178 64.4425C71.6946 58.0424 75.8832 48.1839 75.8768 46.3219C75.8677 43.605 72.9247 41.628 70.4765 42.6939C69.0565 43.3122 68.5818 44.0116 67.3078 47.3636C62.4786 60.0706 54.3882 73.0687 45.1095 83.0271C43.5331 84.7191 42.1162 86.4463 41.9609 86.8652C41.5651 87.9342 41.8118 89.7424 42.472 90.6106ZM80.279 126.065C81.1207 126.968 82.9545 127.564 84.0892 127.305C85.6018 126.958 92.8878 120.312 97.7035 114.886C99.5893 112.761 100.306 111.744 100.522 110.887C101.291 107.83 98.3933 105.183 95.4205 106.226C94.6302 106.504 93.9301 107.073 92.8669 108.304C89.6202 112.061 85.34 116.317 81.4724 119.634C80.1614 120.758 79.6822 121.369 79.4175 122.253C78.9822 123.707 79.2706 124.983 80.279 126.065Z" fill="#276555"/>
</svg>
