<svg width="781" height="783" viewBox="0 0 781 783" fill="none" xmlns="http://www.w3.org/2000/svg">
<path fill-rule="evenodd" clip-rule="evenodd" d="M309.781 138.489C308.686 141.752 308.565 149.032 309.51 154.666C310.458 160.301 310.178 163.696 308.891 162.206C307.605 160.719 304.872 160.319 302.823 161.32C300.771 162.319 296.25 162.596 292.773 161.933C279.001 159.305 275.274 161.617 271.404 175.177C268.082 186.813 267.237 187.84 261.469 187.254C258.001 186.9 251.709 185.124 247.485 183.307C243.263 181.492 239.427 180.95 238.962 182.103C238.496 183.258 232.713 184.512 226.107 184.891C212.482 185.673 212.397 185.709 206.472 192.92C204.073 195.84 202.047 197.073 201.969 195.66C201.714 190.927 190.129 194.686 186.873 200.556C184.297 205.203 184.521 207.849 188.108 215.129C190.518 220.019 192.367 226.032 192.216 228.493C191.734 236.333 219.509 298.554 223.475 298.52C224.611 298.509 226.212 300.838 227.03 303.694C228.959 310.433 265.562 336.592 285.784 345.687L300.521 352.315L292.529 345.45C288.133 341.674 282.559 338.294 280.139 337.937C274.452 337.1 262.376 326.213 262.937 322.427C263.18 320.788 266.613 321.189 270.857 323.355L278.347 327.18L274.534 320.317C271.491 314.846 269.562 313.661 265.007 314.47C261.867 315.027 259.431 314.576 259.595 313.467C259.759 312.358 264.43 311.449 269.976 311.45C275.521 311.449 280.157 310.779 280.278 309.963C280.401 309.146 277.863 305.313 274.642 301.446C263.197 287.704 269.452 293.218 294.797 319.218C325.538 350.753 327.196 352.137 326.632 345.791C326.405 343.235 325.189 340.26 323.929 339.18C322.669 338.1 320.895 331.304 319.983 324.076C318.72 314.055 319.101 311.648 321.589 313.938C323.667 315.849 325.947 323.14 327.864 333.999C329.52 343.383 331.883 353.038 333.114 355.453C334.347 357.868 343.377 370.475 353.184 383.469C362.99 396.463 370.475 407.822 369.818 408.711C369.161 409.603 369.444 411.998 370.449 414.037C371.848 416.875 370.387 418.472 364.21 420.862C359.667 422.623 355.887 425.729 355.553 427.984C355.227 430.182 354.194 432.361 353.259 432.822C352.323 433.283 352.241 431.268 353.077 428.34C355.298 420.571 350.881 420.038 330.597 425.629C306.024 432.406 305.034 432.069 325.081 423.761C341.207 417.073 349.144 415.084 361.179 414.716C363.491 414.644 359.737 413.683 352.832 412.575C345.928 411.468 336.677 411.663 332.276 413.007C327.873 414.35 324.216 414.427 324.148 413.176C324.08 411.925 321.017 410.656 317.34 410.354C313.664 410.054 304.599 407.716 297.199 405.161C273.475 396.97 247.684 392.444 244.454 395.903C242.812 397.66 242.379 399.88 243.494 400.837C244.608 401.791 244.796 402.93 243.91 403.367C241.97 404.323 236.196 400.646 234.345 397.277C233.612 395.94 230.328 395.778 227.047 396.913C222.081 398.635 220.581 401.748 218.079 415.542C216.242 425.649 212.354 435.878 208.102 441.792C204.27 447.122 201.079 450.436 201.008 449.159C200.911 447.364 187.57 444.759 180.913 445.236C176.118 445.577 152.037 441.094 150.753 439.622C149.85 438.585 147.929 438.322 146.482 439.035C143.864 440.325 118.454 431.959 115.565 428.857C114.733 427.965 113.04 427.734 111.802 428.345C110.562 428.956 106.361 427.578 102.465 425.281C98.5699 422.987 94.7164 421.414 93.9021 421.784C93.0891 422.157 88.7624 420.446 84.2846 417.983C79.8068 415.519 74.5235 412.915 72.5433 412.193C70.5615 411.472 66.8413 410.009 64.2783 408.944C60.0706 407.194 59.9684 407.722 63.2389 414.359C66.3308 420.632 70.2921 423.144 90.1767 431.445C118.499 443.269 156.633 453.553 180.828 455.891C190.689 456.844 199.132 457.751 199.587 457.904C202.24 458.8 201.997 477.259 199.28 481.145C197.497 483.694 195.442 489.161 194.713 493.295C193.433 500.551 193.865 501.68 207.355 526.336C218.37 546.47 222.26 552.196 225.761 553.437C228.204 554.301 233.522 559.561 237.581 565.124C245.358 575.784 262.446 585.618 268.233 582.766C269.839 581.974 273.879 583.252 277.209 585.603C283.383 589.962 286.251 589.034 297.129 579.144C301.26 575.389 302.52 575.863 313.925 585.464C320.706 591.173 328.912 597.507 332.158 599.541C339.876 604.374 356.308 603.406 357.099 598.068C357.41 595.97 358.751 593.719 360.079 593.065C361.406 592.411 362.636 588.332 362.811 584.001C363.132 576.046 366.356 571.262 366.705 578.224C367.078 585.655 369.806 589.58 379.165 596.148C392.784 605.704 413.417 622.493 414.673 625.042C415.902 627.535 428.578 630.305 431.708 628.762C432.861 628.194 435.849 628.743 438.348 629.981C440.846 631.222 448.257 631.71 454.814 631.068C464.243 630.144 468.022 628.556 472.883 623.481C480.155 615.885 486.707 616.888 499.732 627.594C505.911 632.674 509.544 633.8 515.453 632.469C519.68 631.516 526.293 631.291 530.148 631.968C537.047 633.18 537.072 633.146 531.748 629.8C525.858 626.1 521.211 618.608 523.963 617.252C524.907 616.786 524.579 614.17 523.232 611.438C521.886 608.706 521.643 606.048 522.692 605.53C523.944 604.913 522.736 601.786 519.189 596.453C515.808 591.368 514.452 587.983 515.573 587.431C516.561 586.944 519.604 591.084 522.336 596.627C525.784 603.624 527.645 605.865 528.416 603.957C529.211 601.984 530.326 603.614 532.348 609.705C534.059 614.857 535.534 617.312 536.09 615.933C536.594 614.682 539.018 616.543 541.476 620.07C549.759 631.956 550.13 632.138 558.074 628.222C569.924 622.382 583.386 603.839 584.435 591.91C584.924 586.353 587.479 577.444 590.11 572.11C595.219 561.761 596.167 561.454 617.883 563.118C659.329 566.291 656.916 566.558 653.389 559.229C649.317 550.772 649.83 542.045 654.251 544.506C656.136 545.556 658.394 547.867 659.269 549.642C660.144 551.418 661.561 552.526 662.416 552.104C663.273 551.682 662.362 549.007 660.394 546.156C656.846 541.02 656.863 541.006 662.171 544.508C667.297 547.893 667.213 547.511 660.194 535.616C656.162 528.781 649.691 520.163 645.811 516.467C641.933 512.769 637.845 507.415 636.727 504.571C635.018 500.215 634.686 500.134 634.626 504.062C634.572 507.741 634.163 507.288 632.698 501.926C631.676 498.185 631.089 494.307 631.391 493.309C631.695 492.311 629.816 489.425 627.218 486.896C624.621 484.367 622.348 483.285 622.17 484.497C621.989 485.706 621.265 485.523 620.558 484.088C619.851 482.655 620.531 480.134 622.067 478.488C624.33 476.067 625.503 476.742 628.234 482.036C631.571 488.504 640.456 499.424 638.376 494.497C634.56 485.469 674.191 533.024 681.685 546.467C683.724 550.129 686.047 552.806 686.84 552.415C687.636 552.023 688.369 553.269 688.473 555.182C688.611 557.74 690.664 557.099 696.225 552.76C700.384 549.512 711.134 541.297 720.113 534.505C739.946 519.501 745.312 513.464 749.536 501.408C751.323 496.308 753.477 491.792 754.324 491.375C757.635 489.743 775.073 455.877 775.19 450.855C775.292 446.459 775.166 446.234 774.474 449.563C773.62 453.66 767.726 455.043 767.517 451.195C767.455 450.037 764.8 445.382 761.614 440.849C758.429 436.319 755.742 430.775 755.641 428.531C755.54 426.285 755.95 425.419 756.551 426.601C757.153 427.786 758.104 426.858 758.664 424.535C759.293 421.928 761.557 420.303 764.576 420.288C769.346 420.265 770.868 420.045 775.568 418.698C776.821 418.337 778.23 419.954 778.7 422.288C779.32 425.366 780.125 425.71 781.632 423.538C784.566 419.305 778.356 409.767 774.681 412.866C772.884 414.381 771.824 413.984 771.704 411.749C771.6 409.84 773.131 408.123 775.108 407.933C780.483 407.413 770.48 382.339 763.917 379.884C761.439 378.957 758.179 375.699 756.674 372.647C755.169 369.592 752.502 367.103 750.748 367.118C747.913 367.139 748.097 367.511 752.399 370.469C756.785 373.481 756.882 373.779 753.431 373.646C751.337 373.563 750.11 374.486 750.706 375.696C751.302 376.905 753.003 377.917 754.484 377.946C755.965 377.972 757.071 378.964 756.943 380.151C756.549 383.775 749.317 382.181 748.536 378.296C748.133 376.291 745.854 373.784 743.471 372.727C739.702 371.05 739.622 371.404 742.859 375.455C746.488 380 746.339 380.135 736.598 381.102C723.603 382.392 711.301 380.043 711.844 376.377C712.449 372.294 727.32 370.626 731.963 374.12C734.085 375.713 736.409 376.729 737.13 376.374C737.849 376.019 736.715 374.571 734.611 373.155C731.349 370.962 732.152 369.937 740.014 366.244C745.092 363.859 751.931 362.667 755.213 363.597C760.675 365.146 760.908 364.979 757.968 361.606C756.2 359.579 753.941 356.272 752.946 354.253C751.952 352.236 750.746 351.556 750.266 352.743C749.788 353.932 748.755 352.787 747.971 350.197C747.189 347.61 744.973 344.192 743.047 342.604C740.038 340.12 739.533 340.585 739.463 345.914C739.387 351.693 737.588 352.95 712.808 364.542C685.262 377.423 651.709 387.14 665.978 378.101C670.679 375.124 672.326 372.574 671.126 370.14C669.924 367.701 671.28 365.61 675.371 363.594C678.677 361.965 680.811 359.474 680.115 358.061C679.269 356.345 680.48 355.822 683.751 356.488C687.559 357.263 689.146 356.16 690.85 351.554C693.554 344.246 694.549 343.644 695.565 348.699C696 350.859 697.533 352.956 698.97 353.356C700.496 353.78 700.495 352.833 698.964 351.078C696.106 347.8 696.851 342.763 700.963 337.563C703.282 334.633 703.406 335.053 702.016 341.103C700.984 345.6 701.636 349.804 703.909 353.295C707.28 358.472 707.339 358.4 705.994 350.817C705.231 346.523 705.402 342.62 706.369 342.144C708.878 340.907 711.913 347.885 709.997 350.48C709.066 351.739 709.488 353.253 711.005 354.098C712.523 354.943 713.295 354.093 712.85 352.068C712.432 350.154 712.85 348.21 713.785 347.749C714.717 347.29 715.825 344.592 716.246 341.755C716.666 338.918 718.919 334.857 721.251 332.729C726.407 328.027 725.764 326.411 716.908 321.821C712.516 319.543 710.107 319.425 710.218 321.494C710.481 326.368 703.99 328.545 701.89 324.286C700.881 322.237 700.992 320.098 702.139 319.533C703.424 318.9 702.249 317.404 699.077 315.64C695.712 313.767 693.951 313.894 693.996 316.002C694.032 317.778 687.314 327.772 679.065 338.212C670.817 348.651 662.198 360.807 659.913 365.227C653.86 376.927 651.745 376.593 654.346 364.343C655.893 357.058 657.974 353.48 660.828 353.203C663.524 352.943 665.415 350.202 666.104 345.553L667.177 338.307L662.922 339.416C660.581 340.029 658.157 339.493 657.534 338.229C656.908 336.959 649.552 339.517 641.121 343.937C627.233 351.214 618.82 352.659 622.965 347.051C623.857 345.842 624.953 342.401 625.396 339.401C625.875 336.177 629.151 332.395 633.422 330.146C637.39 328.054 641.187 324.065 641.857 321.284C643.663 313.8 652.299 310.282 655.069 315.903C656.287 318.374 657.716 319.324 658.244 318.014C658.772 316.704 658.136 313.465 656.829 310.812C655.522 308.16 655.226 305.611 656.171 305.145C657.115 304.68 658.863 306.248 660.056 308.633C661.719 311.955 662.182 312.024 662.044 308.934C661.945 306.714 662.463 304.825 663.199 304.737C663.934 304.647 664.867 303.838 665.276 302.939C665.684 302.04 665.22 302.121 664.244 303.12C663.269 304.117 662.04 304.062 661.516 302.999C660.57 301.079 673.853 285.386 676.636 285.132C679.172 284.901 659.786 265.055 653.157 261.099C649.653 259.004 645.419 257.967 643.752 258.789C642.082 259.611 639.685 259.398 638.423 258.316C637.162 257.233 634.682 257.675 632.91 259.295C631.14 260.917 626.493 264.525 622.584 267.313L615.478 272.384L619.287 266.037C622.977 259.89 623.442 254.058 619.827 259.272C618.842 260.693 617.003 260.704 615.741 259.301C614.036 257.404 613.804 257.561 614.839 259.918C615.608 261.664 615.372 263.515 614.315 264.035C613.244 264.563 611.714 262.595 610.849 259.57C608.793 252.397 605.733 254.121 607.3 261.569C608.08 265.278 605.509 272.144 600.216 280.495C591.601 294.081 587.427 298.03 587.148 292.859C587.058 291.205 588.484 289.113 590.318 288.209C593.21 286.784 593.198 283.281 590.291 280.83C588.411 279.247 590.866 266.331 593.272 265.146C595.096 264.247 594.534 261.924 591.215 256.618C587.886 251.298 587.127 248.128 588.406 244.911C589.37 242.485 589.476 239.114 588.641 237.42C586.918 233.923 592.738 226.801 596.469 227.84C598.941 228.529 591.205 217.311 586.311 213.114C582.675 209.995 582.104 210.841 572.224 233.988C567.134 245.914 560.181 260.985 556.774 267.479C551.78 276.991 525.869 315.218 513.916 330.706C512.517 332.519 514.994 325.761 519.422 315.688C523.85 305.616 527.597 294.231 527.752 290.392C527.974 284.772 528.658 283.929 531.254 286.073C535.021 289.186 537.412 285.06 534.851 279.864C532.685 275.468 535.34 273.749 538.66 277.397C540.411 279.322 541.167 278.474 541.387 274.346C541.616 270.038 542.313 269.316 544.21 271.412C545.952 273.335 546.827 271.573 547.048 265.701C547.223 261.028 548.669 257.271 550.261 257.348C551.853 257.425 552.754 255.489 552.263 253.046C551.626 249.884 552.84 248.44 556.475 248.041C559.362 247.723 561.053 246.408 560.367 245.015C559.699 243.661 560.41 241.205 561.947 239.559C563.758 237.62 563.713 234.528 561.822 230.774C559.242 225.655 558.945 225.586 559.289 230.173C559.605 234.357 558.934 234.987 555.848 233.412C552.642 231.776 551.869 230.181 551.11 223.65C550.609 219.356 551.17 214.912 552.356 213.775C553.769 212.418 553.444 210.797 551.414 209.075C549.007 207.026 548.038 208.535 547.064 215.849C546.318 221.437 545.37 223.361 544.731 220.586C542.73 211.932 538.608 215.871 538.116 226.905C537.846 232.928 537.19 236.968 536.658 235.887C536.124 234.804 535.139 236.704 534.468 240.106C533.797 243.508 533.989 247.797 534.895 249.634C535.801 251.472 535.768 253.356 534.824 253.821C530.594 255.906 523.464 226.526 524.441 211.042C524.615 208.302 523.977 206.934 522.523 206.934C521.324 206.936 520.989 201.637 521.774 195.157L523.203 183.38L516.008 181.548C512.051 180.544 504.666 176.34 499.597 172.208C490.623 164.897 486.811 165.062 490.529 172.605C491.539 174.654 492.797 175.259 493.326 173.949C493.854 172.639 494.838 172.686 495.511 174.052C496.184 175.418 496.296 177.625 495.759 178.955C495.222 180.288 495.494 181.987 496.367 182.736C497.239 183.483 498.176 187.438 498.452 191.528C498.727 195.615 498.405 196.799 497.735 194.156C494.667 182.077 485.442 199.977 477.111 234.167C475.171 242.14 471.774 253.43 469.564 259.257L465.545 269.853L465.681 260.578C465.757 255.479 466.916 250.126 468.261 248.688C469.604 247.248 470.818 238.272 470.955 228.74C471.092 219.208 472.257 208.389 473.543 204.696C474.831 201.002 476.621 193.903 477.523 188.921C478.425 183.938 479.526 180.596 479.967 181.493C480.41 182.392 480.318 178.511 479.763 172.867C479.204 167.188 480.059 162.158 481.68 161.597C485.489 160.278 484.951 159.463 477.855 155.82C473.538 153.604 470.484 153.921 466.42 157.014C461.102 161.058 460.789 160.943 458.814 154.224C457.681 150.369 456.133 147.519 455.376 147.893C454.62 148.265 452.318 145.6 450.263 141.967C445.163 132.957 434.867 127.721 423.323 128.27C415.022 128.664 413.65 129.358 413.402 133.29C413.242 135.798 412.02 138.391 410.686 139.049C408.817 139.969 408.124 138.935 407.67 134.549C406.84 126.559 403.054 126.135 397.331 133.394C394.751 136.666 390.107 139.794 387.007 140.346C383.908 140.898 381.444 142.659 381.53 144.259C381.617 145.858 380.188 147.905 378.354 148.809C376.519 149.713 375.578 151.585 376.261 152.97C378.01 156.52 379.125 194.791 377.452 193.859C376.693 193.437 375.479 196.418 374.754 200.482C373.636 206.75 373.124 207.24 371.386 203.714C370.083 201.069 367.923 200.234 365.455 201.423C363.317 202.449 359.962 202.821 357.993 202.248C352.93 200.774 353.635 191.057 358.818 190.914C361.159 190.85 362.399 188.813 362.104 185.507C361.845 182.588 362.068 180.462 362.602 180.779C363.136 181.1 364.896 179.102 366.514 176.342C368.657 172.687 368.455 168.072 365.776 159.376C363.288 151.298 361.932 148.531 361.592 150.828C361.314 152.7 359.872 154.784 358.385 155.462C356.412 156.357 356.133 154.806 357.353 149.72C358.269 145.884 358.15 142.264 357.085 141.671C356.02 141.078 354.886 142.366 354.564 144.534C354.243 146.702 352.203 149.349 350.031 150.42C347.664 151.586 346.816 153.859 347.917 156.092C350.589 161.514 347.546 161.945 341.328 157.024L335.919 152.745L337.912 161.952C339.01 167.017 339.311 170.829 338.584 170.422C336.298 169.15 327.208 152.352 329.089 152.876C330.071 153.148 328.094 147.868 324.695 141.144C319.354 130.576 318.055 129.161 315.142 130.735C313.289 131.738 310.876 135.227 309.781 138.489ZM195.463 201.901C196.136 203.267 195.528 204.956 194.111 205.654C192.694 206.352 190.984 205.806 190.311 204.44C189.638 203.074 190.246 201.385 191.663 200.687C193.08 199.989 194.79 200.535 195.463 201.901ZM341.616 135.36C339.326 137.063 337.855 140.458 338.348 142.904C339.104 146.668 339.413 146.646 340.35 142.757C341.273 138.934 341.661 138.799 342.668 141.951C343.456 144.412 344.954 144.884 346.949 143.302C351.858 139.416 353.364 136.828 352.151 134.367C350.618 131.255 346.63 131.63 341.616 135.36ZM370.712 163.453C370.543 166.124 371.255 168.782 372.295 169.363C373.335 169.94 373.511 169.044 372.686 167.37C371.861 165.696 372.471 164.683 374.041 165.119C375.729 165.59 375.898 165.058 374.453 163.82C373.11 162.667 372.703 160.679 373.548 159.401C374.505 157.957 374.319 157.367 373.052 157.84C371.934 158.258 370.882 160.783 370.712 163.453ZM359.308 170.543C359.981 171.909 359.372 173.598 357.956 174.296C356.539 174.995 354.829 174.448 354.156 173.082C353.482 171.716 354.091 170.027 355.508 169.329C356.924 168.631 358.634 169.177 359.308 170.543ZM438.847 132.705C439.145 133.308 438.954 134.872 438.426 136.181C437.898 137.491 436.881 137.378 436.169 135.933C435.456 134.487 435.645 132.922 436.59 132.456C437.534 131.991 438.55 132.101 438.847 132.705ZM433.504 143.315C436.348 152.235 437.127 156.886 435.877 157.502C434.111 158.373 431.285 153.178 429.971 146.645C429.184 142.736 432.363 139.74 433.504 143.315ZM283.777 251.165C284.411 252.452 284.156 253.883 283.212 254.349C282.267 254.814 280.635 253.452 279.586 251.323C278.537 249.195 278.791 247.761 280.152 248.14C281.513 248.519 283.143 249.879 283.777 251.165ZM376.158 221.201C378.179 226.623 378.196 228.451 376.208 226.746C374.577 225.348 372.996 221.818 372.693 218.905C371.914 211.411 372.706 211.935 376.158 221.201ZM407.269 210.959C405.924 228.899 401.857 263.134 402.473 251.325C403.349 234.431 406.902 196.477 407.639 196.114C408.062 195.906 407.895 202.588 407.269 210.959ZM398.23 220.905C399.425 222.814 399.698 224.723 398.837 225.147C397.975 225.572 396.078 223.497 394.619 220.537C391.792 214.802 394.59 215.087 398.23 220.905ZM264.914 286.518C265.924 288.567 266.446 290.393 266.075 290.576C265.704 290.759 264.129 289.452 262.575 287.671C261.022 285.889 260.5 284.063 261.414 283.613C262.329 283.162 263.904 284.469 264.914 286.518ZM391.805 229.193C392.232 231.442 391.535 231.054 390.027 228.202C388.663 225.62 388.346 223.955 389.322 224.499C390.299 225.042 391.417 227.155 391.805 229.193ZM274.846 316.144C276.438 316.251 277.876 315.431 278.04 314.326C278.204 313.22 276.902 313.134 275.144 314.132C273.202 315.238 273.085 316.027 274.846 316.144ZM284.728 319.195C289.109 325.262 294.235 329.175 296.399 328.108C298.134 327.254 286.819 315.682 283.284 314.698C282.04 314.352 282.687 316.37 284.728 319.195ZM505.803 207.93C506.813 209.979 506.526 212.203 505.165 212.875C502.295 214.289 498.613 211.699 499.072 208.589C499.661 204.61 503.96 204.189 505.803 207.93ZM311.159 324.001C316.835 339.417 308.121 329.7 300.893 312.556C299.247 308.65 299.571 308.255 302.892 310.104C305.71 311.672 308.1 315.69 311.159 324.001ZM510.666 216.359C511.772 215.823 511.455 218.748 509.959 222.859C508.463 226.97 505.674 231.055 503.76 231.937C501.141 233.148 501.179 231.715 503.923 226.133C505.923 222.058 506.592 218.543 505.407 218.318C504.222 218.096 504.467 217.784 505.953 217.623C507.436 217.463 509.557 216.893 510.666 216.359ZM538.473 201.673C537.129 203.113 536.814 205.886 537.773 207.833C540.263 212.885 542.179 211.104 541.826 204.067C541.659 200.754 541.387 198.27 541.22 198.55C541.054 198.829 539.818 200.235 538.473 201.673ZM321.789 321.976C321.883 323.738 322.593 325.534 323.364 325.963C324.134 326.392 324.373 324.793 323.894 322.408C322.898 317.46 321.529 317.177 321.789 321.976ZM562.808 205.124C558.865 208.678 557.328 221.49 560.841 221.533C562.192 221.55 564.034 224.13 564.93 227.266C566.056 231.196 566.916 232.1 567.693 230.174C568.312 228.637 567.861 226.556 566.689 225.551C564.308 223.508 569.929 213.532 573.971 212.633C575.4 212.315 575.471 211.113 574.129 209.962C572.789 208.811 572.566 207.439 573.632 206.913C574.795 206.34 573.801 204.969 571.163 203.5C568.736 202.15 566.576 201.319 566.364 201.655C566.153 201.99 564.551 203.551 562.808 205.124ZM512.577 236.232C514.589 240.951 507.992 264.218 504.867 263.417C501.465 262.547 499.146 255.257 502.322 255.411C504.012 255.492 505.671 252.523 506.006 248.811C506.602 242.198 506.553 242.124 503.595 245.196C501.933 246.922 499.049 247.89 497.184 247.346C494.902 246.68 495.747 245.363 499.764 243.318C503.049 241.646 506.363 238.624 507.127 236.602C509.14 231.28 510.428 231.191 512.577 236.232ZM307.645 348.805C309.199 350.585 310.774 351.893 311.145 351.71C311.516 351.527 310.994 349.701 309.984 347.652C308.974 345.603 307.399 344.295 306.484 344.746C305.57 345.197 306.092 347.023 307.645 348.805ZM465.03 272.454C465.631 273.673 465.2 276 464.075 277.625C462.363 280.096 462.076 279.783 462.333 275.727C462.683 270.199 463.455 269.26 465.03 272.454ZM549.312 231.247C549.985 232.613 549.763 234.111 548.819 234.577C547.874 235.042 546.551 234.305 545.878 232.939C545.204 231.573 545.426 230.075 546.371 229.609C547.315 229.144 548.639 229.881 549.312 231.247ZM458.004 292.847C458.258 293.361 457.871 295.985 457.141 298.675C455.938 303.104 455.836 303.047 456.029 298.056C456.234 292.812 456.997 290.803 458.004 292.847ZM321.74 365.01C322.997 366.088 324.366 366.803 324.783 366.597C325.2 366.391 324.99 365.106 324.316 363.74C323.643 362.374 322.273 361.66 321.274 362.153C320.274 362.645 320.483 363.931 321.74 365.01ZM365.311 354.473C365.79 356.858 365.551 358.457 364.781 358.028C364.01 357.599 363.3 355.804 363.206 354.041C362.946 349.243 364.315 349.525 365.311 354.473ZM454.273 306.932C454.506 307.404 454.006 310.774 453.163 314.424L451.631 321.06L452.148 313.86C452.635 307.094 453.294 304.945 454.273 306.932ZM521.522 288.93C521.888 290.874 520.81 289.668 519.127 286.252C517.443 282.837 517.145 281.25 518.462 282.721C519.782 284.195 521.159 286.989 521.522 288.93ZM339.865 373.055C340.479 374.45 345.498 382.123 351.018 390.105C361.675 405.51 369.116 412.579 359.842 398.486C353.338 388.603 338.268 369.419 339.865 373.055ZM579.511 277.706C582.791 280.519 579.202 299.865 575.028 301.872C571.89 303.379 571.421 303.033 572.539 300.031C573.484 297.5 571.578 298.103 566.497 301.943C560.21 306.693 558.943 306.889 558.204 303.224C557.217 298.315 560.728 293.797 569.246 289.019C572.594 287.137 573.451 285.903 571.25 286.133C568.157 286.453 567.659 285.868 568.716 283.156C570.412 278.798 576.942 275.503 579.511 277.706ZM609.894 282.917C609.023 285.745 607.256 287.764 605.97 287.407C604.686 287.049 604.711 285.172 606.027 283.24C609.904 277.541 611.598 277.401 609.894 282.917ZM655.1 265.874C657.382 267.83 656.114 283.565 653.572 284.818C652.207 285.491 649.33 274.141 649.572 269.04C649.804 264.156 651.78 263.025 655.1 265.874ZM572.813 311.814C573.884 312.731 572.284 316.396 569.26 319.958C566.236 323.52 562.828 327.749 561.689 329.357C559.885 331.898 559.654 331.582 559.908 326.913C560.068 323.963 562.115 319.346 564.458 316.654C570.143 310.117 570.558 309.879 572.813 311.814ZM666.987 275.12C667.66 276.486 667.438 277.984 666.494 278.45C665.549 278.915 664.226 278.178 663.552 276.812C662.879 275.446 663.101 273.948 664.046 273.482C664.99 273.017 666.314 273.754 666.987 275.12ZM629.179 298.019C630.599 300.9 631.654 300.426 635.729 295.081C638.401 291.576 641.635 289 642.916 289.356C648.869 291.013 600.83 338.469 593.131 338.535C590.453 338.558 598.484 329.852 611.986 318.099C616.759 313.947 621.637 307.277 622.826 303.28C625.397 294.638 626.9 293.394 629.179 298.019ZM650.353 284.679C650.65 285.282 650.46 286.845 649.932 288.155C649.403 289.465 648.387 289.352 647.675 287.906C646.962 286.461 647.151 284.895 648.096 284.43C649.04 283.964 650.056 284.075 650.353 284.679ZM353.414 442.682C352.662 452.323 352.149 455.486 350.018 463.667C349.015 467.514 348.835 464.164 349.617 456.222C350.398 448.28 351.393 440.554 351.828 439.053C353.294 433.972 353.971 435.524 353.414 442.682ZM590.691 342.367C590.527 343.473 589.089 344.293 587.497 344.185C585.736 344.068 585.853 343.279 587.795 342.174C589.552 341.175 590.854 341.262 590.691 342.367ZM667.433 316.573C668.987 318.353 670.562 319.661 670.933 319.478C671.304 319.295 670.782 317.469 669.772 315.42C668.762 313.371 667.187 312.063 666.272 312.514C665.358 312.965 665.881 314.791 667.433 316.573ZM719.306 346.223C719.107 349.362 719.835 351.022 721.629 351.521C723.064 351.921 723.832 350.219 723.332 347.736C722.089 341.558 719.658 340.644 719.306 346.223ZM655.299 385.043C659.634 387.457 655.19 388.613 648.404 386.836C643.667 385.596 643.646 385.514 647.758 384.382C650.1 383.741 653.493 384.038 655.299 385.043ZM723.304 385.061C723.569 385.597 722.626 386.608 721.209 387.307C719.792 388.005 718.099 387.493 717.447 386.17C716.796 384.848 717.738 383.837 719.542 383.924C721.347 384.013 723.04 384.524 723.304 385.061ZM715.564 393.176C716.821 394.254 716.599 395.753 715.07 396.506C713.542 397.259 712.218 396.522 712.129 394.869C712.04 393.215 712.262 391.716 712.622 391.539C712.983 391.361 714.307 392.098 715.564 393.176ZM759.842 392.916C761.09 393.529 758.397 396.724 753.861 400.015C744.674 406.679 742.824 406.659 743.249 399.896C743.545 395.234 754.876 390.467 759.842 392.916ZM626.908 491.317C630.041 493.061 629.275 497.288 625.859 497.122C624.098 497.036 622.594 495.756 622.514 494.273C622.343 491.119 624.249 489.837 626.908 491.317ZM641.808 523.866C641.642 524.982 639.295 523.74 636.592 521.109C631.892 516.532 631.905 516.442 636.893 519.078C639.763 520.596 641.975 522.75 641.808 523.866ZM454.812 611.202C455.485 612.568 455.263 614.067 454.318 614.532C453.374 614.998 453.427 617.055 454.437 619.104C455.447 621.153 455.078 623.419 453.616 624.139C451.335 625.263 450.97 624.366 451.023 617.795C451.091 609.804 452.722 606.963 454.812 611.202ZM646.409 532.211C647.082 533.577 646.86 535.076 645.916 535.541C644.971 536.007 643.648 535.27 642.974 533.904C642.301 532.538 642.523 531.039 643.468 530.574C644.412 530.108 645.736 530.845 646.409 532.211ZM664.532 560.322C665.205 561.688 666.575 562.402 667.575 561.909C668.574 561.417 668.365 560.131 667.108 559.053C665.851 557.974 664.483 557.26 664.065 557.465C663.648 557.671 663.859 558.956 664.532 560.322Z" fill="#276555"/>
</svg>
